<svg width="25" height="25" viewBox="0 0 25 25" fill="none" xmlns="http://www.w3.org/2000/svg">
<path d="M13.44 17.3885C12.66 17.3885 11.91 17.3885 11.14 17.3885C11.14 15.6685 11.14 13.9585 11.14 12.2185C10.75 12.2185 10.38 12.2185 10 12.2185C10 11.6285 10 11.0685 10 10.4885C10.38 10.4885 10.74 10.4885 11.14 10.4885C11.14 10.3685 11.14 10.2685 11.14 10.1585C11.17 9.60852 11.16 9.04852 11.25 8.50852C11.36 7.82852 11.8 7.39852 12.45 7.18852C12.96 7.02852 14.59 6.93852 15.16 7.04852C15.16 7.09852 15.17 7.15852 15.17 7.20852C15.17 7.70852 15.17 8.20852 15.17 8.74852C14.97 8.74852 14.78 8.74852 14.59 8.74852C14.47 8.74852 14.34 8.74852 14.22 8.74852C13.57 8.76852 13.45 8.88852 13.44 9.54852C13.44 9.84852 13.44 10.1385 13.44 10.4685C14.02 10.4685 14.58 10.4685 15.17 10.4685C15.1 11.0685 15.04 11.6285 14.97 12.1985C14.46 12.1985 13.97 12.1985 13.44 12.1985C13.44 13.9385 13.44 15.6585 13.44 17.3885Z" fill="#1A1A1A"/>
<circle cx="12.5" cy="12.5" r="12.25" stroke="#1A1A1A" stroke-width="0.5"/>
</svg>
