<?xml version="1.0" encoding="utf-8"?>
<!-- Generator: Adobe Illustrator 26.0.1, SVG Export Plug-In . SVG Version: 6.00 Build 0)  -->
<svg version="1.1" id="圖層_1" xmlns="http://www.w3.org/2000/svg" xmlns:xlink="http://www.w3.org/1999/xlink" x="0px" y="0px"
	 viewBox="0 0 36.5 36.5" style="enable-background:new 0 0 36.5 36.5;" xml:space="preserve">
<style type="text/css">
	.st0{fill:none;stroke:#FFFFFF;stroke-width:0.25;}
	.st1{clip-path:url(#SVGID_00000052813035690341318620000005342377592768111766_);}
	.st2{fill:#FFFFFF;}
</style>
<g>
	<g>
		<circle shape-rendering="crispEdges" class="st0" cx="18.2" cy="18.2" r="18.2"/>
	</g>
	<g>
		<defs>
			<rect id="SVGID_1_" x="8.9" y="10.9" width="18.8" height="14.6"/>
		</defs>
		<clipPath id="SVGID_00000149381512574519739140000016925941158127005056_">
			<use xlink:href="#SVGID_1_"  style="overflow:visible;"/>
		</clipPath>
		<g style="clip-path:url(#SVGID_00000149381512574519739140000016925941158127005056_);">
			<path class="st2" d="M11.9,22.6V11.1c0-0.2,0-0.2-0.2-0.2H9.1c-0.2,0-0.3,0.1-0.3,0.2v14c0,0.2,0.1,0.3,0.3,0.3h8.6
				c0.2,0,0.3,0,0.3-0.3c0.1-0.8,0.2-1.5,0.4-2.3c0-0.2,0-0.2-0.2-0.2L11.9,22.6L11.9,22.6z"/>
			<path class="st2" d="M24,15.8v-0.2c0-0.4-0.1-0.7-0.2-1.1c0,0-0.1-0.1-0.1-0.1c-0.1,0-0.1,0-0.2,0h-2.4c-0.1,0-0.2,0.1-0.2,0.2
				s0,0.2,0,0.4c0,0.8,0.1,1.6,0.1,2.4c0,2.6,0,5.2,0,7.9c0,0.3,0,0.3,0.3,0.3h2.5c0.3,0,0.3,0,0.3-0.3c0-2.2,0-4.5,0-6.7
				c0-0.1,0-0.1,0-0.2c0-0.1,0.1-0.1,0.1-0.2c0.4-0.3,0.8-0.5,1.2-0.6c0.6-0.2,1.3-0.3,1.9-0.2c0.2,0,0.3,0,0.3-0.2v-2.7
				c0-0.1,0-0.2-0.2-0.2c-0.3,0-0.5,0-0.8,0c-0.8,0.1-1.6,0.5-2.2,1L24,15.8z"/>
		</g>
	</g>
</g>
</svg>
