<svg width="25" height="25" viewBox="0 0 25 25" fill="none" xmlns="http://www.w3.org/2000/svg">
<path d="M11.47 7C12.46 7 13.45 7 14.43 7C14.57 7.01 14.71 7.02 14.84 7.02C15.33 7.03 15.82 7.05 16.3 7.16C17.18 7.37 17.89 7.82 18.34 8.63C18.64 9.16 18.77 9.74 18.8 10.35C18.87 11.95 18.87 13.54 18.82 15.14C18.81 15.52 18.77 15.91 18.69 16.29C18.41 17.52 17.67 18.32 16.45 18.66C15.96 18.8 15.45 18.83 14.95 18.84C13.78 18.85 12.6 18.86 11.43 18.86C10.84 18.86 10.25 18.84 9.67 18.72C8.73 18.53 7.99 18.05 7.51 17.2C7.21 16.67 7.1 16.09 7.05 15.49C7.03 15.29 7.02 15.09 7 14.89C7 13.55 7 12.22 7 10.88C7.01 10.82 7.01 10.77 7.02 10.71C7.06 10.36 7.08 10 7.14 9.65C7.39 8.32 8.33 7.38 9.66 7.12C10.16 7.02 10.67 7.01 11.18 7C11.28 7.02 11.37 7.01 11.47 7ZM17.77 12.76C17.78 12.76 17.78 12.76 17.79 12.76C17.79 12.32 17.8 11.88 17.79 11.44C17.77 10.92 17.76 10.39 17.68 9.87C17.55 9.03 17.06 8.47 16.23 8.25C15.89 8.16 15.54 8.1 15.19 8.09C14.37 8.06 13.56 8.05 12.74 8.05C12.15 8.05 11.56 8.05 10.97 8.06C10.54 8.07 10.11 8.09 9.68 8.2C8.99 8.38 8.51 8.79 8.28 9.48C8.11 10 8.07 10.54 8.06 11.08C8.05 12.33 8.05 13.59 8.06 14.84C8.06 15.21 8.1 15.59 8.17 15.95C8.35 16.88 8.91 17.47 9.86 17.64C10.25 17.71 10.64 17.75 11.03 17.75C12.15 17.77 13.28 17.78 14.4 17.76C14.92 17.75 15.43 17.72 15.94 17.65C16.85 17.52 17.46 16.94 17.64 16.07C17.71 15.72 17.76 15.37 17.76 15.02C17.78 14.28 17.77 13.52 17.77 12.76Z" fill="#1A1A1A"/>
<path d="M15.97 12.9299C15.97 14.6199 14.6 15.9699 12.92 15.9699C11.24 15.9599 9.89001 14.5999 9.89001 12.9199C9.90001 11.2399 11.26 9.87995 12.94 9.88995C14.62 9.89995 15.97 11.2499 15.97 12.9299ZM12.94 10.9599C11.85 10.9499 10.96 11.8299 10.96 12.9199C10.96 14.0099 11.83 14.8999 12.92 14.9099C14.02 14.9199 14.9 14.0399 14.91 12.9399C14.9 11.8399 14.03 10.9599 12.94 10.9599Z" fill="#1A1A1A"/>
<path d="M16.8 9.77005C16.8 10.17 16.48 10.48 16.08 10.47C15.69 10.47 15.38 10.1501 15.38 9.76005C15.38 9.36005 15.7 9.05005 16.1 9.06005C16.49 9.06005 16.8 9.38005 16.8 9.77005Z" fill="#1A1A1A"/>
<circle cx="12.5" cy="12.5" r="12.25" stroke="#1A1A1A" stroke-width="0.5"/>
</svg>
