<svg width="330" height="45" viewBox="0 0 330 45" fill="none" xmlns="http://www.w3.org/2000/svg">
<path d="M69.5287 18.056V16.264H76.7807V18.056H69.5287ZM76.7807 10.944V12.596H69.5287V10.944H76.7807ZM69.5287 13.576H76.7807V15.312H69.5287V13.576ZM76.7807 20.548H78.0407V19.176H81.7367V18.056H78.0407V10.944H81.0647V9.852H65.4687V10.944H68.2407V18.056H64.7127V19.176H76.7807V20.548ZM63.2287 19.484L61.3527 20.716V15.788H63.9567V14.528H61.3527V8.676H60.0927V14.528H56.7887V15.788H60.0927V21.556C58.7487 22.424 57.5167 23.208 56.5647 23.796L57.1247 25.056C58.0207 24.496 59.0567 23.796 60.0927 23.096V32.112C60.0927 32.476 59.9527 32.56 59.6167 32.56C59.3367 32.588 58.3007 32.588 57.0967 32.532C57.2927 32.924 57.4887 33.484 57.5447 33.82C59.1407 33.82 60.0087 33.792 60.5967 33.568C61.1287 33.316 61.3527 32.952 61.3527 32.084V22.228L63.6207 20.688L63.2287 19.484ZM70.4247 24.076H66.9247V22.312H70.4247V24.076ZM66.9247 30.068V27.996H70.4247V29.76L66.9247 30.068ZM70.4247 26.988H66.9247V25.084H70.4247V26.988ZM64.2927 22.312H65.8047V30.152L63.8447 30.292L64.0407 31.44C65.8887 31.244 68.1007 31.02 70.4247 30.796V34.016H71.6007V22.312H72.6927V21.22H64.2927V22.312ZM79.3287 24.076H75.6327V22.312H79.3287V24.076ZM75.6327 29.956V27.968H79.3287V29.956H75.6327ZM79.3287 26.988H75.6327V25.084H79.3287V26.988ZM81.9047 22.312V21.22H73.1967V22.312H74.4847V29.956H73.0007V31.076H79.3287V34.016H80.4767V31.076H81.9047V29.956H80.4767V22.312H81.9047ZM107.133 9.292C105.481 11.532 102.513 13.968 99.9927 15.368C100.385 15.62 100.749 16.012 101.029 16.32C103.549 14.78 106.517 12.26 108.393 9.824L107.133 9.292ZM108.197 16.796C106.321 19.26 102.933 21.78 99.9927 23.236C100.357 23.516 100.721 23.88 100.945 24.188C103.969 22.62 107.385 19.96 109.429 17.328L108.197 16.796ZM97.3047 12.792H87.8687V10.748H97.3047V12.792ZM97.3047 15.956H87.8687V13.828H97.3047V15.956ZM98.6207 9.684H86.5807V17.02H98.6207V9.684ZM99.5727 19.12H93.2727C92.9647 18.504 92.5727 17.748 92.2367 17.216L91.0327 17.58C91.2847 18.028 91.5927 18.588 91.8447 19.12H85.1247V20.296H99.5727V19.12ZM87.8687 28.024C87.2247 29.508 86.1887 30.964 85.0127 32.028C85.3207 32.224 85.8247 32.644 86.0207 32.812C87.1967 31.72 88.3727 29.984 89.1007 28.332L87.8687 28.024ZM87.9807 23.096H97.0527V25.98H87.9807V23.096ZM98.3407 27.072V22.004H86.6927V27.072H91.8447V32.308C91.8447 32.56 91.7607 32.672 91.4247 32.672C91.1167 32.672 90.1087 32.672 88.7647 32.644C88.9887 33.008 89.1847 33.456 89.2407 33.82C90.8367 33.82 91.8447 33.82 92.4327 33.596C92.9927 33.372 93.1327 33.064 93.1327 32.308V27.072H98.3407ZM95.1487 28.472C96.1847 29.676 97.3327 31.384 97.8367 32.42L98.9007 31.832C98.3687 30.768 97.1927 29.144 96.1567 27.94L95.1487 28.472ZM108.813 25.056C106.769 28.22 102.933 31.244 99.0407 32.924C99.3207 33.176 99.7127 33.596 99.9647 33.932C103.969 32.112 107.833 28.948 110.017 25.504L108.813 25.056ZM120.769 24.496V30.096H114.917V24.496H120.769ZM120.489 14.136V18.98H114.917V14.136H120.489ZM114.917 20.212H121.777V12.904H117.269C117.829 11.728 118.389 10.244 118.865 8.984L117.437 8.648C117.129 9.88 116.513 11.644 115.981 12.904H113.629V33.26H114.917V31.3H122.001V23.264H114.917V20.212ZM137.821 11.504V10.244H123.065V11.504H129.729V15.508H124.185V29.928H125.445V16.768H129.729V33.988H131.017V16.768H135.637V28.164C135.637 28.416 135.553 28.528 135.245 28.528C134.937 28.556 133.957 28.556 132.697 28.528C132.865 28.892 133.089 29.424 133.145 29.732C134.713 29.732 135.637 29.732 136.197 29.536C136.813 29.312 136.925 28.892 136.925 28.164V15.508H131.017V11.504H137.821ZM152.736 32H154.444V13.016H160.884V11.588H146.324V13.016H152.736V32ZM165.504 32.364C167.408 32.364 169.2 31.328 170.712 30.096H170.768L170.936 32H172.308V22.536C172.308 19.232 171.048 16.684 167.492 16.684C165.056 16.684 162.984 17.86 161.836 18.644L162.564 19.82C163.6 19.036 165.308 18.112 167.268 18.112C170.096 18.112 170.74 20.408 170.684 22.62C164.104 23.376 161.164 24.944 161.164 28.248C161.164 31.02 163.096 32.364 165.504 32.364ZM165.84 30.992C164.188 30.992 162.788 30.208 162.788 28.164C162.788 25.868 164.804 24.496 170.684 23.824V28.668C168.92 30.208 167.492 30.992 165.84 30.992ZM179.501 32.364C180.033 32.364 180.313 32.28 180.593 32.196L180.341 30.908C180.033 30.964 179.921 30.964 179.809 30.964C179.417 30.964 179.137 30.656 179.137 29.956V9.74H177.513V29.788C177.513 31.524 178.157 32.364 179.501 32.364ZM184.978 32H186.602V27.968L189.822 24.16L194.638 32H196.43L190.774 23.012L195.646 17.076H193.798L186.658 25.868H186.602V9.74H184.978V32ZM211.358 32.364C215.362 32.364 217.966 29.956 217.966 26.82C217.966 23.712 216.006 22.424 213.682 21.388L210.63 20.044C209.146 19.4 207.158 18.532 207.158 16.208C207.158 14.108 208.894 12.736 211.498 12.736C213.514 12.736 215.11 13.548 216.314 14.78L217.266 13.688C215.978 12.288 213.962 11.224 211.498 11.224C208.026 11.224 205.45 13.324 205.45 16.348C205.45 19.344 207.774 20.632 209.594 21.444L212.646 22.788C214.662 23.684 216.258 24.468 216.258 26.932C216.258 29.256 214.382 30.852 211.358 30.852C209.034 30.852 206.934 29.816 205.45 28.136L204.414 29.312C206.038 31.132 208.39 32.364 211.358 32.364ZM222.029 32H223.653V20.828C225.389 19.036 226.621 18.14 228.357 18.14C230.653 18.14 231.633 19.568 231.633 22.676V32H233.257V22.452C233.257 18.616 231.829 16.684 228.721 16.684C226.677 16.684 225.137 17.86 223.625 19.372L223.653 16.124V9.74H222.029V32ZM244.033 32.364C247.645 32.364 250.781 29.508 250.781 24.552C250.781 19.568 247.645 16.684 244.033 16.684C240.421 16.684 237.285 19.568 237.285 24.552C237.285 29.508 240.421 32.364 244.033 32.364ZM244.033 30.964C241.121 30.964 238.993 28.36 238.993 24.552C238.993 20.744 241.121 18.112 244.033 18.112C246.945 18.112 249.101 20.744 249.101 24.552C249.101 28.36 246.945 30.964 244.033 30.964ZM257.438 32H259.398L261.834 23.068C262.31 21.612 262.646 20.212 262.982 18.728H263.122C263.542 20.212 263.822 21.584 264.242 23.012L266.762 32H268.862L273.062 17.076H271.466L268.918 26.484C268.554 27.912 268.218 29.2 267.882 30.544H267.77C267.378 29.2 267.042 27.912 266.678 26.484L264.018 17.076H262.226L259.566 26.484C259.202 27.884 258.866 29.2 258.502 30.544H258.362C258.082 29.2 257.746 27.912 257.41 26.484L254.806 17.076H253.07L257.438 32Z" fill="white"/>
<rect x="21.5" y="0.5" width="287" height="44" stroke="white"/>
<path d="M-4.5897e-07 22.5L10.5 13.4067L10.5 31.5933L-4.5897e-07 22.5Z" fill="white"/>
<path d="M330 22.5L319.5 31.5933L319.5 13.4067L330 22.5Z" fill="white"/>
</svg>
