<svg width="19" height="24" viewBox="0 0 19 24" fill="none" xmlns="http://www.w3.org/2000/svg">
<path d="M2.97 9.56702C2.97 9.45702 2.97 9.35702 2.97 9.26702C2.98 8.24702 2.95 7.22702 3 6.20702C3.15 3.24702 5.31 0.747018 8.21 0.147017C11.94 -0.632982 15.48 1.76702 16.14 5.53702C16.21 5.94702 16.22 6.36702 16.23 6.77702C16.24 7.61702 16.23 8.45702 16.23 9.29702C16.23 9.38702 16.23 9.46702 16.23 9.56702C16.37 9.58702 16.48 9.58702 16.59 9.60702C17.72 9.80702 18.43 10.657 18.44 11.847C18.45 12.957 18.44 14.067 18.44 15.177C18.44 17.207 18.44 19.237 18.44 21.267C18.44 22.367 17.81 23.217 16.81 23.497C16.6 23.557 16.38 23.577 16.16 23.577C11.78 23.577 7.4 23.587 3.02 23.577C1.73 23.577 0.75 22.627 0.75 21.327C0.75 18.167 0.75 14.987 0.75 11.817C0.75 10.707 1.5 9.65702 2.97 9.56702ZM14.73 9.56702C14.74 9.50702 14.75 9.46702 14.75 9.41702C14.75 8.40702 14.77 7.39702 14.74 6.38702C14.63 3.20702 11.61 0.897018 8.5 1.58702C6.08 2.13702 4.48 4.12702 4.45 6.63702C4.44 7.54702 4.45 8.44702 4.45 9.35702C4.45 9.42702 4.46 9.49702 4.47 9.56702C7.9 9.56702 11.31 9.56702 14.73 9.56702ZM11.82 15.407C11.79 15.257 11.78 15.047 11.72 14.847C11.45 13.857 10.56 13.227 9.52 13.267C8.49 13.307 7.64 14.017 7.45 15.017C7.24 16.057 7.73 17.037 8.67 17.457C8.83 17.527 8.88 17.607 8.88 17.777C8.87 18.227 8.87 18.677 8.88 19.127C8.88 19.607 9.16 19.897 9.6 19.907C10.05 19.917 10.34 19.617 10.35 19.127C10.35 18.667 10.36 18.217 10.35 17.757C10.35 17.607 10.39 17.537 10.54 17.467C11.37 17.077 11.77 16.397 11.82 15.407Z" fill="white" fill-opacity="0.3"/>
</svg>
