<svg width="242" height="70" viewBox="0 0 242 70" fill="none" xmlns="http://www.w3.org/2000/svg">
<g clip-path="url(#clip0_123_141)">
<path d="M69.69 0H0V69.69H69.69V0Z" fill="black"/>
<path d="M10.38 8.76999H14.27V17.95H24.81V8.76999H28.69V30.85H24.81V21.54H14.27V30.85H10.38V8.76999Z" fill="white"/>
<path d="M37.18 19.87V19.81C37.1646 18.2882 37.4565 16.7789 38.0382 15.3726C38.6199 13.9663 39.4794 12.6918 40.5653 11.6255C41.6512 10.5593 42.9411 9.7231 44.3578 9.16714C45.7745 8.61118 47.2888 8.34686 48.81 8.39C50.3199 8.34943 51.8224 8.61442 53.2273 9.16903C54.6322 9.72365 55.9106 10.5565 56.9856 11.6175C58.0606 12.6785 58.9101 13.9458 59.4831 15.3433C60.0561 16.7408 60.3408 18.2397 60.32 19.75V19.81C60.3352 21.3275 60.0449 22.8325 59.4663 24.2354C58.8877 25.6383 58.0327 26.9105 56.9522 27.976C55.8716 29.0416 54.5877 29.8789 53.1769 30.4379C51.7661 30.9969 50.2572 31.2663 48.74 31.23C47.226 31.2774 45.7181 31.0175 44.3073 30.466C42.8965 29.9145 41.6122 29.0827 40.5318 28.021C39.4514 26.9593 38.5973 25.6897 38.0213 24.2887C37.4452 22.8878 37.159 21.3846 37.18 19.87ZM56.18 19.87V19.81C56.2189 18.7968 56.0538 17.7861 55.6946 16.8379C55.3354 15.8897 54.7893 15.0234 54.0889 14.2903C53.3884 13.5571 52.5478 12.9722 51.617 12.5702C50.6861 12.1682 49.684 11.9573 48.67 11.95C44.29 11.95 41.23 15.45 41.23 19.75V19.81C41.1912 20.8232 41.3562 21.8339 41.7155 22.7821C42.0747 23.7303 42.6207 24.5966 43.3212 25.3297C44.0217 26.0629 44.8623 26.6478 45.7931 27.0498C46.724 27.4518 47.7261 27.6627 48.74 27.67C49.7486 27.6696 50.7466 27.465 51.6739 27.0686C52.6012 26.6721 53.4387 26.092 54.1358 25.3631C54.8328 24.6343 55.3751 23.7718 55.7299 22.8277C56.0847 21.8837 56.2446 20.8775 56.2 19.87H56.18Z" fill="white"/>
<path d="M10.38 39.48H14.27V58.04H25.88V61.57H10.38V39.48Z" fill="white"/>
<path d="M47.21 39.31H50.81L60.53 61.56H56.42L54.18 56.23H43.74L41.47 61.56H37.47L47.21 39.31ZM52.81 52.79L49 43.95L45.21 52.79H52.81Z" fill="white"/>
<path d="M89.3 32.79H97.39V34.63H87.04V17.57H89.3V32.79Z" fill="#333333"/>
<path d="M105.81 34.87C105.031 34.8966 104.256 34.7589 103.534 34.4661C102.812 34.1732 102.16 33.7316 101.62 33.17C101.065 32.5588 100.636 31.8439 100.358 31.0665C100.08 30.2892 99.9585 29.4645 100 28.64V28.25C99.9795 27.0864 100.226 25.9336 100.72 24.88C101.157 23.9352 101.85 23.1316 102.72 22.56C103.549 22.0073 104.524 21.7148 105.52 21.72C106.243 21.6808 106.966 21.8072 107.634 22.0897C108.301 22.3721 108.895 22.8032 109.37 23.35C110.363 24.6924 110.849 26.3435 110.74 28.01V28.91H102.15C102.137 30.0109 102.529 31.0782 103.25 31.91C103.581 32.2865 103.991 32.5856 104.451 32.7861C104.911 32.9866 105.409 33.0835 105.91 33.07C106.607 33.0999 107.299 32.9373 107.91 32.6C108.447 32.2774 108.918 31.8567 109.3 31.36L110.63 32.36C110.124 33.1707 109.41 33.8311 108.562 34.2726C107.715 34.714 106.764 34.9203 105.81 34.87ZM105.56 23.48C105.143 23.4787 104.731 23.5673 104.351 23.7399C103.971 23.9125 103.633 24.1649 103.36 24.48C102.717 25.2292 102.331 26.1652 102.26 27.15H108.61V26.99C108.611 26.0606 108.298 25.1581 107.72 24.43C107.455 24.119 107.123 23.8721 106.749 23.7076C106.375 23.543 105.968 23.4652 105.56 23.48Z" fill="#333333"/>
<path d="M122.08 34.63C121.908 34.2057 121.803 33.7568 121.77 33.3C121.311 33.799 120.753 34.1965 120.131 34.4669C119.509 34.7373 118.838 34.8746 118.16 34.87C117.038 34.9098 115.94 34.5322 115.08 33.81C114.694 33.478 114.386 33.0646 114.178 32.5995C113.971 32.1344 113.869 31.6292 113.88 31.12C113.856 30.5215 113.981 29.9264 114.245 29.3886C114.508 28.8508 114.902 28.3872 115.39 28.04C116.653 27.2398 118.137 26.8583 119.63 26.95H121.74V25.95C121.756 25.6179 121.704 25.286 121.587 24.9748C121.47 24.6635 121.291 24.3795 121.06 24.14C120.788 23.9009 120.471 23.7178 120.128 23.6011C119.784 23.4844 119.422 23.4365 119.06 23.46C118.366 23.4375 117.684 23.6449 117.12 24.05C116.881 24.2026 116.683 24.4123 116.545 24.6602C116.408 24.9081 116.334 25.1864 116.33 25.47H114.15C114.164 24.7978 114.403 24.1498 114.83 23.63C115.307 23.0157 115.934 22.5338 116.65 22.23C117.452 21.8839 118.317 21.7101 119.19 21.72C120.429 21.645 121.652 22.0335 122.62 22.81C123.034 23.1912 123.363 23.6554 123.585 24.1724C123.807 24.6893 123.918 25.2473 123.91 25.81V31.65C123.873 32.5974 124.026 33.5427 124.36 34.43V34.61L122.08 34.63ZM118.48 32.98C119.159 32.978 119.825 32.7951 120.41 32.45C120.981 32.1373 121.444 31.6599 121.74 31.08V28.48H120.04C117.373 28.48 116.04 29.2567 116.04 30.81C116.026 31.1107 116.079 31.4107 116.197 31.6877C116.315 31.9648 116.493 32.2117 116.72 32.41C117.218 32.8069 117.844 33.0094 118.48 32.98Z" fill="#333333"/>
<path d="M134.39 23.9C134.036 23.8414 133.678 23.8147 133.32 23.82C132.708 23.7698 132.095 23.9189 131.574 24.2451C131.054 24.5713 130.652 25.0571 130.43 25.63V34.63H128.26V21.95H130.37V23.42C130.671 22.8928 131.108 22.4565 131.636 22.1572C132.164 21.858 132.763 21.707 133.37 21.72C133.711 21.6956 134.053 21.7503 134.37 21.88L134.39 23.9Z" fill="#333333"/>
<path d="M139.39 21.95L139.46 23.55C139.903 22.9659 140.479 22.4953 141.139 22.1772C141.8 21.859 142.527 21.7023 143.26 21.72C145.927 21.72 147.28 23.23 147.32 26.25V34.63H145.15V26.24C145.187 25.5193 144.964 24.8092 144.52 24.24C144.261 24.0061 143.958 23.8278 143.627 23.716C143.297 23.6042 142.947 23.5613 142.6 23.59C141.94 23.5789 141.293 23.7747 140.75 24.15C140.219 24.5316 139.793 25.0405 139.51 25.63V34.63H137.34V21.95H139.39Z" fill="#333333"/>
<path d="M151.56 18.59C151.548 18.2632 151.663 17.9444 151.88 17.7C152.008 17.5672 152.165 17.4657 152.338 17.4032C152.511 17.3408 152.697 17.3192 152.88 17.34C153.063 17.3199 153.248 17.3419 153.422 17.4043C153.595 17.4667 153.752 17.5678 153.88 17.7C154.101 17.9429 154.219 18.2618 154.21 18.59C154.219 18.9151 154.1 19.2308 153.88 19.47C153.75 19.5986 153.592 19.6966 153.419 19.7572C153.246 19.8177 153.062 19.8391 152.88 19.82C152.698 19.8398 152.513 19.8187 152.34 19.7582C152.167 19.6976 152.01 19.5992 151.88 19.47C151.662 19.2298 151.548 18.9139 151.56 18.59ZM153.9 34.59H151.73V21.91H153.9V34.59Z" fill="#333333"/>
<path d="M160.38 21.95L160.45 23.55C160.893 22.9653 161.468 22.4943 162.129 22.1761C162.79 21.8578 163.517 21.7015 164.25 21.72C166.917 21.72 168.267 23.23 168.3 26.25V34.63H166.13V26.24C166.18 25.5194 165.958 24.8062 165.51 24.24C165.251 24.0061 164.948 23.8278 164.617 23.716C164.287 23.6042 163.937 23.5613 163.59 23.59C162.93 23.5789 162.283 23.7747 161.74 24.15C161.206 24.5287 160.779 25.0384 160.5 25.63V34.63H158.33V21.95H160.38Z" fill="#333333"/>
<path d="M172.02 28.19C171.927 26.5067 172.41 24.842 173.39 23.47C173.81 22.9078 174.359 22.4551 174.991 22.1504C175.623 21.8458 176.319 21.6981 177.02 21.72C177.71 21.6878 178.398 21.8196 179.027 22.1047C179.657 22.3898 180.209 22.82 180.64 23.36L180.75 21.95H182.75V34.33C182.787 35.0424 182.676 35.7548 182.425 36.4224C182.174 37.0901 181.787 37.6987 181.29 38.21C180.763 38.6947 180.146 39.0698 179.473 39.3136C178.8 39.5574 178.085 39.6649 177.37 39.63C176.442 39.6259 175.525 39.4248 174.68 39.04C173.875 38.7026 173.182 38.1445 172.68 37.43L173.81 36.13C174.203 36.6659 174.716 37.1017 175.308 37.4023C175.901 37.7029 176.556 37.8596 177.22 37.86C177.67 37.8864 178.12 37.8202 178.543 37.6654C178.967 37.5106 179.353 37.2705 179.68 36.96C179.989 36.6249 180.228 36.2306 180.381 35.801C180.534 35.3713 180.598 34.9152 180.57 34.46V33.37C180.128 33.8695 179.58 34.2636 178.965 34.5232C178.351 34.7828 177.686 34.9013 177.02 34.87C176.317 34.8855 175.622 34.7297 174.993 34.4161C174.364 34.1025 173.821 33.6405 173.41 33.07C172.42 31.6417 171.931 29.9256 172.02 28.19ZM174.2 28.43C174.133 29.6164 174.437 30.7943 175.07 31.8C175.345 32.196 175.716 32.5163 176.148 32.7313C176.579 32.9463 177.058 33.049 177.54 33.03C178.169 33.0514 178.791 32.885 179.325 32.552C179.859 32.219 180.282 31.7344 180.54 31.16V25.38C180.271 24.8182 179.843 24.347 179.311 24.0238C178.778 23.7006 178.163 23.5395 177.54 23.56C177.058 23.541 176.579 23.6437 176.148 23.8587C175.716 24.0736 175.345 24.394 175.07 24.79C174.397 25.8972 174.093 27.189 174.2 28.48V28.43Z" fill="#333333"/>
<path d="M197.88 29.25L198.21 31.5L198.69 29.5L202.06 17.59H203.96L207.25 29.48L207.72 31.54L208.08 29.24L210.73 17.57H212.99L208.86 34.63H206.81L203.29 22.2L203.02 20.9L202.75 22.2L199.11 34.63H197.06L192.93 17.57H195.18L197.88 29.25Z" fill="#333333"/>
<path d="M216.12 18.59C216.112 18.2638 216.226 17.9465 216.44 17.7C216.57 17.5696 216.727 17.4697 216.899 17.4074C217.072 17.3452 217.257 17.3221 217.44 17.34C217.623 17.3221 217.808 17.3452 217.981 17.4074C218.153 17.4697 218.31 17.5696 218.44 17.7C218.661 17.9429 218.779 18.2618 218.77 18.59C218.779 18.9151 218.66 19.2308 218.44 19.47C218.308 19.5969 218.151 19.6938 217.978 19.7543C217.806 19.8147 217.622 19.8371 217.44 19.82C217.258 19.8371 217.074 19.8147 216.902 19.7543C216.729 19.6938 216.572 19.5969 216.44 19.47C216.227 19.2271 216.113 18.9131 216.12 18.59ZM218.47 34.59H216.3V21.91H218.47V34.59Z" fill="#333333"/>
<path d="M225.81 18.88V21.95H228.17V23.63H225.81V31.48C225.779 31.8875 225.888 32.2933 226.12 32.63C226.261 32.7686 226.431 32.8745 226.618 32.9402C226.804 33.0058 227.003 33.0297 227.2 33.01C227.537 32.9938 227.872 32.9469 228.2 32.87V34.61C227.66 34.7659 227.102 34.8467 226.54 34.85C226.132 34.878 225.723 34.8133 225.344 34.6609C224.965 34.5085 224.625 34.2723 224.35 33.97C223.812 33.252 223.55 32.365 223.61 31.47V23.61H221.3V21.93H223.61V18.86L225.81 18.88Z" fill="#333333"/>
<path d="M233.86 23.48C234.303 22.9126 234.873 22.4569 235.525 22.1496C236.176 21.8422 236.89 21.6916 237.61 21.71C240.277 21.71 241.63 23.22 241.67 26.24V34.62H239.5V26.23C239.537 25.5093 239.314 24.7992 238.87 24.23C238.613 23.9969 238.311 23.819 237.982 23.7072C237.654 23.5954 237.306 23.5521 236.96 23.58C236.297 23.5688 235.647 23.7645 235.1 24.14C234.569 24.5216 234.143 25.0305 233.86 25.62V34.62H231.69V16.62H233.86V23.48Z" fill="#333333"/>
<path d="M89.94 44.7L95.52 58.63L101.1 44.7H104.02V61.77H101.81V55.12L102.02 47.95L96.42 61.77H94.7L89.11 47.99L89.33 55.12V61.77H87.08V44.7H89.94Z" fill="#333333"/>
<path d="M116.44 61.77C116.268 61.342 116.163 60.89 116.13 60.43C115.674 60.9302 115.118 61.3286 114.498 61.5992C113.877 61.8697 113.207 62.0063 112.53 62C111.407 62.0466 110.307 61.6681 109.45 60.94C109.063 60.6089 108.754 60.1957 108.547 59.7304C108.339 59.2651 108.238 58.7593 108.25 58.25C108.224 57.6538 108.348 57.0607 108.61 56.5245C108.872 55.9883 109.264 55.5262 109.75 55.18C111.011 54.3731 112.496 53.9878 113.99 54.08H116.1V53.08C116.115 52.748 116.062 52.4165 115.945 52.1054C115.828 51.7943 115.65 51.5101 115.42 51.27C115.148 51.0308 114.831 50.8483 114.488 50.7332C114.144 50.6182 113.781 50.5729 113.42 50.6C112.705 50.5598 111.999 50.7683 111.42 51.19C111.185 51.3435 110.991 51.5522 110.855 51.798C110.719 52.0438 110.645 52.3191 110.64 52.6H108.51C108.523 51.9324 108.759 51.2884 109.18 50.77C109.66 50.1547 110.29 49.6727 111.01 49.37C111.806 49.015 112.669 48.8376 113.54 48.85C114.784 48.7753 116.01 49.1675 116.98 49.95C117.394 50.3312 117.723 50.7954 117.945 51.3124C118.167 51.8293 118.278 52.3873 118.27 52.95V58.78C118.234 59.7265 118.384 60.6708 118.71 61.56V61.75L116.44 61.77ZM112.81 60.11C113.491 60.1118 114.161 59.9324 114.75 59.59C115.318 59.2767 115.778 58.7992 116.07 58.22V55.61H114.37C111.71 55.61 110.37 56.39 110.37 57.95C110.353 58.2496 110.405 58.5491 110.523 58.825C110.641 59.1008 110.821 59.3456 111.05 59.54C111.547 59.9393 112.173 60.1422 112.81 60.11Z" fill="#333333"/>
<path d="M130.01 58.4C130.021 58.1363 129.967 57.874 129.852 57.6365C129.737 57.3991 129.564 57.1941 129.35 57.04C128.642 56.6122 127.857 56.3269 127.04 56.2C126.134 56.0333 125.254 55.751 124.42 55.36C123.855 55.0961 123.367 54.6936 123 54.19C122.682 53.7103 122.518 53.1452 122.53 52.57C122.529 52.0575 122.648 51.552 122.877 51.0937C123.106 50.6353 123.44 50.2368 123.85 49.93C124.81 49.1825 126.004 48.7998 127.22 48.85C128.483 48.7913 129.725 49.1888 130.72 49.97C131.147 50.3084 131.49 50.7407 131.722 51.2333C131.955 51.7259 132.07 52.2654 132.06 52.81H129.88C129.878 52.5139 129.809 52.222 129.677 51.9568C129.546 51.6916 129.355 51.4601 129.12 51.28C128.588 50.8367 127.912 50.6052 127.22 50.63C126.563 50.5958 125.913 50.7785 125.37 51.15C125.157 51.3033 124.984 51.5064 124.867 51.7418C124.75 51.9771 124.693 52.2374 124.7 52.5C124.688 52.7342 124.74 52.9672 124.849 53.1748C124.958 53.3823 125.12 53.5568 125.32 53.68C126.025 54.0514 126.784 54.3079 127.57 54.44C128.477 54.6275 129.36 54.9194 130.2 55.31C130.786 55.5702 131.298 55.9723 131.69 56.48C132.026 56.993 132.197 57.5968 132.18 58.21C132.197 58.7487 132.081 59.2833 131.842 59.7664C131.603 60.2496 131.248 60.6664 130.81 60.98C129.775 61.6912 128.534 62.0426 127.28 61.98C126.351 61.9977 125.43 61.8135 124.58 61.44C123.844 61.1165 123.212 60.5977 122.75 59.94C122.321 59.3237 122.091 58.5909 122.09 57.84H124.26C124.266 58.1751 124.348 58.5045 124.498 58.8039C124.649 59.1033 124.865 59.3651 125.13 59.57C125.752 60.0233 126.511 60.2493 127.28 60.21C127.982 60.2537 128.681 60.079 129.28 59.71C129.505 59.5734 129.69 59.3809 129.818 59.1513C129.946 58.9217 130.012 58.6628 130.01 58.4Z" fill="#333333"/>
<path d="M138.9 46.02V49.09H141.27V50.76H138.9V58.64C138.87 59.0457 138.983 59.4491 139.22 59.78C139.361 59.9186 139.531 60.0245 139.718 60.0902C139.904 60.1558 140.103 60.1797 140.3 60.16C140.637 60.1438 140.972 60.0969 141.3 60.02V61.77C140.756 61.918 140.194 61.9953 139.63 62C139.222 62.0294 138.813 61.9655 138.433 61.813C138.054 61.6605 137.714 61.4235 137.44 61.12C136.906 60.4039 136.644 59.5215 136.7 58.63V50.76H134.4V49.09H136.7V46.02H138.9Z" fill="#333333"/>
<path d="M150.02 62C149.239 62.0326 148.459 61.8988 147.733 61.6075C147.008 61.3161 146.352 60.8739 145.81 60.31C145.255 59.6985 144.827 58.9836 144.549 58.2063C144.271 57.429 144.149 56.6045 144.19 55.78V55.38C144.169 54.2164 144.416 53.0636 144.91 52.01C145.347 51.0652 146.04 50.2616 146.91 49.69C147.739 49.1373 148.714 48.8448 149.71 48.85C150.433 48.813 151.155 48.9405 151.822 49.2228C152.489 49.5051 153.083 49.935 153.56 50.48C154.553 51.8263 155.039 53.4805 154.93 55.15V56.05H146.34C146.325 57.1496 146.712 58.2168 147.43 59.05C147.765 59.4244 148.177 59.7213 148.638 59.92C149.099 60.1186 149.598 60.2142 150.1 60.2C150.778 60.2256 151.449 60.0629 152.04 59.73C152.585 59.4144 153.061 58.9928 153.44 58.49L154.76 59.49C154.265 60.2922 153.564 60.9476 152.731 61.3889C151.898 61.8301 150.962 62.041 150.02 62ZM149.75 50.63C149.333 50.6274 148.92 50.7154 148.54 50.8881C148.16 51.0608 147.822 51.3139 147.55 51.63C146.909 52.3841 146.523 53.3227 146.45 54.31H152.81V54.14C152.81 53.2109 152.496 52.3089 151.92 51.58C151.652 51.2694 151.319 51.0228 150.943 50.8584C150.567 50.694 150.16 50.6159 149.75 50.63Z" fill="#333333"/>
<path d="M164.56 51.03C164.209 50.9762 163.855 50.9495 163.5 50.95C162.885 50.9016 162.271 51.0524 161.749 51.3802C161.226 51.708 160.824 52.1953 160.6 52.77V61.77H158.44V49.09H160.54V50.55C160.841 50.0235 161.279 49.5878 161.807 49.2887C162.335 48.9896 162.933 48.838 163.54 48.85C163.882 48.8257 164.225 48.884 164.54 49.02L164.56 51.03Z" fill="#333333"/>
</g>
<defs>
<clipPath id="clip0_123_141">
<rect width="241.67" height="69.69" fill="white"/>
</clipPath>
</defs>
</svg>
