<svg width="242" height="70" viewBox="0 0 242 70" fill="none" xmlns="http://www.w3.org/2000/svg">
<g clip-path="url(#clip0_124_599)">
<path d="M69.69 0H0V69.69H69.69V0Z" fill="white"/>
<path d="M10.3899 8.76001H14.2699V17.94H24.8099V8.76001H28.6899V30.85H24.8099V21.54H14.2699V30.85H10.3899V8.76001Z" fill="black"/>
<path d="M37.18 19.8701V19.8101C37.1649 18.2921 37.4551 16.7866 38.0336 15.3832C38.6121 13.9797 39.467 12.707 40.5473 11.6406C41.6277 10.5742 42.9115 9.73604 44.3224 9.1759C45.7333 8.61576 47.2424 8.34511 48.76 8.38005C50.2707 8.33811 51.7743 8.60209 53.1804 9.15609C54.5865 9.71009 55.866 10.5427 56.9421 11.6038C58.0182 12.665 58.8686 13.9328 59.4422 15.331C60.0158 16.7292 60.3008 18.2289 60.28 19.7401V19.8101C60.2938 21.3271 60.0025 22.8315 59.4234 24.2338C58.8443 25.6361 57.9893 26.9077 56.9091 27.973C55.8288 29.0383 54.5455 29.8756 53.1352 30.4351C51.725 30.9946 50.2168 31.265 48.7 31.2301C47.1893 31.272 45.6857 31.008 44.2796 30.454C42.8735 29.9 41.594 29.0674 40.5179 28.0063C39.4418 26.9451 38.5914 25.6774 38.0178 24.2792C37.4442 22.881 37.1592 21.3812 37.18 19.8701ZM56.18 19.8701V19.8101C56.2189 18.7968 56.0538 17.7862 55.6946 16.838C55.3354 15.8898 54.7893 15.0234 54.0888 14.2903C53.3884 13.5572 52.5478 12.9723 51.6169 12.5703C50.6861 12.1683 49.6839 11.9573 48.67 11.95C47.6628 11.9504 46.6661 12.1547 45.74 12.5507C44.8138 12.9467 43.9775 13.5261 43.2813 14.254C42.5852 14.9819 42.0437 15.8433 41.6894 16.7861C41.3351 17.729 41.1754 18.7338 41.22 19.7401V19.8101C41.1825 20.8224 41.3486 21.8321 41.7084 22.7791C42.0683 23.7261 42.6145 24.5912 43.3149 25.3233C44.0152 26.0553 44.8553 26.6393 45.7855 27.0407C46.7157 27.4421 47.717 27.6527 48.73 27.6601C49.7397 27.6638 50.7397 27.4624 51.6694 27.0683C52.599 26.6741 53.4389 26.0953 54.1383 25.367C54.8377 24.6386 55.3819 23.7759 55.738 22.831C56.0941 21.8861 56.2547 20.8788 56.21 19.8701H56.18Z" fill="black"/>
<path d="M10.3899 39.47H14.2699V58.02H25.8799V61.61H10.3899V39.47Z" fill="black"/>
<path d="M47.22 39.3101H50.81L60.51 61.6101H56.41L54.17 56.2701H43.72L41.51 61.6101H37.51L47.22 39.3101ZM52.77 52.7801L48.95 43.9501L45.16 52.7801H52.77Z" fill="black"/>
<path d="M89.3 32.79H97.39V34.61H87.04V17.61H89.3V32.79Z" fill="white"/>
<path d="M105.84 34.8601C105.06 34.89 104.283 34.7549 103.559 34.4637C102.836 34.1724 102.182 33.7316 101.64 33.1701C100.52 31.9236 99.9409 30.2834 100.03 28.6101V28.2101C100.009 27.0465 100.256 25.8937 100.75 24.8401C101.189 23.8968 101.882 23.0937 102.75 22.5201C103.584 21.9699 104.561 21.6777 105.56 21.6801C106.282 21.6416 107.003 21.7685 107.668 22.051C108.334 22.3334 108.926 22.7641 109.4 23.3101C110.4 24.6528 110.887 26.3096 110.77 27.9801V28.8801H102.18C102.172 29.9802 102.563 31.0459 103.28 31.8801C103.614 32.2545 104.027 32.5514 104.488 32.75C104.949 32.9486 105.448 33.0442 105.95 33.0301C106.626 33.0526 107.296 32.8938 107.89 32.5701C108.431 32.2455 108.906 31.8214 109.29 31.3201L110.61 32.3201C110.115 33.1316 109.411 33.7955 108.572 34.2423C107.733 34.689 106.79 34.9024 105.84 34.8601ZM105.57 23.5001C105.152 23.4961 104.739 23.5835 104.359 23.7563C103.979 23.929 103.641 24.1829 103.37 24.5001C102.725 25.2533 102.337 26.1917 102.26 27.1801H108.62V27.0101C108.614 26.0818 108.301 25.1816 107.73 24.4501C107.463 24.1413 107.131 23.8959 106.757 23.7316C106.383 23.5673 105.978 23.4882 105.57 23.5001Z" fill="white"/>
<path d="M122.08 34.61C121.913 34.1811 121.811 33.7293 121.78 33.27C121.322 33.77 120.764 34.1681 120.142 34.4386C119.52 34.709 118.848 34.8458 118.17 34.84C117.047 34.8866 115.947 34.5081 115.09 33.78C114.702 33.4493 114.393 33.0362 114.186 32.5708C113.978 32.1054 113.877 31.5994 113.89 31.09C113.864 30.4938 113.988 29.9006 114.25 29.3645C114.512 28.8283 114.904 28.3661 115.39 28.02C116.653 27.2175 118.136 26.8326 119.63 26.92H121.74V25.92C121.756 25.5864 121.703 25.2531 121.587 24.9403C121.47 24.6275 121.291 24.3416 121.06 24.1C120.508 23.6207 119.789 23.3797 119.06 23.43C118.363 23.406 117.677 23.6134 117.11 24.02C116.875 24.1734 116.681 24.3822 116.545 24.628C116.409 24.8738 116.335 25.1491 116.33 25.43H114.15C114.164 24.7624 114.399 24.1184 114.82 23.6C115.3 22.9847 115.93 22.5027 116.65 22.2C117.451 21.8496 118.316 21.6724 119.19 21.68C120.43 21.6078 121.653 21.9999 122.62 22.78C123.034 23.1611 123.363 23.6254 123.585 24.1423C123.807 24.6593 123.918 25.2173 123.91 25.78V31.61C123.874 32.5564 124.024 33.5007 124.35 34.39V34.61H122.08ZM118.48 32.96C119.162 32.9583 119.832 32.7754 120.42 32.43C120.99 32.1197 121.451 31.6414 121.74 31.06V28.46H120.04C117.39 28.46 116.04 29.23 116.04 30.79C116.023 31.0895 116.075 31.389 116.193 31.6649C116.311 31.9408 116.491 32.1856 116.72 32.38C117.218 32.8007 117.859 33.0153 118.51 32.98L118.48 32.96Z" fill="white"/>
<path d="M134.4 23.89C134.046 23.8366 133.688 23.8098 133.33 23.81C132.715 23.7615 132.101 23.9124 131.579 24.2402C131.057 24.568 130.654 25.0553 130.43 25.63V34.63H128.27V21.95H130.38V23.41C130.681 22.8834 131.119 22.4478 131.647 22.1486C132.175 21.8495 132.773 21.698 133.38 21.71C133.722 21.6887 134.064 21.7469 134.38 21.88L134.4 23.89Z" fill="white"/>
<path d="M139.4 21.95L139.47 23.54C139.913 22.9552 140.488 22.4842 141.149 22.166C141.81 21.8478 142.537 21.6915 143.27 21.71C145.95 21.71 147.27 23.23 147.32 26.25V34.61H145.15V26.22C145.197 25.4997 144.976 24.7875 144.53 24.22C144.274 23.9823 143.97 23.8008 143.64 23.6872C143.309 23.5735 142.958 23.5302 142.61 23.56C141.948 23.5476 141.3 23.7474 140.76 24.13C140.22 24.5039 139.788 25.0146 139.51 25.61V34.61H137.34V21.93L139.4 21.95Z" fill="white"/>
<path d="M151.56 18.61C151.551 18.2837 151.665 17.966 151.88 17.72C152.007 17.5861 152.164 17.4831 152.337 17.4189C152.51 17.3548 152.696 17.3312 152.88 17.35C153.064 17.3312 153.25 17.3548 153.423 17.4189C153.596 17.4831 153.753 17.5861 153.88 17.72C154.102 17.9623 154.22 18.2817 154.21 18.61C154.215 18.7696 154.189 18.9287 154.132 19.078C154.075 19.2273 153.99 19.364 153.88 19.48C153.75 19.6104 153.593 19.7103 153.42 19.7726C153.247 19.8349 153.063 19.8579 152.88 19.84C152.697 19.8579 152.512 19.8349 152.339 19.7726C152.166 19.7103 152.009 19.6104 151.88 19.48C151.665 19.2423 151.55 18.9305 151.56 18.61ZM153.91 34.61H151.74V21.93H153.91V34.61Z" fill="white"/>
<path d="M160.39 21.95L160.46 23.54C160.901 22.9554 161.474 22.4844 162.134 22.1661C162.793 21.8478 163.518 21.6914 164.25 21.71C166.93 21.71 168.25 23.23 168.31 26.25V34.61H166.14V26.22C166.184 25.4984 165.96 24.7861 165.51 24.22C165.255 23.9831 164.954 23.802 164.625 23.6884C164.296 23.5747 163.947 23.531 163.6 23.56C162.935 23.5476 162.284 23.7472 161.74 24.13C161.21 24.5093 160.786 25.019 160.51 25.61V34.61H158.34V21.93L160.39 21.95Z" fill="white"/>
<path d="M172.02 28.18C171.932 26.5003 172.415 24.8403 173.39 23.47C173.812 22.907 174.362 22.4533 174.996 22.1471C175.629 21.8409 176.327 21.691 177.03 21.71C177.721 21.6781 178.41 21.8111 179.039 22.098C179.669 22.3849 180.221 22.8175 180.65 23.36L180.75 21.9499H182.75V34.32C182.79 35.0327 182.681 35.7459 182.429 36.414C182.178 37.0821 181.79 37.6904 181.29 38.1999C180.761 38.6872 180.14 39.0631 179.463 39.3053C178.786 39.5476 178.068 39.6512 177.35 39.61C176.425 39.6094 175.512 39.4117 174.67 39.03C173.865 38.6916 173.172 38.1337 172.67 37.42L173.79 36.12C174.184 36.6534 174.698 37.0869 175.29 37.3856C175.883 37.6844 176.537 37.84 177.2 37.84C177.65 37.8662 178.101 37.8008 178.526 37.6478C178.951 37.4949 179.34 37.2575 179.67 36.9499C179.978 36.6122 180.214 36.2158 180.366 35.7846C180.517 35.3533 180.579 34.896 180.55 34.44V33.35C180.109 33.8506 179.561 34.2455 178.946 34.5052C178.332 34.7649 177.666 34.8827 177 34.85C176.3 34.8658 175.606 34.7111 174.979 34.3993C174.352 34.0874 173.81 33.6278 173.4 33.0599C172.41 31.6321 171.924 29.9148 172.02 28.18ZM174.2 28.43C174.132 29.6178 174.44 30.7968 175.08 31.8C175.351 32.1896 175.716 32.5054 176.14 32.7184C176.564 32.9315 177.035 33.0351 177.51 33.02C178.138 33.0422 178.759 32.8773 179.293 32.5461C179.827 32.215 180.251 31.7325 180.51 31.16V25.37C180.24 24.8082 179.813 24.3369 179.281 24.0138C178.748 23.6906 178.133 23.5294 177.51 23.55C177.027 23.532 176.548 23.6363 176.116 23.8531C175.684 24.0698 175.314 24.3921 175.04 24.79C174.392 25.8881 174.099 27.1591 174.2 28.43Z" fill="white"/>
<path d="M197.88 29.25L198.21 31.5L198.69 29.5L202.07 17.6H203.96L207.26 29.5L207.73 31.57L208.09 29.27L210.74 17.6H213L208.86 34.61H206.81L203.3 22.18L203.03 20.87L202.76 22.18L199.11 34.61H197.06L192.94 17.61H195.19L197.88 29.25Z" fill="white"/>
<path d="M216.13 18.61C216.121 18.2837 216.235 17.966 216.45 17.72C216.576 17.5842 216.732 17.4799 216.906 17.4156C217.08 17.3513 217.266 17.3289 217.45 17.35C217.634 17.3312 217.82 17.3548 217.993 17.4189C218.166 17.4831 218.323 17.586 218.45 17.72C218.665 17.966 218.779 18.2837 218.77 18.61C218.78 18.9305 218.665 19.2423 218.45 19.48C218.32 19.6104 218.163 19.7103 217.991 19.7726C217.818 19.8348 217.633 19.8579 217.45 19.84C217.267 19.8601 217.082 19.8381 216.908 19.7757C216.735 19.7133 216.578 19.6122 216.45 19.48C216.235 19.2423 216.12 18.9305 216.13 18.61ZM218.51 34.61H216.34V21.93H218.51V34.61Z" fill="white"/>
<path d="M225.84 18.88V21.95H228.21V23.61H225.84V31.48C225.81 31.8857 225.923 32.2891 226.16 32.62C226.3 32.7609 226.469 32.8684 226.656 32.9342C226.843 33 227.043 33.0225 227.24 33C227.577 32.9885 227.913 32.9416 228.24 32.86V34.61C227.697 34.7628 227.135 34.8402 226.57 34.84C226.162 34.8702 225.753 34.8066 225.373 34.654C224.993 34.5015 224.654 34.2641 224.38 33.96C223.845 33.2443 223.583 32.3615 223.64 31.47V23.61H221.33V21.93H223.64V18.86L225.84 18.88Z" fill="white"/>
<path d="M233.87 23.48C234.313 22.9126 234.883 22.4569 235.535 22.1495C236.186 21.8422 236.9 21.6916 237.62 21.71C240.3 21.71 241.62 23.23 241.62 26.25V34.61H239.51V26.22C239.562 25.4991 239.34 24.7853 238.89 24.22C238.634 23.9823 238.33 23.8008 238 23.6872C237.669 23.5735 237.318 23.5302 236.97 23.56C236.308 23.5476 235.66 23.7474 235.12 24.13C234.58 24.5039 234.148 25.0147 233.87 25.61V34.61H231.7V16.61H233.87V23.48Z" fill="white"/>
<path d="M89.95 44.6999L95.51 58.6099L101.09 44.6899H104V61.7499H101.75V55.1099L101.96 47.9399L96.36 61.7499H94.64L89.05 47.9699L89.27 55.1099V61.7499H87.02V44.6999H89.95Z" fill="white"/>
<path d="M116.44 61.76C116.277 61.3333 116.176 60.8854 116.14 60.43C115.679 60.9315 115.117 61.3305 114.492 61.601C113.867 61.8714 113.191 62.0074 112.51 62C111.388 62.0398 110.29 61.6622 109.43 60.94C109.044 60.608 108.736 60.1946 108.529 59.7295C108.321 59.2644 108.219 58.7592 108.23 58.25C108.206 57.6515 108.331 57.0564 108.595 56.5186C108.858 55.9808 109.252 55.5173 109.74 55.17C111.004 54.3698 112.487 53.9884 113.98 54.08H116.08V53.08C116.097 52.7486 116.047 52.4172 115.932 52.106C115.816 51.7947 115.639 51.5103 115.41 51.27C114.858 50.7907 114.139 50.5498 113.41 50.6C112.717 50.5746 112.035 50.7784 111.47 51.18C111.231 51.3326 111.034 51.5423 110.896 51.7902C110.758 52.0381 110.684 52.3164 110.68 52.6H108.51C108.524 51.9324 108.759 51.2885 109.18 50.77C109.66 50.1547 110.29 49.6727 111.01 49.37C111.809 49.0158 112.676 48.8384 113.55 48.85C114.79 48.7778 116.013 49.1699 116.98 49.95C117.398 50.3284 117.729 50.7921 117.951 51.3097C118.174 51.8273 118.283 52.3867 118.27 52.95V58.79C118.233 59.7374 118.386 60.6827 118.72 61.57V61.75L116.44 61.76ZM112.85 60.11C113.53 60.113 114.197 59.9297 114.78 59.58C115.352 59.2724 115.814 58.7933 116.1 58.21V55.61H114.41C111.743 55.61 110.41 56.3867 110.41 57.94C110.396 58.2407 110.449 58.5407 110.567 58.8178C110.685 59.0948 110.864 59.3417 111.09 59.54C111.588 59.9369 112.214 60.1394 112.85 60.11Z" fill="white"/>
<path d="M130.01 58.4C130.022 58.1363 129.969 57.8736 129.853 57.636C129.738 57.3984 129.565 57.1935 129.35 57.04C128.644 56.6077 127.859 56.322 127.04 56.2C126.138 56.026 125.262 55.7405 124.43 55.35C123.863 55.0865 123.371 54.6841 123 54.18C122.682 53.7181 122.511 53.1708 122.51 52.61C122.511 52.0993 122.631 51.5957 122.86 51.1392C123.089 50.6828 123.421 50.2859 123.83 49.9801C124.786 49.2324 125.977 48.8496 127.19 48.9C128.452 48.8412 129.693 49.2348 130.69 50.01C131.119 50.349 131.463 50.7828 131.696 51.2773C131.928 51.7719 132.043 52.3137 132.03 52.86H129.86C129.854 52.5647 129.783 52.2744 129.652 52.0098C129.52 51.7453 129.332 51.5131 129.1 51.33C128.565 50.8861 127.885 50.6547 127.19 50.68C126.533 50.6458 125.883 50.8285 125.34 51.2C125.131 51.354 124.961 51.5562 124.846 51.7894C124.732 52.0227 124.675 52.2801 124.68 52.54C124.667 52.7759 124.717 53.011 124.826 53.2205C124.935 53.4299 125.099 53.606 125.3 53.7301C126.003 54.0972 126.759 54.3536 127.54 54.49C128.449 54.6718 129.332 54.9639 130.17 55.36C130.764 55.6308 131.28 56.047 131.67 56.57C132.003 57.0842 132.17 57.6879 132.15 58.3C132.164 58.8302 132.047 59.3557 131.81 59.8301C131.573 60.3045 131.223 60.7132 130.79 61.02C129.761 61.7353 128.522 62.0872 127.27 62.02C126.342 62.0387 125.42 61.8544 124.57 61.48C123.832 61.1565 123.198 60.6336 122.74 59.97C122.302 59.3613 122.068 58.6299 122.07 57.88H124.24C124.248 58.2149 124.33 58.5438 124.48 58.8429C124.631 59.1421 124.846 59.4042 125.11 59.61C125.736 60.0634 126.498 60.2892 127.27 60.25C127.972 60.2873 128.669 60.1131 129.27 59.75C129.503 59.6121 129.695 59.414 129.825 59.1764C129.955 58.9389 130.019 58.6708 130.01 58.4Z" fill="white"/>
<path d="M138.91 46.01V49.08H141.27V50.76H138.91V58.61C138.879 59.0175 138.988 59.4233 139.22 59.76C139.361 59.8986 139.531 60.0045 139.718 60.0702C139.904 60.1358 140.103 60.1597 140.3 60.14C140.637 60.1244 140.972 60.0775 141.3 60V61.74C140.76 61.8959 140.202 61.9767 139.64 61.98C139.232 62.0102 138.822 61.9466 138.443 61.7941C138.063 61.6415 137.724 61.4041 137.45 61.1C136.916 60.38 136.654 59.4945 136.71 58.6V50.74H134.4V49.06H136.71V46.01H138.91Z" fill="white"/>
<path d="M150.03 62C149.25 62.028 148.472 61.8911 147.749 61.5981C147.025 61.3052 146.371 60.8629 145.83 60.3C145.277 59.6901 144.85 58.9767 144.573 58.2009C144.297 57.4252 144.177 56.6024 144.22 55.78V55.38C144.2 54.2164 144.446 53.0636 144.94 52.01C145.379 51.0667 146.072 50.2636 146.94 49.69C147.773 49.1387 148.751 48.8465 149.75 48.85C150.472 48.8093 151.194 48.9351 151.86 49.2178C152.526 49.5004 153.118 49.9323 153.59 50.48C154.588 51.82 155.074 53.4729 154.96 55.14V56.04H146.37C146.357 57.1409 146.749 58.2082 147.47 59.04C147.803 59.415 148.213 59.713 148.672 59.9133C149.131 60.1136 149.629 60.2115 150.13 60.2C150.81 60.2208 151.484 60.0585 152.08 59.73C152.631 59.4241 153.117 59.013 153.51 58.52L154.84 59.52C154.333 60.3252 153.619 60.9798 152.773 61.4159C151.927 61.852 150.98 62.0537 150.03 62ZM149.76 50.61C149.335 50.6014 148.912 50.6865 148.524 50.8594C148.135 51.0322 147.789 51.2885 147.51 51.61C146.869 52.3604 146.483 53.2957 146.41 54.28H152.76V54.12C152.766 53.1898 152.452 52.2858 151.87 51.56C151.611 51.2552 151.287 51.0118 150.922 50.8475C150.557 50.6832 150.16 50.6021 149.76 50.61Z" fill="white"/>
<path d="M164.57 51.03C164.216 50.9715 163.858 50.9447 163.5 50.95C162.887 50.8998 162.275 51.0489 161.754 51.3751C161.234 51.7013 160.832 52.1871 160.61 52.76V61.76H158.44V49.08H160.51V50.55C160.811 50.0228 161.248 49.5865 161.776 49.2873C162.304 48.988 162.903 48.837 163.51 48.85C163.851 48.8256 164.193 48.8804 164.51 49.01L164.57 51.03Z" fill="white"/>
</g>
<defs>
<clipPath id="clip0_124_599">
<rect width="241.67" height="69.69" fill="white"/>
</clipPath>
</defs>
</svg>
