<svg width="20" height="20" viewBox="0 0 20 20" fill="none" xmlns="http://www.w3.org/2000/svg">
<g clip-path="url(#clip0_140_1191)">
<path d="M6.60005 12.5281C6.60005 12.4801 6.60005 12.4401 6.60005 12.4081C6.60005 10.1841 6.60005 7.9521 6.60005 5.7281C6.60005 5.6081 6.59205 5.6001 6.47205 5.6001C5.96805 5.6001 5.45605 5.6001 4.95205 5.6001C4.83205 5.6001 4.80005 5.6321 4.80005 5.7441C4.80005 8.4961 4.80005 11.2481 4.80005 14.0001C4.80005 14.1441 4.83205 14.1761 4.97605 14.1761C6.66405 14.1761 8.35205 14.1761 10.04 14.1761C10.184 14.1761 10.208 14.1521 10.232 14.0161C10.312 13.5681 10.384 13.1201 10.464 12.6641C10.48 12.5601 10.464 12.5281 10.352 12.5281C10.328 12.5281 10.296 12.5281 10.272 12.5281C9.08805 12.5281 7.91205 12.5281 6.72805 12.5281C6.68805 12.5281 6.64805 12.5281 6.60005 12.5281Z" fill="#333333"/>
<path d="M13.1041 8.52002C13.1041 8.46402 13.1041 8.43202 13.1041 8.40002C13.0881 8.18402 13.0801 7.97602 12.9761 7.77602C12.9441 7.71202 12.8961 7.67202 12.8161 7.67202C12.3441 7.67202 11.8721 7.67202 11.4001 7.67202C11.3281 7.67202 11.2961 7.71202 11.3041 7.78402C11.3121 7.84802 11.3281 7.92002 11.3281 7.99202C11.3441 8.45602 11.3681 8.92002 11.3681 9.38402C11.3761 10.928 11.3681 12.472 11.3681 14.008C11.3681 14.168 11.3841 14.184 11.5441 14.184C12.0241 14.184 12.5121 14.184 12.9921 14.184C13.1761 14.184 13.1761 14.184 13.1761 14C13.1761 12.68 13.1761 11.352 13.1761 10.032C13.1761 9.93602 13.2081 9.87202 13.2801 9.81602C13.4961 9.64002 13.7521 9.54402 14.0161 9.46402C14.3841 9.36002 14.7601 9.31202 15.1441 9.32802C15.2721 9.33602 15.2961 9.31202 15.2961 9.18402C15.2961 8.77602 15.2961 8.36802 15.2961 7.95202C15.2961 7.84802 15.2961 7.74402 15.2961 7.63202C15.2961 7.56802 15.2641 7.52002 15.2001 7.52002C15.0481 7.52802 14.8961 7.52802 14.7441 7.54402C14.2561 7.61602 13.8401 7.84802 13.4641 8.16002C13.3521 8.28002 13.2401 8.40002 13.1041 8.52002Z" fill="#333333"/>
</g>
<rect x="0.5" y="0.5" width="19" height="19" rx="4.5" stroke="#1A1A1A"/>
<defs>
<clipPath id="clip0_140_1191">
<rect width="10.504" height="8.592" fill="white" transform="translate(4.80005 5.6001)"/>
</clipPath>
</defs>
</svg>
