<svg width="29" height="29" viewBox="0 0 29 29" fill="none" xmlns="http://www.w3.org/2000/svg">
<g clip-path="url(#clip0_133_68)">
<path d="M28.77 0.130005H0.130005V28.77H28.77V0.130005Z" stroke="white" stroke-width="0.5" stroke-miterlimit="10"/>
<path d="M4.57001 3.72998H4.86002V8.12997H11.35V3.72998H11.63V12.81H11.35V8.35999H4.86002V12.81H4.57001V3.72998Z" fill="white"/>
<path d="M15.22 8.28C15.1609 7.6534 15.2332 7.02136 15.4325 6.42435C15.6317 5.82733 15.9535 5.2785 16.3771 4.81302C16.8007 4.34753 17.3169 3.97566 17.8925 3.72119C18.4682 3.46672 19.0906 3.33527 19.72 3.33527C20.3494 3.33527 20.9718 3.46672 21.5475 3.72119C22.1231 3.97566 22.6393 4.34753 23.0629 4.81302C23.4866 5.2785 23.8083 5.82733 24.0076 6.42435C24.2068 7.02136 24.2792 7.6534 24.22 8.28C24.2792 8.9066 24.2068 9.53867 24.0076 10.1357C23.8083 10.7327 23.4866 11.2815 23.0629 11.747C22.6393 12.2125 22.1231 12.5844 21.5475 12.8388C20.9718 13.0933 20.3494 13.2247 19.72 13.2247C19.0906 13.2247 18.4682 13.0933 17.8925 12.8388C17.3169 12.5844 16.8007 12.2125 16.3771 11.747C15.9535 11.2815 15.6317 10.7327 15.4325 10.1357C15.2332 9.53867 15.1609 8.9066 15.22 8.28ZM23.96 8.28C23.9787 7.70866 23.8832 7.13933 23.6793 6.60532C23.4753 6.0713 23.1669 5.58331 22.7721 5.16989C22.3773 4.75647 21.904 4.42595 21.38 4.1976C20.8559 3.96925 20.2916 3.84767 19.72 3.84C19.1511 3.84356 18.5888 3.96159 18.0665 4.18701C17.5442 4.41243 17.0726 4.74065 16.6797 5.15213C16.2869 5.56362 15.9809 6.04994 15.78 6.58215C15.579 7.11436 15.4872 7.68157 15.51 8.25C15.4927 8.82051 15.5892 9.38878 15.7937 9.92163C15.9983 10.4545 16.3069 10.9413 16.7016 11.3536C17.0962 11.766 17.569 12.0956 18.0924 12.3233C18.6158 12.5511 19.1793 12.6723 19.75 12.68C20.3171 12.6763 20.8778 12.559 21.3987 12.3348C21.9197 12.1106 22.3903 11.7841 22.7829 11.3748C23.1754 10.9655 23.4819 10.4816 23.6841 9.95172C23.8863 9.42185 23.9801 8.85679 23.96 8.29001V8.28Z" fill="white"/>
<path d="M4.57001 16.35H4.85001L8.79999 21.98L12.8 16.35H13.06V25.43H12.77V16.83L8.84 22.43L4.91 16.83V25.43H4.62L4.57001 16.35Z" fill="white"/>
<path d="M17.01 16.35H23.36V16.61H17.3V20.73H22.8V20.99H17.3V25.13H23.47V25.39H17.06L17.01 16.35Z" fill="white"/>
</g>
<defs>
<clipPath id="clip0_133_68">
<rect width="28.89" height="28.89" fill="white"/>
</clipPath>
</defs>
</svg>
