<svg width="271" height="48" viewBox="0 0 271 48" fill="none" xmlns="http://www.w3.org/2000/svg">
<path d="M2.06152 27.481V47H0.347656V0.789062H14.7886C19.507 0.789062 23.1675 1.98454 25.77 4.37549C28.3937 6.74528 29.7056 10.0461 29.7056 14.2778C29.7056 18.4673 28.4255 21.7046 25.8652 23.9897C23.3262 26.2749 19.708 27.4386 15.0107 27.481H2.06152ZM2.06152 25.7671H14.7886C18.9569 25.7671 22.1942 24.762 24.5005 22.752C26.828 20.7419 27.9917 17.9383 27.9917 14.3413C27.9917 10.6174 26.828 7.71859 24.5005 5.64502C22.1942 3.55029 18.9569 2.50293 14.7886 2.50293H2.06152V25.7671ZM56.9688 27.2271H40.9409V47H39.2271V0.789062H53.9536C58.5874 0.789062 62.269 1.98454 64.9985 4.37549C67.7492 6.76644 69.1245 10.0143 69.1245 14.1191C69.1245 17.2718 68.1406 20.033 66.1729 22.4028C64.2262 24.7515 61.7401 26.2114 58.7144 26.7827L71.0605 46.5557V47H69.2515L56.9688 27.2271ZM40.9409 25.5132H55.5088C59.0635 25.5132 61.9305 24.4341 64.1099 22.2759C66.3104 20.1177 67.4106 17.3988 67.4106 14.1191C67.4106 10.5221 66.194 7.68685 63.7607 5.61328C61.3486 3.53971 58.0373 2.50293 53.8267 2.50293H40.9409V25.5132ZM106.798 24.085H83.6289V45.2861H110.035V47H81.915V0.789062H110.035V2.50293H83.6289V22.3711H106.798V24.085ZM146.598 35.9233C146.598 33.9556 146.132 32.2946 145.201 30.9404C144.291 29.5651 142.842 28.359 140.853 27.3223C138.885 26.2643 135.902 25.1852 131.903 24.085C127.904 22.9847 124.899 21.8739 122.889 20.7524C120.9 19.631 119.44 18.3298 118.509 16.8486C117.578 15.3675 117.113 13.569 117.113 11.4531C117.113 8.08887 118.53 5.36995 121.366 3.29639C124.201 1.20166 127.893 0.154297 132.442 0.154297C135.405 0.154297 138.06 0.736165 140.409 1.8999C142.778 3.04248 144.609 4.66113 145.899 6.75586C147.19 8.82943 147.835 11.1781 147.835 13.8018H146.122C146.122 10.3529 144.852 7.507 142.313 5.26416C139.774 3.00016 136.484 1.86816 132.442 1.86816C128.38 1.86816 125.09 2.77799 122.572 4.59766C120.075 6.39616 118.827 8.66016 118.827 11.3896C118.827 14.1615 119.916 16.3937 122.096 18.0864C124.275 19.7791 127.872 21.2814 132.887 22.5933C137.901 23.884 141.572 25.3862 143.9 27.1001C146.862 29.2795 148.343 32.1994 148.343 35.8599C148.343 38.1873 147.687 40.2503 146.375 42.0488C145.064 43.8262 143.202 45.2015 140.79 46.1748C138.377 47.1481 135.669 47.6348 132.665 47.6348C129.321 47.6348 126.317 47.0846 123.651 45.9844C120.985 44.863 118.975 43.276 117.621 41.2236C116.288 39.1712 115.621 36.7485 115.621 33.9556H117.335C117.335 37.743 118.753 40.6841 121.588 42.7788C124.423 44.8735 128.115 45.9209 132.665 45.9209C136.706 45.9209 140.038 45.0005 142.662 43.1597C145.286 41.2977 146.598 38.8856 146.598 35.9233ZM182.271 24.085H159.103V45.2861H185.509V47H157.389V0.789062H185.509V2.50293H159.103V22.3711H182.271V24.085ZM227.689 47H225.975L196.141 3.70898V47H194.396V0.789062H196.141L225.975 43.9849V0.789062H227.689V47ZM270.218 2.50293H253.397V47H251.683V2.50293H234.862V0.789062H270.218V2.50293Z" fill="#1A1A1A"/>
</svg>
