<svg width="333" height="17" viewBox="0 0 333 17" fill="none" xmlns="http://www.w3.org/2000/svg">
<line x1="9.01277" y1="0.238142" x2="0.439669" y2="16.0654" stroke="#C9C9C9"/>
<line x1="27.7242" y1="0.238142" x2="19.1511" y2="16.0654" stroke="#C9C9C9"/>
<line x1="46.7242" y1="0.238142" x2="38.1511" y2="16.0654" stroke="#C9C9C9"/>
<line x1="65.7241" y1="0.238142" x2="57.151" y2="16.0654" stroke="#C9C9C9"/>
<line x1="84.7241" y1="0.238142" x2="76.151" y2="16.0654" stroke="#C9C9C9"/>
<line x1="103.724" y1="0.238142" x2="95.151" y2="16.0654" stroke="#C9C9C9"/>
<line x1="122.724" y1="0.238142" x2="114.151" y2="16.0654" stroke="#C9C9C9"/>
<line x1="141.724" y1="0.238142" x2="133.151" y2="16.0654" stroke="#C9C9C9"/>
<line x1="160.724" y1="0.238142" x2="152.151" y2="16.0654" stroke="#C9C9C9"/>
<line x1="179.724" y1="0.238142" x2="171.151" y2="16.0654" stroke="#C9C9C9"/>
<line x1="198.724" y1="0.238142" x2="190.151" y2="16.0654" stroke="#C9C9C9"/>
<line x1="217.724" y1="0.238142" x2="209.151" y2="16.0654" stroke="#C9C9C9"/>
<line x1="236.724" y1="0.238142" x2="228.151" y2="16.0654" stroke="#C9C9C9"/>
<line x1="255.724" y1="0.238142" x2="247.151" y2="16.0654" stroke="#C9C9C9"/>
<line x1="274.724" y1="0.238142" x2="266.151" y2="16.0654" stroke="#C9C9C9"/>
<line x1="293.724" y1="0.238142" x2="285.151" y2="16.0654" stroke="#C9C9C9"/>
<line x1="312.724" y1="0.238142" x2="304.151" y2="16.0654" stroke="#C9C9C9"/>
<line x1="331.724" y1="0.238142" x2="323.151" y2="16.0654" stroke="#C9C9C9"/>
</svg>
