<svg width="452" height="677" viewBox="0 0 452 677" fill="none" xmlns="http://www.w3.org/2000/svg">
<path d="M451.15 1H1V676H451.15V1Z" fill="white" stroke="#231815" stroke-width="0.5" stroke-miterlimit="10"/>
<path d="M19.8999 69.5901V19.8201H69.6699" stroke="#4C4948" stroke-width="0.75" stroke-miterlimit="10"/>
<path d="M69.72 657.07H19.97V607.32" stroke="#4C4948" stroke-width="0.75" stroke-miterlimit="10"/>
<path d="M432.24 69.5901V19.8201H382.47" stroke="#4C4948" stroke-width="0.75" stroke-miterlimit="10"/>
<path d="M382.42 657.07H432.17V607.32" stroke="#4C4948" stroke-width="0.75" stroke-miterlimit="10"/>
<path d="M150.36 640.61L138.56 628.81L131.94 635.44L120.36 623.86L103.62 640.61H150.36Z" fill="#4C4948"/>
<path d="M150.36 641.29H103.62C103.24 641.29 102.94 640.98 102.94 640.61V610.72C102.94 610.34 103.25 610.04 103.62 610.04H150.36C150.74 610.04 151.05 610.35 151.05 610.72V640.61C151.04 640.99 150.74 641.29 150.36 641.29ZM104.3 639.92H149.67V611.4H104.3V639.92Z" fill="#4C4948"/>
<path d="M216.41 641.29H169.67C169.29 641.29 168.98 640.98 168.98 640.6V610.71C168.98 610.33 169.29 610.02 169.67 610.02H216.41C216.79 610.02 217.1 610.33 217.1 610.71V640.6C217.1 640.99 216.79 641.29 216.41 641.29ZM170.36 639.92H215.73V611.41H170.36V639.92Z" fill="#4C4948"/>
<path d="M189.61 614.9C188.24 614.9 186.93 615.17 185.72 615.64C190.9 616.05 194.98 620.38 194.98 625.67C194.98 630.96 190.9 635.29 185.72 635.7C186.93 636.17 188.24 636.44 189.61 636.44C195.55 636.44 200.37 631.62 200.37 625.68C200.37 619.72 195.55 614.9 189.61 614.9Z" fill="#4C4948"/>
<path d="M282.47 641.29H235.73C235.35 641.29 235.04 640.98 235.04 640.61V610.72C235.04 610.34 235.35 610.03 235.73 610.03H282.47C282.85 610.03 283.16 610.34 283.16 610.72V640.61C283.16 640.99 282.85 641.29 282.47 641.29ZM236.42 639.92H281.79V611.41H236.42V639.92Z" fill="#4C4948"/>
<path d="M259.1 632.06C255.58 632.06 252.71 629.19 252.71 625.67C252.71 622.14 255.58 619.28 259.1 619.28C262.63 619.28 265.49 622.15 265.49 625.67C265.49 629.19 262.63 632.06 259.1 632.06Z" fill="#4C4948"/>
<path d="M259.1 617.75C258.72 617.75 258.41 617.44 258.41 617.06V613.39C258.41 613.01 258.72 612.7 259.1 612.7C259.48 612.7 259.79 613.01 259.79 613.39V617.06C259.79 617.44 259.48 617.75 259.1 617.75Z" fill="#4C4948"/>
<path d="M259.1 638.63C258.72 638.63 258.41 638.32 258.41 637.94V634.27C258.41 633.89 258.72 633.59 259.1 633.59C259.48 633.59 259.79 633.9 259.79 634.27V637.94C259.79 638.32 259.48 638.63 259.1 638.63Z" fill="#4C4948"/>
<path d="M271.38 626.35H267.71C267.33 626.35 267.03 626.04 267.03 625.66C267.03 625.28 267.34 624.98 267.71 624.98H271.38C271.76 624.98 272.06 625.29 272.06 625.66C272.06 626.04 271.75 626.35 271.38 626.35Z" fill="#4C4948"/>
<path d="M250.49 626.35H246.82C246.44 626.35 246.13 626.04 246.13 625.66C246.13 625.28 246.44 624.98 246.82 624.98H250.49C250.87 624.98 251.18 625.29 251.18 625.66C251.18 626.04 250.87 626.35 250.49 626.35Z" fill="#4C4948"/>
<path d="M265.19 620.27C265.01 620.27 264.84 620.2 264.7 620.07C264.43 619.8 264.43 619.37 264.7 619.1L267.29 616.51C267.56 616.24 267.99 616.24 268.26 616.51C268.53 616.78 268.53 617.21 268.26 617.48L265.67 620.07C265.54 620.2 265.36 620.27 265.19 620.27Z" fill="#4C4948"/>
<path d="M250.42 635.03C250.24 635.03 250.07 634.96 249.94 634.83C249.67 634.56 249.67 634.13 249.94 633.86L252.53 631.27C252.8 631 253.23 631 253.5 631.27C253.77 631.54 253.77 631.97 253.5 632.24L250.91 634.83C250.77 634.96 250.6 635.03 250.42 635.03Z" fill="#4C4948"/>
<path d="M267.78 635.03C267.6 635.03 267.43 634.96 267.3 634.83L264.71 632.24C264.44 631.97 264.44 631.54 264.71 631.27C264.98 631 265.41 631 265.68 631.27L268.27 633.86C268.54 634.13 268.54 634.56 268.27 634.83C268.13 634.96 267.96 635.03 267.78 635.03Z" fill="#4C4948"/>
<path d="M253.02 620.27C252.84 620.27 252.67 620.2 252.53 620.07L249.94 617.48C249.67 617.21 249.67 616.78 249.94 616.51C250.21 616.24 250.64 616.24 250.91 616.51L253.5 619.1C253.77 619.37 253.77 619.8 253.5 620.07C253.37 620.2 253.19 620.27 253.02 620.27Z" fill="#4C4948"/>
<path d="M348.53 641.29H301.79C301.41 641.29 301.1 640.98 301.1 640.6V610.71C301.1 610.33 301.41 610.02 301.79 610.02H348.53C348.91 610.02 349.21 610.33 349.21 610.71V640.6C349.21 640.99 348.91 641.29 348.53 641.29ZM302.47 639.92H347.84V611.41H302.47V639.92Z" fill="#4C4948"/>
<path d="M325.16 618.34C324.78 618.34 324.47 618.03 324.47 617.65V614.41C324.47 614.03 324.78 613.72 325.16 613.72C325.54 613.72 325.84 614.03 325.84 614.41V617.65C325.84 618.03 325.54 618.34 325.16 618.34Z" fill="#4C4948"/>
<path d="M336 625.93H332.76C332.38 625.93 332.07 625.62 332.07 625.24C332.07 624.86 332.38 624.55 332.76 624.55H336C336.38 624.55 336.68 624.86 336.68 625.24C336.68 625.63 336.38 625.93 336 625.93Z" fill="#4C4948"/>
<path d="M317.56 625.93H314.32C313.94 625.93 313.64 625.62 313.64 625.24C313.64 624.86 313.95 624.55 314.32 624.55H317.56C317.94 624.55 318.25 624.86 318.25 625.24C318.25 625.63 317.94 625.93 317.56 625.93Z" fill="#4C4948"/>
<path d="M330.53 620.56C330.35 620.56 330.18 620.49 330.05 620.36C329.78 620.09 329.78 619.66 330.05 619.39L332.34 617.1C332.61 616.83 333.04 616.83 333.31 617.1C333.58 617.37 333.58 617.8 333.31 618.07L331.02 620.36C330.88 620.49 330.71 620.56 330.53 620.56Z" fill="#4C4948"/>
<path d="M317.5 633.6C317.32 633.6 317.15 633.53 317.02 633.4C316.75 633.13 316.75 632.7 317.02 632.43L319.31 630.14C319.58 629.87 320.01 629.87 320.28 630.14C320.55 630.41 320.55 630.84 320.28 631.11L317.99 633.4C317.85 633.53 317.67 633.6 317.5 633.6Z" fill="#4C4948"/>
<path d="M332.82 633.6C332.64 633.6 332.47 633.53 332.33 633.4L330.04 631.11C329.77 630.84 329.77 630.41 330.04 630.14C330.31 629.87 330.74 629.87 331.01 630.14L333.3 632.43C333.57 632.7 333.57 633.13 333.3 633.4C333.17 633.53 333 633.6 332.82 633.6Z" fill="#4C4948"/>
<path d="M319.79 620.56C319.61 620.56 319.44 620.49 319.31 620.36L317.02 618.07C316.75 617.8 316.75 617.37 317.02 617.1C317.29 616.83 317.72 616.83 317.99 617.1L320.28 619.39C320.55 619.66 320.55 620.09 320.28 620.36C320.14 620.49 319.96 620.56 319.79 620.56Z" fill="#4C4948"/>
<path d="M328.23 631.94H322.1V630.05C320.45 629 319.44 627.2 319.44 625.25C319.44 622.09 322.01 619.53 325.16 619.53C328.32 619.53 330.88 622.1 330.88 625.25C330.88 627.2 329.87 629.01 328.22 630.05V631.94H328.23Z" fill="#4C4948"/>
<path d="M327.54 634.77H322.78C322.4 634.77 322.09 634.46 322.09 634.09C322.09 633.71 322.4 633.4 322.78 633.4H327.54C327.92 633.4 328.22 633.71 328.22 634.09C328.22 634.47 327.92 634.77 327.54 634.77Z" fill="#4C4948"/>
<path d="M326.69 637.599H323.63C323.25 637.599 322.95 637.289 322.95 636.919C322.95 636.539 323.26 636.229 323.63 636.229H326.69C327.07 636.229 327.38 636.539 327.38 636.919C327.37 637.299 327.07 637.599 326.69 637.599Z" fill="#4C4948"/>
<path d="M233.961 19.8239L218.111 19.917L218.199 34.837L234.049 34.7439L233.961 19.8239Z" fill="white" stroke="#4C4948" stroke-miterlimit="10"/>
<path d="M218.18 32.7901L218.1 19.9201L231.78 19.8401L218.18 32.7901Z" fill="#4C4948"/>
<path d="M226.094 30.5505C227.983 30.5394 229.506 29.0888 229.495 27.3104C229.485 25.5321 227.945 24.0994 226.056 24.1105C224.167 24.1216 222.645 25.5723 222.655 27.3506C222.666 29.129 224.205 30.5616 226.094 30.5505Z" fill="white" stroke="#4C4948" stroke-miterlimit="10"/>
<path d="M241.98 27.1101H247.94" stroke="#333333" stroke-width="0.75" stroke-miterlimit="10"/>
<path d="M204.2 27.1101H210.17" stroke="#333333" stroke-width="0.75" stroke-miterlimit="10"/>
</svg>
