<svg width="158" height="270" viewBox="0 0 158 270" fill="none" xmlns="http://www.w3.org/2000/svg">
<g clip-path="url(#clip0_234_2821)">
<path d="M101.38 40.8203H65.9099L40.8199 65.9103V101.38L65.9099 126.47H101.38L126.47 101.38V65.9103L101.38 40.8203Z" stroke="#4C4948" stroke-width="2.29" stroke-miterlimit="10"/>
<path d="M40.8199 65.9103L89.8499 17.0303" stroke="#4C4948" stroke-width="2.29" stroke-miterlimit="10"/>
<path d="M65.28 126.1L16.26 77.2197" stroke="#4C4948" stroke-width="2.29" stroke-miterlimit="10"/>
<path d="M150.45 89.7098L101.42 40.8398" stroke="#4C4948" stroke-width="2.29" stroke-miterlimit="10"/>
<path d="M40.8199 101.38V31.6504" stroke="#4C4948" stroke-width="2.29" stroke-miterlimit="10"/>
<path d="M126.56 135.61V65.8799" stroke="#4C4948" stroke-width="2.29" stroke-miterlimit="10"/>
<path d="M31.71 126.62H101.44" stroke="#4C4948" stroke-width="2.29" stroke-miterlimit="10"/>
<path d="M65.9399 40.8203H135.66" stroke="#4C4948" stroke-width="2.29" stroke-miterlimit="10"/>
<path d="M83.6401 156.141C123.681 156.141 156.14 123.681 156.14 83.6406C156.14 43.6 123.681 11.1406 83.6401 11.1406C43.5995 11.1406 11.1401 43.6 11.1401 83.6406C11.1401 123.681 43.5995 156.141 83.6401 156.141Z" stroke="#4C4948" stroke-width="2.29" stroke-miterlimit="10"/>
<path d="M83.6399 150.92C120.798 150.92 150.92 120.798 150.92 83.6404C150.92 46.4826 120.798 16.3604 83.6399 16.3604C46.4821 16.3604 16.3599 46.4826 16.3599 83.6404C16.3599 120.798 46.4821 150.92 83.6399 150.92Z" stroke="#4C4948" stroke-width="2.29" stroke-miterlimit="10"/>
<path d="M77.3901 150.251L126.41 101.371" stroke="#4C4948" stroke-width="2.29" stroke-miterlimit="10"/>
<g clip-path="url(#clip1_234_2821)">
<path d="M96.25 85.5298V92.6598H94.53V80.1998H73.02V92.6498H71.22V85.5298H57.22C56.22 85.5298 55.96 85.2598 55.96 84.2798V57.2798C55.96 56.2798 56.23 56.0098 57.21 56.0098H110.21C111.21 56.0098 111.44 56.2898 111.44 57.2498V84.3098C111.44 85.3098 111.16 85.5398 110.21 85.5398H96.21L96.25 85.5298ZM93.1 78.3598C93.2773 77.7643 93.4242 77.1602 93.54 76.5498C93.565 76.0834 93.565 75.6161 93.54 75.1498C93.564 74.9984 93.5354 74.8434 93.459 74.7105C93.3826 74.5777 93.2629 74.4751 93.12 74.4198C92.6144 74.1489 92.2122 73.7191 91.9754 73.1967C91.7386 72.6743 91.6805 72.0885 91.81 71.5298C91.9074 71.0928 92.1128 70.6871 92.4074 70.3499C92.702 70.0127 93.0763 69.7546 93.4963 69.5993C93.9163 69.444 94.3685 69.3964 94.8116 69.4609C95.2547 69.5254 95.6745 69.6998 96.0329 69.9684C96.3912 70.2369 96.6765 70.5909 96.8628 70.998C97.0491 71.4052 97.1304 71.8526 97.0993 72.2993C97.0682 72.7459 96.9256 73.1777 96.6847 73.5551C96.4437 73.9325 96.1121 74.2435 95.72 74.4598C95.5407 74.5512 95.4043 74.7091 95.34 74.8998C95.23 76.0398 95.16 77.1798 95.08 78.3398C96.08 78.4998 96.22 78.6298 96.22 79.8398V83.7098H109.6V61.3398H89.13V59.5698H109.63V57.8198H57.82V59.5998H78.33V61.3798H57.83V83.7098H71.21V79.8398C71.21 78.6298 71.32 78.4998 72.37 78.3298C72.28 77.2798 72.17 76.2298 72.11 75.1798C72.1264 75.0215 72.0929 74.8621 72.0139 74.7239C71.935 74.5858 71.8147 74.4759 71.67 74.4098C71.1526 74.125 70.7465 73.6737 70.5178 73.1291C70.2891 72.5845 70.2511 71.9787 70.41 71.4098C70.5271 70.9818 70.7487 70.5895 71.0548 70.2683C71.3609 69.947 71.7421 69.7068 72.1639 69.5692C72.5858 69.4316 73.0353 69.4009 73.472 69.4799C73.9086 69.5589 74.3188 69.7451 74.6658 70.0218C75.0128 70.2984 75.2856 70.6569 75.4598 71.065C75.634 71.4732 75.7041 71.9182 75.6639 72.3601C75.6237 72.802 75.4743 73.227 75.2293 73.597C74.9842 73.967 74.6512 74.2703 74.26 74.4798C74.11 74.5598 73.92 74.7398 73.91 74.8798C73.8066 76.0578 73.9706 77.244 74.39 78.3498H76.58C76.58 76.8298 76.58 75.3498 76.58 73.8598C76.5876 72.9208 76.8928 72.0084 77.4516 71.2538C78.0104 70.4991 78.7941 69.941 79.69 69.6598L80.16 69.5098C78.83 66.8398 79.08 64.7798 80.9 63.2898C81.6946 62.6451 82.6867 62.2932 83.71 62.2932C84.7332 62.2932 85.7253 62.6451 86.52 63.2898C88.38 64.7698 88.65 66.8498 87.3 69.5298L87.56 69.6198C88.5522 69.882 89.4244 70.477 90.0305 71.3052C90.6367 72.1334 90.9401 73.1447 90.89 74.1698V78.3998L93.1 78.3598ZM89.1 78.3598C89.1 76.7498 89.15 75.1898 89.1 73.6298C89.0522 72.9798 88.761 72.3716 88.2847 71.9268C87.8083 71.4819 87.1817 71.233 86.53 71.2298C84.69 71.2298 82.85 71.2298 81.01 71.2298C80.3218 71.2426 79.6653 71.5217 79.1786 72.0084C78.6919 72.4951 78.4128 73.1516 78.4 73.8398C78.4 74.3998 78.4 74.9598 78.4 75.5198V78.3598H89.1ZM86.42 66.7498C86.42 66.2206 86.2633 65.7032 85.9697 65.2629C85.6761 64.8227 85.2587 64.4792 84.7701 64.2758C84.2816 64.0723 83.7437 64.0181 83.2244 64.1199C82.7051 64.2217 82.2276 64.475 81.852 64.8478C81.4764 65.2206 81.2196 65.6962 81.1139 66.2148C81.0083 66.7333 81.0585 67.2716 81.2583 67.7616C81.458 68.2516 81.7985 68.6715 82.2365 68.9684C82.6746 69.2653 83.1908 69.4258 83.72 69.4298C84.0736 69.4311 84.424 69.3624 84.7509 69.2277C85.0779 69.093 85.375 68.8949 85.625 68.6448C85.8751 68.3948 86.0732 68.0977 86.2079 67.7708C86.3426 67.4438 86.4113 67.0934 86.41 66.7398L86.42 66.7498ZM72.98 71.2298C72.7439 71.2298 72.5176 71.3235 72.3506 71.4904C72.1837 71.6574 72.09 71.8837 72.09 72.1198C72.09 72.3558 72.1837 72.5822 72.3506 72.7491C72.5176 72.916 72.7439 73.0098 72.98 73.0098C73.1003 73.0085 73.2192 72.9833 73.3298 72.9358C73.4404 72.8882 73.5404 72.8192 73.6241 72.7327C73.7078 72.6462 73.7735 72.5439 73.8174 72.4319C73.8614 72.3198 73.8826 72.2001 73.88 72.0798C73.8696 71.8463 73.7689 71.6261 73.599 71.4656C73.4292 71.3051 73.2036 71.217 72.97 71.2198L72.98 71.2298ZM95.37 72.1198C95.37 71.9433 95.3175 71.7709 95.2193 71.6243C95.121 71.4777 94.9814 71.3637 94.8182 71.2966C94.655 71.2295 94.4755 71.2125 94.3026 71.2477C94.1297 71.2828 93.9712 71.3686 93.8471 71.4941C93.723 71.6196 93.6391 71.7791 93.6059 71.9524C93.5727 72.1257 93.5917 72.3049 93.6606 72.4673C93.7295 72.6298 93.8452 72.7681 93.9928 72.8647C94.1405 72.9613 94.3135 73.0117 94.49 73.0098C94.7243 73.0045 94.947 72.9071 95.1099 72.7386C95.2728 72.5701 95.3626 72.3441 95.36 72.1098L95.37 72.1198Z" fill="#4C4948"/>
<path d="M65.53 100.87L67.63 102.39L69.7301 100.87C69.363 100.362 69.1202 99.7759 69.0212 99.1575C68.9222 98.5392 68.9698 97.9063 69.16 97.3097C69.4194 96.444 69.9707 95.6948 70.72 95.1897C71.4467 94.6862 72.3197 94.4377 73.2026 94.4829C74.0856 94.5281 74.9286 94.8646 75.6 95.4397C77.18 96.7997 77.4 98.6097 76.27 100.89L78.37 102.38L80.47 100.87C79.7619 100.074 79.3988 99.0297 79.4607 97.9663C79.5226 96.903 80.0044 95.9078 80.8 95.1997C81.5957 94.4915 82.64 94.1285 83.7034 94.1904C84.7667 94.2523 85.7619 94.734 86.47 95.5297C87.99 96.9097 88.19 98.8697 87.03 100.87L89.15 102.39L91.24 100.87C90.8571 100.341 90.6095 99.726 90.5189 99.0793C90.4282 98.4326 90.4973 97.7735 90.72 97.1597C91.013 96.3319 91.5768 95.6272 92.32 95.1597C93.0648 94.6714 93.9512 94.4456 94.8388 94.518C95.7263 94.5905 96.5644 94.9571 97.22 95.5597C98.72 96.9297 98.9 98.7797 97.78 100.9L99.89 102.4L101.98 100.89C101.323 100.11 100.988 99.1086 101.045 98.0905C101.101 97.0723 101.545 96.1142 102.284 95.4119C103.023 94.7095 104.003 94.3161 105.023 94.312C106.042 94.3079 107.025 94.6934 107.77 95.3897C109.42 96.7397 109.65 98.4897 108.48 101C108.665 101.076 108.845 101.163 109.02 101.26C109.751 101.602 110.371 102.144 110.808 102.824C111.245 103.503 111.482 104.292 111.49 105.1C111.55 106.89 111.49 108.68 111.49 110.47C111.49 111.16 111.15 111.47 110.49 111.47H57.49C56.28 111.47 56.07 111.26 56.07 110.05V105.52C56.0081 104.572 56.2501 103.63 56.7609 102.829C57.2717 102.029 58.0246 101.413 58.91 101.07L59.05 100.98C57.87 98.5097 58.14 96.6597 59.87 95.3297C60.6017 94.7713 61.5036 94.4823 62.4235 94.5114C63.3434 94.5405 64.2252 94.8861 64.9201 95.4897C66.4601 96.8297 66.68 98.7997 65.53 100.87ZM66.7301 109.67C66.7301 108.09 66.7301 106.56 66.7301 105.04C66.6946 104.371 66.4063 103.741 65.9235 103.276C65.4408 102.812 64.7997 102.549 64.13 102.54C62.9234 102.54 61.7134 102.54 60.5 102.54C60.1409 102.535 59.7846 102.604 59.4526 102.741C59.1205 102.877 58.8194 103.08 58.5673 103.335C58.3152 103.591 58.1174 103.895 57.9855 104.229C57.8537 104.563 57.7906 104.921 57.8 105.28C57.8 106.23 57.8 107.18 57.8 108.13V109.67H66.7301ZM77.41 109.67C77.4318 109.632 77.4486 109.592 77.46 109.55C77.46 108.12 77.46 106.69 77.46 105.25C77.4656 104.89 77.3982 104.533 77.262 104.201C77.1258 103.868 76.9235 103.566 76.6674 103.314C76.4113 103.061 76.1067 102.864 75.772 102.732C75.4373 102.601 75.0794 102.539 74.72 102.55H71.2601C70.8955 102.538 70.5325 102.602 70.1936 102.737C69.8548 102.872 69.5474 103.076 69.2904 103.334C69.0334 103.593 68.8324 103.902 68.6999 104.242C68.5674 104.582 68.5061 104.945 68.52 105.31C68.52 106.643 68.52 107.976 68.52 109.31C68.5092 109.443 68.5092 109.577 68.52 109.71L77.41 109.67ZM88.2001 109.67C88.2001 108.07 88.2001 106.53 88.2001 104.99C88.1596 104.331 87.8709 103.712 87.3922 103.257C86.9135 102.802 86.2802 102.546 85.62 102.54C84.37 102.54 83.13 102.54 81.88 102.54C81.1927 102.558 80.5387 102.84 80.0544 103.328C79.5701 103.816 79.2927 104.472 79.28 105.16C79.28 105.92 79.28 106.69 79.28 107.45V109.67H88.2001ZM98.93 109.67C98.93 108.07 98.98 106.53 98.93 104.99C98.8873 104.332 98.5979 103.714 98.1197 103.26C97.6414 102.805 97.0095 102.548 96.35 102.54C95.1167 102.54 93.8867 102.54 92.66 102.54C92.3099 102.541 91.9634 102.611 91.6405 102.747C91.3177 102.882 91.0247 103.08 90.7785 103.329C90.5323 103.578 90.3377 103.874 90.2058 104.198C90.0739 104.522 90.0074 104.87 90.0101 105.22C90.0101 106.02 90.0101 106.82 90.0101 107.62V109.62L98.93 109.67ZM100.74 109.67H109.66C109.66 108.07 109.72 106.51 109.66 104.95C109.613 104.309 109.328 103.709 108.862 103.267C108.396 102.825 107.782 102.573 107.14 102.56C105.86 102.56 104.58 102.56 103.29 102.56C102.639 102.581 102.02 102.843 101.552 103.296C101.084 103.749 100.802 104.36 100.76 105.01C100.69 106.53 100.74 108.07 100.74 109.66V109.67ZM62.25 100.75C62.6918 100.754 63.1247 100.627 63.4945 100.385C63.8644 100.144 64.1545 99.798 64.3284 99.392C64.5024 98.9859 64.5525 98.5375 64.4723 98.1031C64.3921 97.6687 64.1853 97.2678 63.8778 96.9506C63.5703 96.6335 63.176 96.4143 62.7443 96.3207C62.3126 96.227 61.8628 96.2631 61.4516 96.4244C61.0404 96.5857 60.686 96.865 60.4331 97.2271C60.1801 97.5892 60.0399 98.0181 60.03 98.4597C60.0247 98.7555 60.0781 99.0494 60.1871 99.3245C60.296 99.5996 60.4584 99.8504 60.6648 100.062C60.8712 100.274 61.1176 100.443 61.3897 100.56C61.6618 100.676 61.9542 100.737 62.25 100.74V100.75ZM75.25 98.5197C75.252 98.0762 75.1223 97.6422 74.8774 97.2725C74.6325 96.9028 74.2833 96.6141 73.8742 96.4431C73.4651 96.272 73.0144 96.2262 72.5792 96.3115C72.144 96.3968 71.744 96.6094 71.4297 96.9222C71.1154 97.2351 70.9011 97.6342 70.8139 98.069C70.7266 98.5038 70.7704 98.9547 70.9396 99.3645C71.1089 99.7744 71.396 100.125 71.7645 100.371C72.1331 100.618 72.5666 100.75 73.0101 100.75C73.5998 100.742 74.163 100.503 74.5782 100.084C74.9934 99.6648 75.2275 99.0995 75.2301 98.5097L75.25 98.5197ZM83.7601 96.2797C83.3166 96.2777 82.8825 96.4074 82.5129 96.6523C82.1432 96.8972 81.8545 97.2464 81.6834 97.6555C81.5123 98.0646 81.4666 98.5153 81.5519 98.9505C81.6372 99.3857 81.8497 99.7858 82.1626 100.1C82.4754 100.414 82.8745 100.629 83.3093 100.716C83.7441 100.803 84.195 100.759 84.6049 100.59C85.0148 100.421 85.3652 100.134 85.6118 99.7652C85.8584 99.3966 85.99 98.9631 85.99 98.5197C85.9927 98.2235 85.9363 97.9297 85.8242 97.6555C85.7121 97.3813 85.5465 97.1322 85.337 96.9227C85.1275 96.7133 84.8784 96.5476 84.6042 96.4355C84.33 96.3234 84.0362 96.267 83.74 96.2697L83.7601 96.2797ZM94.4801 100.75C94.9205 100.748 95.3505 100.616 95.7164 100.371C96.0823 100.125 96.3678 99.7777 96.5372 99.3711C96.7066 98.9646 96.7524 98.5171 96.6688 98.0846C96.5852 97.6522 96.376 97.254 96.0673 96.9398C95.7586 96.6256 95.3641 96.4094 94.9332 96.3182C94.5023 96.227 94.0541 96.2649 93.6446 96.4271C93.2351 96.5893 92.8825 96.8686 92.6309 97.2301C92.3793 97.5917 92.2399 98.0193 92.2301 98.4597C92.2248 98.7563 92.2784 99.0511 92.388 99.3269C92.4976 99.6026 92.6608 99.8538 92.8683 100.066C93.0758 100.278 93.3233 100.447 93.5966 100.563C93.8698 100.678 94.1633 100.738 94.46 100.74L94.4801 100.75ZM107.48 98.5097C107.48 98.0662 107.348 97.6328 107.102 97.2642C106.855 96.8956 106.505 96.6085 106.095 96.4393C105.685 96.27 105.234 96.2262 104.799 96.3135C104.365 96.4007 103.965 96.6151 103.653 96.9293C103.34 97.2436 103.127 97.6437 103.042 98.0788C102.957 98.514 103.002 98.9647 103.173 99.3738C103.345 99.783 103.633 100.132 104.003 100.377C104.373 100.622 104.807 100.752 105.25 100.75C105.843 100.734 106.406 100.484 106.817 100.056C107.227 99.6266 107.451 99.053 107.44 98.4597L107.48 98.5097Z" fill="#4C4948"/>
</g>
</g>
<circle cx="24" cy="24" r="24" fill="#4D4D4D"/>
<path d="M15.22 23.944C16.912 23.944 17.704 25.15 17.704 26.968C17.704 28.804 16.696 30.064 15.382 30.064C13.636 30.064 12.628 28.48 12.448 25.69C13.348 24.43 14.392 23.944 15.22 23.944ZM15.382 31.234C17.38 31.234 19.09 29.506 19.09 26.968C19.09 24.232 17.686 22.846 15.454 22.846C14.392 22.846 13.24 23.458 12.412 24.448C12.484 20.236 14.05 18.814 15.904 18.814C16.696 18.814 17.488 19.192 18.028 19.822L18.856 18.904C18.136 18.148 17.182 17.59 15.85 17.59C13.33 17.59 11.026 19.534 11.026 24.736C11.026 29.038 12.844 31.234 15.382 31.234ZM26.9529 30.514V25.942H34.5669V30.514H26.9529ZM31.6689 18.85C30.8589 20.488 29.6709 21.964 28.2669 23.242C27.4389 22.288 26.0349 21.1 24.7929 20.236C25.2609 19.786 25.7109 19.318 26.1249 18.85H31.6689ZM35.7729 24.826H28.2129C30.3729 23.062 32.1909 20.812 33.2709 18.112L32.4969 17.698L32.2629 17.77H26.9889C27.3849 17.23 27.7449 16.69 28.0509 16.168L26.7009 15.916C25.6749 17.842 23.6049 20.182 20.6529 21.802C20.9229 22 21.3369 22.414 21.4989 22.702C22.3809 22.18 23.1909 21.604 23.9109 21.01C25.1529 21.91 26.5209 23.116 27.3129 24.052C25.2429 25.69 22.8489 26.914 20.5629 27.58C20.7969 27.796 21.1209 28.3 21.2469 28.624C22.7589 28.138 24.3069 27.436 25.7829 26.554V32.35H26.9529V31.63H34.5669V32.386H35.7729V24.826Z" fill="white"/>
<path d="M53.44 184.9V183.8H58.12V184.9H53.44ZM58.12 180.06V181.08H53.44V180.06H58.12ZM53.44 181.9H58.12V182.98H53.44V181.9ZM58.12 186.84H59.38V185.94H61.98V184.9H59.38V180.06H61.52V179.08H50.28V180.06H52.18V184.9H49.74V185.94H58.12V186.84ZM48.78 185.94C48.36 186.22 47.96 186.46 47.54 186.72V183.6H49.28V182.36H47.54V178.3H46.3V182.36H44.08V183.6H46.3V187.48C45.38 188.04 44.54 188.54 43.88 188.9L44.36 190.14L46.3 188.92V194.78C46.3 195.04 46.2 195.12 45.96 195.12C45.76 195.12 45.04 195.12 44.24 195.1C44.42 195.46 44.58 196.02 44.62 196.34C45.78 196.36 46.48 196.3 46.92 196.1C47.36 195.86 47.54 195.52 47.54 194.78V188.16C48.06 187.8 48.62 187.46 49.14 187.12L48.78 185.94ZM53.72 189.38H51.5V188.28H53.72V189.38ZM51.5 193.52V192.26H53.72V193.36L51.5 193.52ZM53.72 191.42H51.5V190.22H53.72V191.42ZM49.48 188.28H50.44V193.6L49.18 193.68L49.32 194.72C50.6 194.58 52.12 194.44 53.72 194.28V196.48H54.78V188.28H55.5V187.28H49.48V188.28ZM57.76 193.44V192.22H60.08V193.44H57.76ZM60.08 188.28V189.38H57.76V188.28H60.08ZM57.76 190.2H60.08V191.38H57.76V190.2ZM62.1 193.44H61.14V188.28H62.08V187.28H55.84V188.28H56.7V193.44H55.68V194.44H60.08V196.48H61.14V194.44H62.1V193.44ZM79.86 178.72C78.7 180.3 76.62 182 74.86 182.98C75.22 183.22 75.6 183.62 75.84 183.9C77.68 182.78 79.76 181 81.1 179.22L79.86 178.72ZM80.54 184.06C79.28 185.8 76.9 187.58 74.88 188.6C75.22 188.84 75.6 189.22 75.82 189.52C77.94 188.36 80.3 186.5 81.76 184.58L80.54 184.06ZM72.8 181.22H66.54V179.94H72.8V181.22ZM72.8 183.42H66.54V182.12H72.8V183.42ZM74.12 179.02H65.28V184.36H74.12V179.02ZM74.8 185.7H70.4C70.2 185.28 69.94 184.8 69.68 184.44L68.48 184.74C68.64 185.02 68.82 185.36 68.98 185.7H64.28V186.8H74.8V185.7ZM66.2 192.12C65.76 193.18 65.02 194.22 64.22 194.96C64.5 195.14 64.96 195.52 65.16 195.7C65.96 194.9 66.84 193.62 67.34 192.44L66.2 192.12ZM66.66 188.84H72.6V190.64H66.66V188.84ZM73.9 191.6V187.88H65.42V191.6H68.96V195.02C68.96 195.2 68.92 195.28 68.68 195.28C68.48 195.3 67.8 195.3 66.94 195.28C67.1 195.6 67.28 196.04 67.34 196.38C68.46 196.38 69.2 196.38 69.66 196.18C70.14 196 70.26 195.7 70.26 195.04V191.6H73.9ZM71.42 192.54C72.12 193.46 72.88 194.7 73.24 195.48L74.26 194.92C73.88 194.16 73.08 192.98 72.34 192.08L71.42 192.54ZM80.96 189.86C79.56 192.12 76.92 194.22 74.26 195.4C74.56 195.66 74.96 196.08 75.18 196.4C77.96 195.06 80.62 192.84 82.18 190.32L80.96 189.86ZM101.76 185.42V184.06H93.42C93.72 181.92 93.74 179.92 93.76 178.32H92.36C92.34 179.88 92.36 181.9 92.04 184.06H84.32V185.42H91.8C90.98 189.26 88.98 193.22 83.96 195.4C84.3 195.68 84.74 196.14 84.96 196.5C89.94 194.22 92.08 190.22 93.02 186.26C94.56 190.94 97.18 194.64 101.08 196.48C101.32 196.08 101.74 195.54 102.06 195.24C98.2 193.62 95.56 189.92 94.14 185.42H101.76ZM109.58 189.82V193.4H105.9V189.82H109.58ZM109.42 182.44V185.54H105.9V182.44H109.42ZM105.9 186.7H110.6V181.28H107.58C107.96 180.44 108.38 179.42 108.7 178.52L107.26 178.28C107.08 179.16 106.72 180.38 106.38 181.28H104.68V195.92H105.9V194.56H110.8V188.64H105.9V186.7ZM122.04 180.58V179.36H111.44V180.58H116.08V183.16H112.22V193.54H113.44V184.36H116.08V196.48H117.34V184.36H120.18V192.06C120.18 192.26 120.12 192.34 119.9 192.34C119.7 192.34 119.04 192.34 118.26 192.32C118.42 192.64 118.6 193.14 118.64 193.48C119.74 193.48 120.42 193.46 120.86 193.26C121.32 193.06 121.42 192.68 121.42 192.06V183.16H117.34V180.58H122.04ZM49.96 203.62C49.68 204.9 49.04 206.78 48.58 207.9L49.44 208.22C49.96 207.16 50.62 205.4 51.14 204.02L49.96 203.62ZM46.22 207.82C46.02 206.7 45.52 204.98 45.06 203.64L44.08 203.86C44.5 205.2 45 206.94 45.18 208.08L46.22 207.82ZM45.7 211.46C45.34 213.3 44.46 215.6 43.62 216.76C43.84 217.12 44.14 217.68 44.28 218.06C45.28 216.68 46.18 213.92 46.6 211.74L45.7 211.46ZM50.66 210.22V208.98H48.14V202.32H46.94V208.98H43.94V210.22H46.94V220.52H48.14V210.22H50.66ZM48.5 212C48.9 212.76 49.98 215.22 50.32 216.2L51.24 215.2C50.96 214.58 49.6 212.02 49.24 211.48L48.5 212ZM53.44 216.24C53.48 215.72 53.5 215.2 53.5 214.74V214.66H59.68V216.24H53.44ZM59.68 212.1V213.68H53.5V212.1H59.68ZM60.92 211.04H52.28V214.72C52.28 216.32 52.14 218.36 50.94 219.9C51.22 220.04 51.7 220.5 51.88 220.76C52.7 219.76 53.1 218.48 53.32 217.22H59.68V219.08C59.68 219.3 59.62 219.38 59.36 219.38C59.12 219.38 58.3 219.38 57.38 219.36C57.52 219.68 57.7 220.14 57.76 220.48C59 220.48 59.8 220.46 60.3 220.28C60.8 220.08 60.92 219.74 60.92 219.06V211.04ZM57.14 208.74V207.28H61.56V206.3H57.14V205H61.94V203.96H57.14V202.3H55.84V203.96H51.26V205H55.84V206.3H51.76V207.28H55.84V208.74H51.04V209.78H62.12V208.74H57.14ZM75.72 206.56H77.02V204.98H81.7V203.78H77.02V202.3H75.72V203.78H73.36V204.98H75.72V206.56ZM68.86 206.56H70.16V204.98H72.62V203.78H70.16V202.3H68.86V203.78H64.28V204.98H68.86V206.56ZM81.94 214.88V213.7H73.6V208.28H81.44V207.14H64.58V208.28H72.28V213.7H64.1V214.88H72.28V216.68H65.06V217.82H72.28V220.56H73.6V217.82H80.86V216.68H73.6V214.88H81.94ZM67.54 208.86V210.38H64.62V211.54H67.54V213.18H68.78V211.54H71.3V210.38H68.78V208.86H67.54ZM78.5 213.18V211.48H81.36V210.32H78.5V208.86H77.26V210.32H74.7V211.48H77.26V213.18H78.5ZM88.68 204.7C88.34 204.02 87.56 202.96 86.9 202.18L85.9 202.76C86.54 203.56 87.3 204.7 87.64 205.4L88.68 204.7ZM90.54 205.7H83.92V206.8H90.54V205.7ZM89.9 208.3H84.64V209.36H89.9V208.3ZM84.64 211.96H89.9V210.88H84.64V211.96ZM88.96 214.66V218.16H85.68V214.66H88.96ZM90.04 213.54H84.64V220.24H85.68V219.28H90.04V213.54ZM96.88 216.16V214.58H99.62V216.16H96.88ZM93.04 214.58H95.64V216.16H93.04V214.58ZM95.64 212.08V213.62H93.04V212.08H95.64ZM99.62 212.08V213.62H96.88V212.08H99.62ZM94.7 207.34H97.86V208.82H94.7V207.34ZM94.7 205.04H97.86V206.34H94.7V205.04ZM102.14 216.16H100.9V211.06H96.88V209.84H102.06V208.82H99.1V207.34H101.3V206.34H99.1V205.04H101.62V204.02H99.1V202.34H97.86V204.02H94.7V202.34H93.48V204.02H91.02V205.04H93.48V206.34H91.56V207.34H93.48V208.82H90.52V209.84H95.64V211.06H91.78V216.16H90.56V217.2H91.78V220.52H93.04V217.2H99.62V219.08C99.62 219.34 99.54 219.4 99.24 219.42C99 219.44 98 219.44 96.92 219.4C97.08 219.72 97.26 220.16 97.3 220.5C98.78 220.5 99.68 220.5 100.24 220.3C100.74 220.1 100.9 219.76 100.9 219.08V217.2H102.14V216.16ZM118.1 206.9C117.68 209.34 116.68 211.28 115.02 212.5C115.32 212.7 115.78 213.08 116 213.28C116.86 212.58 117.58 211.68 118.16 210.58C119.28 211.56 120.46 212.7 121.12 213.46L121.94 212.62C121.22 211.8 119.82 210.54 118.62 209.54C118.92 208.8 119.16 207.98 119.32 207.08L118.1 206.9ZM121.9 205.7V204.46H115.3C114.94 203.76 114.42 202.88 113.88 202.18L112.68 202.6C113.08 203.16 113.46 203.84 113.78 204.46H105.34V210C105.34 212.88 105.2 216.86 103.66 219.72C103.96 219.86 104.54 220.24 104.78 220.48C106.38 217.46 106.64 213.02 106.64 210.02V205.7H121.9ZM110.04 206.9C109.64 209.44 108.64 211.52 106.98 212.82C107.26 213 107.78 213.38 107.96 213.58C108.88 212.8 109.62 211.8 110.18 210.6C111.04 211.42 111.92 212.36 112.4 213.02L113.24 212.16C112.68 211.46 111.58 210.36 110.62 209.5C110.9 208.76 111.1 207.94 111.26 207.06L110.04 206.9ZM114.96 218.8V215.66H120.7V214.48H114.96V206.54H113.68V214.48H108.08V215.66H113.68V218.8H106.78V219.98H121.96V218.8H114.96Z" fill="black"/>
<path d="M40.5614 246.355C40.4414 245.56 40.0364 244.195 39.6464 243.145L39.2114 243.22C39.4214 243.76 39.6314 244.405 39.7814 245.005L36.7364 245.425C37.9814 244 39.2114 242.095 40.3064 240.16L39.8414 239.95C39.5114 240.625 39.0914 241.33 38.7014 241.96L36.5564 242.2C37.4864 240.985 38.3864 239.35 39.1364 237.745L38.6864 237.535C38.0114 239.215 36.8864 241 36.5414 241.465C36.2414 241.93 35.9714 242.275 35.7464 242.32C35.8064 242.44 35.8814 242.695 35.9114 242.815C36.0914 242.725 36.4064 242.68 38.4164 242.41C37.7414 243.445 37.1264 244.285 36.8564 244.6C36.4214 245.155 36.0914 245.56 35.8364 245.605C35.8964 245.74 35.9714 245.995 36.0014 246.1C36.2264 245.995 36.6014 245.92 39.8864 245.41C39.9914 245.8 40.0814 246.175 40.1264 246.475L40.5614 246.355ZM36.5114 246.94C36.3314 248.17 36.0464 249.505 35.6714 250.48C35.7914 250.525 36.0164 250.615 36.1064 250.66C36.4214 249.715 36.7514 248.305 36.9764 247.03L36.5114 246.94ZM37.8464 246.97C38.0264 248.005 38.2064 249.355 38.2514 250.24L38.6864 250.18C38.6414 249.295 38.4614 247.945 38.2664 246.91L37.8464 246.97ZM39.1214 246.7C39.4664 247.585 39.8264 248.755 39.9764 249.505L40.3964 249.385C40.2614 248.635 39.8714 247.495 39.5264 246.61L39.1214 246.7ZM44.1764 245.77L44.0864 245.8H41.2964V246.235H43.8914C43.2914 248.065 41.8964 249.415 40.5164 250.03C40.6214 250.12 40.7414 250.255 40.8164 250.36C42.3314 249.625 43.8314 248.11 44.4464 245.89L44.1764 245.77ZM42.3164 241.885H47.9264V243.79H42.3164V241.885ZM42.3164 239.575H47.9264V241.45H42.3164V239.575ZM48.4664 245.08C47.9714 245.65 47.1164 246.49 46.4264 247.045C46.0214 246.355 45.7064 245.59 45.4664 244.81V244.225H48.3614V239.14H44.7914C44.9864 238.72 45.1814 238.18 45.3614 237.7L44.9114 237.535C44.7914 237.985 44.5664 238.66 44.3564 239.14H41.8814V244.225H45.0314V250.39C45.0314 250.57 44.9864 250.615 44.7764 250.63C44.5814 250.645 43.9064 250.645 43.0514 250.63C43.1264 250.765 43.2014 250.93 43.2314 251.065C44.2214 251.065 44.7914 251.065 45.0914 250.975C45.3764 250.885 45.4664 250.735 45.4664 250.375V245.965C46.2464 247.855 47.5214 249.505 49.0064 250.315C49.0814 250.195 49.2164 250.06 49.3214 249.97C48.2564 249.46 47.3264 248.5 46.6064 247.345C47.3264 246.79 48.1814 246.01 48.8264 245.32L48.4664 245.08ZM64.1564 239.11V238.66H50.9114V239.11H57.0314V251.05H57.4664V242.365C59.3864 243.325 61.6964 244.72 62.9114 245.605L63.1664 245.215C61.9214 244.33 59.5214 242.92 57.5714 241.99L57.4664 242.11V239.11H64.1564ZM65.1614 252.64H65.6864L70.9214 238.27H70.4114L65.1614 252.64ZM76.5086 246.355C76.3886 245.56 75.9836 244.195 75.5936 243.145L75.1586 243.22C75.3686 243.76 75.5786 244.405 75.7286 245.005L72.6836 245.425C73.9286 244 75.1586 242.095 76.2536 240.16L75.7886 239.95C75.4586 240.625 75.0386 241.33 74.6486 241.96L72.5036 242.2C73.4336 240.985 74.3336 239.35 75.0836 237.745L74.6336 237.535C73.9586 239.215 72.8336 241 72.4886 241.465C72.1886 241.93 71.9186 242.275 71.6936 242.32C71.7536 242.44 71.8286 242.695 71.8586 242.815C72.0386 242.725 72.3536 242.68 74.3636 242.41C73.6886 243.445 73.0736 244.285 72.8036 244.6C72.3686 245.155 72.0386 245.56 71.7836 245.605C71.8436 245.74 71.9186 245.995 71.9486 246.1C72.1736 245.995 72.5486 245.92 75.8336 245.41C75.9386 245.8 76.0286 246.175 76.0736 246.475L76.5086 246.355ZM72.4586 246.94C72.2786 248.17 71.9936 249.505 71.6186 250.48C71.7386 250.525 71.9636 250.615 72.0536 250.66C72.3686 249.715 72.6986 248.305 72.9236 247.03L72.4586 246.94ZM73.7936 246.97C73.9736 248.005 74.1536 249.355 74.1986 250.24L74.6336 250.18C74.5886 249.295 74.4086 247.945 74.2136 246.91L73.7936 246.97ZM75.0686 246.7C75.4136 247.585 75.7736 248.755 75.9236 249.505L76.3436 249.385C76.2086 248.635 75.8186 247.495 75.4736 246.61L75.0686 246.7ZM80.1236 245.77L80.0336 245.8H77.2436V246.235H79.8386C79.2386 248.065 77.8436 249.415 76.4636 250.03C76.5686 250.12 76.6886 250.255 76.7636 250.36C78.2786 249.625 79.7786 248.11 80.3936 245.89L80.1236 245.77ZM78.2636 241.885H83.8736V243.79H78.2636V241.885ZM78.2636 239.575H83.8736V241.45H78.2636V239.575ZM84.4136 245.08C83.9186 245.65 83.0636 246.49 82.3736 247.045C81.9686 246.355 81.6536 245.59 81.4136 244.81V244.225H84.3086V239.14H80.7386C80.9336 238.72 81.1286 238.18 81.3086 237.7L80.8586 237.535C80.7386 237.985 80.5136 238.66 80.3036 239.14H77.8286V244.225H80.9786V250.39C80.9786 250.57 80.9336 250.615 80.7236 250.63C80.5286 250.645 79.8536 250.645 78.9986 250.63C79.0736 250.765 79.1486 250.93 79.1786 251.065C80.1686 251.065 80.7386 251.065 81.0386 250.975C81.3236 250.885 81.4136 250.735 81.4136 250.375V245.965C82.1936 247.855 83.4686 249.505 84.9536 250.315C85.0286 250.195 85.1636 250.06 85.2686 249.97C84.2036 249.46 83.2736 248.5 82.5536 247.345C83.2736 246.79 84.1286 246.01 84.7736 245.32L84.4136 245.08ZM93.1736 249.925V243.19H99.0986V242.755H93.1736V237.805H92.7386V249.925H86.8586V250.36H100.104V249.925H93.1736ZM105.039 239.32C104.769 238.825 104.184 238.045 103.674 237.475L103.314 237.715C103.824 238.285 104.379 239.095 104.664 239.62L105.039 239.32ZM106.644 240.16H101.739V240.595H106.644V240.16ZM106.164 242.47V242.035H102.279V242.47H106.164ZM106.164 243.955H102.279V244.39H106.164V243.955ZM105.834 246.325V249.64H102.714V246.325H105.834ZM106.269 245.89H102.309V250.855H102.714V250.075H106.269V245.89ZM111.099 248.065V246.535H113.784V248.065H111.099ZM108.114 246.535H110.664V248.065H108.114V246.535ZM110.664 244.6V246.1H108.114V244.6H110.664ZM113.784 244.6V246.1H111.099V244.6H113.784ZM109.449 241.135H112.389V242.56H109.449V241.135ZM109.449 239.425H112.389V240.7H109.449V239.425ZM115.284 248.065H114.219V244.165H111.099V242.995H115.194V242.56H112.809V241.135H114.594V240.7H112.809V239.425H114.864V238.99H112.809V237.565H112.389V238.99H109.449V237.565H109.029V238.99H107.049V239.425H109.029V240.7H107.484V241.135H109.029V242.56H106.599V242.995H110.664V244.165H107.679V248.065H106.689V248.5H107.679V251.065H108.114V248.5H113.784V250.375C113.784 250.585 113.709 250.63 113.484 250.645C113.289 250.66 112.479 250.66 111.504 250.645C111.579 250.765 111.654 250.915 111.684 251.035C112.854 251.035 113.499 251.05 113.829 250.96C114.114 250.87 114.219 250.72 114.219 250.36V248.5H115.284V248.065ZM124.479 247.21H129.069V246.775H124.479V240.52H124.044V246.775H119.529V247.21H124.044V250.195H118.524V250.63H130.089V250.195H124.479V247.21ZM121.329 240.865C120.939 242.92 120.099 244.6 118.779 245.665C118.899 245.74 119.079 245.89 119.154 245.965C119.949 245.275 120.579 244.375 121.044 243.28C121.809 244 122.619 244.855 123.039 245.425L123.399 245.155C122.949 244.555 122.004 243.595 121.209 242.905C121.449 242.29 121.629 241.63 121.764 240.925L121.329 240.865ZM127.344 240.865C126.999 242.83 126.159 244.375 124.839 245.365C124.944 245.44 125.124 245.59 125.199 245.65C125.979 245.02 126.609 244.21 127.059 243.235C128.049 244.06 129.144 245.11 129.699 245.8L130.044 245.53C129.444 244.81 128.259 243.67 127.239 242.845C127.479 242.26 127.659 241.63 127.779 240.925L127.344 240.865ZM125.004 239.365C124.734 238.825 124.269 238.105 123.819 237.52L123.474 237.685C123.849 238.195 124.254 238.84 124.524 239.365H117.819V243.595C117.819 245.74 117.699 248.665 116.559 250.825C116.664 250.885 116.829 251.005 116.919 251.08C118.089 248.875 118.254 245.785 118.254 243.595V239.8H130.089V239.365H125.004ZM50.72 258.145H44.945V256.495H50.72V258.145ZM50.72 260.26H44.945V258.595H50.72V260.26ZM51.155 256.06H44.495V260.71H51.155V256.06ZM43.22 263.41L41.36 264.31V259.33H43.22V258.88H41.36V255.595H40.91V258.88H38.915V259.33H40.91V264.535C40.055 264.94 39.29 265.315 38.675 265.585L38.885 266.02C40.1 265.42 41.765 264.61 43.325 263.845L43.22 263.41ZM52.265 262.27V261.82H42.86V262.27H45.365C44.6 263.695 43.37 264.925 42.065 265.765C42.185 265.84 42.35 266.005 42.41 266.08C43.175 265.555 43.94 264.865 44.615 264.07V264.085H46.7C45.905 265.675 44.405 267.355 43.025 268.15C43.145 268.24 43.28 268.375 43.355 268.48C44.825 267.55 46.355 265.78 47.15 264.085H49.16C48.56 265.945 47.36 267.895 46.07 268.825C46.205 268.885 46.37 269.005 46.445 269.11C47.795 268.09 48.995 266.035 49.565 264.085H51.35C51.11 267.04 50.87 268.18 50.54 268.48C50.435 268.615 50.3 268.63 50.075 268.63C49.85 268.63 49.25 268.615 48.59 268.555C48.665 268.675 48.71 268.87 48.71 268.99C49.28 269.035 49.865 269.035 50.165 269.035C50.495 269.02 50.705 268.975 50.9 268.78C51.305 268.36 51.545 267.22 51.8 263.935C51.815 263.845 51.83 263.65 51.83 263.65H44.96C45.29 263.215 45.59 262.75 45.845 262.27H52.265ZM66.095 258.76C65.78 259.84 65.18 261.22 64.715 262.015L65.09 262.225C65.6 261.31 66.29 259.78 66.665 258.43L66.335 258.295L66.245 258.325H59.825C60.11 257.47 60.35 256.57 60.53 255.655L60.065 255.565C59.6 257.905 58.835 260.185 57.77 261.7C57.89 261.76 58.115 261.895 58.205 261.955C58.775 261.085 59.27 259.975 59.675 258.76H66.095ZM57.98 258.1H54.2V258.535H57.98V258.1ZM58.565 264.445H53.855V264.88H58.565V264.445ZM61.94 259.6H61.505V260.53C61.505 262.915 61.235 266.23 56.6 268.765C56.705 268.84 56.84 268.975 56.915 269.08C60.395 267.16 61.475 264.805 61.79 262.675C62.675 265.735 64.325 267.955 66.98 268.915C67.055 268.81 67.19 268.66 67.295 268.57C64.355 267.595 62.66 265.015 61.91 261.535C61.94 261.19 61.94 260.86 61.94 260.53V259.6ZM72.83 255.655C71.825 258.145 70.175 260.545 68.435 262.105C68.54 262.195 68.705 262.36 68.765 262.45C69.575 261.7 70.355 260.77 71.075 259.735V269.02H71.51V259.075C72.17 258.04 72.755 256.93 73.25 255.775L72.83 255.655ZM82.28 262.555V262.12H77.735V257.455H81.62V257.02H73.73V257.455H77.3V262.12H72.545V262.555H77.3V267.97H73.055V268.405H81.935V267.97H77.735V262.555H82.28ZM96.155 256.675V258.025H93.14V256.675H96.155ZM96.14 260.38C96.515 260.38 96.905 260.365 97.07 260.335C97.055 260.23 97.025 260.05 97.01 259.93C96.8 259.96 96.365 259.975 96.11 259.975H93.59C93.215 259.975 93.14 259.855 93.14 259.42V258.46H96.59V256.24H92.705V259.405C92.705 260.155 92.885 260.38 93.59 260.38H96.14ZM91.28 256.66V258.01H88.34V256.66H91.28ZM88.34 260.05V258.445H91.715V256.225H87.905V259.51C87.905 260.05 87.725 260.185 87.59 260.245C87.665 260.365 87.785 260.575 87.83 260.71C88.055 260.575 88.43 260.485 92.045 259.78C92.015 259.69 91.985 259.555 91.97 259.42L88.34 260.05ZM90.71 262.525H93.755V264.385H90.71V262.525ZM97.16 264.385H94.19V262.525H96.725V262.09H94.19V260.71H93.755V262.09H90.71V260.71H90.275V262.09H87.92V262.525H90.275V264.385H87.23V264.82H97.16V264.385ZM96.95 267.19C96.155 266.545 94.82 265.795 93.56 265.21L93.245 265.465C94.535 266.065 95.81 266.815 96.56 267.475L96.95 267.19ZM90.725 265.195C89.96 265.93 88.73 266.665 87.635 267.19C87.77 267.265 87.965 267.415 88.055 267.505C89.09 266.98 90.335 266.14 91.19 265.345L90.725 265.195ZM86.435 258.04C86.06 257.425 85.25 256.45 84.59 255.7L84.23 255.88C84.875 256.615 85.67 257.65 86.06 258.265L86.435 258.04ZM86.765 262.795L86.66 262.81H84.59C85.295 261.82 86.36 259.99 86.9 259.075L86.51 258.91L86.33 258.985H83.795V259.42H86.09C85.595 260.365 84.62 262.075 84.305 262.465C84.095 262.735 83.87 262.81 83.69 262.87C83.765 263.005 83.9 263.29 83.93 263.44C84.035 263.35 84.395 263.245 84.755 263.245H86.495C86.045 265.885 84.98 267.76 83.6 268.765C83.72 268.84 83.87 269.005 83.93 269.125C84.65 268.555 85.325 267.775 85.835 266.755C87.035 268.555 89.09 268.855 92.495 268.855C94.055 268.855 95.945 268.825 97.22 268.75C97.25 268.63 97.295 268.39 97.4 268.255C96.005 268.375 94.055 268.42 92.48 268.42C89.27 268.42 87.11 268.135 86.045 266.35C86.48 265.405 86.81 264.25 87.02 262.9L86.765 262.795ZM98.75 261.895V262.39H112.325V261.895H98.75ZM125.72 258.145H119.945V256.495H125.72V258.145ZM125.72 260.26H119.945V258.595H125.72V260.26ZM126.155 256.06H119.495V260.71H126.155V256.06ZM118.22 263.41L116.36 264.31V259.33H118.22V258.88H116.36V255.595H115.91V258.88H113.915V259.33H115.91V264.535C115.055 264.94 114.29 265.315 113.675 265.585L113.885 266.02C115.1 265.42 116.765 264.61 118.325 263.845L118.22 263.41ZM127.265 262.27V261.82H117.86V262.27H120.365C119.6 263.695 118.37 264.925 117.065 265.765C117.185 265.84 117.35 266.005 117.41 266.08C118.175 265.555 118.94 264.865 119.615 264.07V264.085H121.7C120.905 265.675 119.405 267.355 118.025 268.15C118.145 268.24 118.28 268.375 118.355 268.48C119.825 267.55 121.355 265.78 122.15 264.085H124.16C123.56 265.945 122.36 267.895 121.07 268.825C121.205 268.885 121.37 269.005 121.445 269.11C122.795 268.09 123.995 266.035 124.565 264.085H126.35C126.11 267.04 125.87 268.18 125.54 268.48C125.435 268.615 125.3 268.63 125.075 268.63C124.85 268.63 124.25 268.615 123.59 268.555C123.665 268.675 123.71 268.87 123.71 268.99C124.28 269.035 124.865 269.035 125.165 269.035C125.495 269.02 125.705 268.975 125.9 268.78C126.305 268.36 126.545 267.22 126.8 263.935C126.815 263.845 126.83 263.65 126.83 263.65H119.96C120.29 263.215 120.59 262.75 120.845 262.27H127.265Z" fill="black"/>
<defs>
<clipPath id="clip0_234_2821">
<rect width="147.29" height="147.29" fill="white" transform="translate(10 10)"/>
</clipPath>
<clipPath id="clip1_234_2821">
<rect width="55.49" height="55.48" fill="white" transform="translate(56 56)"/>
</clipPath>
</defs>
</svg>
