<svg width="148" height="260" viewBox="0 0 148 260" fill="none" xmlns="http://www.w3.org/2000/svg">
<path d="M43.44 174.9V173.8H48.12V174.9H43.44ZM48.12 170.06V171.08H43.44V170.06H48.12ZM43.44 171.9H48.12V172.98H43.44V171.9ZM48.12 176.84H49.38V175.94H51.98V174.9H49.38V170.06H51.52V169.08H40.28V170.06H42.18V174.9H39.74V175.94H48.12V176.84ZM38.78 175.94C38.36 176.22 37.96 176.46 37.54 176.72V173.6H39.28V172.36H37.54V168.3H36.3V172.36H34.08V173.6H36.3V177.48C35.38 178.04 34.54 178.54 33.88 178.9L34.36 180.14L36.3 178.92V184.78C36.3 185.04 36.2 185.12 35.96 185.12C35.76 185.12 35.04 185.12 34.24 185.1C34.42 185.46 34.58 186.02 34.62 186.34C35.78 186.36 36.48 186.3 36.92 186.1C37.36 185.86 37.54 185.52 37.54 184.78V178.16C38.06 177.8 38.62 177.46 39.14 177.12L38.78 175.94ZM43.72 179.38H41.5V178.28H43.72V179.38ZM41.5 183.52V182.26H43.72V183.36L41.5 183.52ZM43.72 181.42H41.5V180.22H43.72V181.42ZM39.48 178.28H40.44V183.6L39.18 183.68L39.32 184.72C40.6 184.58 42.12 184.44 43.72 184.28V186.48H44.78V178.28H45.5V177.28H39.48V178.28ZM47.76 183.44V182.22H50.08V183.44H47.76ZM50.08 178.28V179.38H47.76V178.28H50.08ZM47.76 180.2H50.08V181.38H47.76V180.2ZM52.1 183.44H51.14V178.28H52.08V177.28H45.84V178.28H46.7V183.44H45.68V184.44H50.08V186.48H51.14V184.44H52.1V183.44ZM69.86 168.72C68.7 170.3 66.62 172 64.86 172.98C65.22 173.22 65.6 173.62 65.84 173.9C67.68 172.78 69.76 171 71.1 169.22L69.86 168.72ZM70.54 174.06C69.28 175.8 66.9 177.58 64.88 178.6C65.22 178.84 65.6 179.22 65.82 179.52C67.94 178.36 70.3 176.5 71.76 174.58L70.54 174.06ZM62.8 171.22H56.54V169.94H62.8V171.22ZM62.8 173.42H56.54V172.12H62.8V173.42ZM64.12 169.02H55.28V174.36H64.12V169.02ZM64.8 175.7H60.4C60.2 175.28 59.94 174.8 59.68 174.44L58.48 174.74C58.64 175.02 58.82 175.36 58.98 175.7H54.28V176.8H64.8V175.7ZM56.2 182.12C55.76 183.18 55.02 184.22 54.22 184.96C54.5 185.14 54.96 185.52 55.16 185.7C55.96 184.9 56.84 183.62 57.34 182.44L56.2 182.12ZM56.66 178.84H62.6V180.64H56.66V178.84ZM63.9 181.6V177.88H55.42V181.6H58.96V185.02C58.96 185.2 58.92 185.28 58.68 185.28C58.48 185.3 57.8 185.3 56.94 185.28C57.1 185.6 57.28 186.04 57.34 186.38C58.46 186.38 59.2 186.38 59.66 186.18C60.14 186 60.26 185.7 60.26 185.04V181.6H63.9ZM61.42 182.54C62.12 183.46 62.88 184.7 63.24 185.48L64.26 184.92C63.88 184.16 63.08 182.98 62.34 182.08L61.42 182.54ZM70.96 179.86C69.56 182.12 66.92 184.22 64.26 185.4C64.56 185.66 64.96 186.08 65.18 186.4C67.96 185.06 70.62 182.84 72.18 180.32L70.96 179.86ZM85.78 173.24H89.48C89.08 175.84 88.52 178.02 87.62 179.86C86.76 177.94 86.16 175.7 85.76 173.32L85.78 173.24ZM92.12 173.24V172H86.18C86.52 170.9 86.78 169.72 87 168.5L85.68 168.3C85.08 171.6 84.06 174.78 82.56 176.86L81.84 176.34L81.6 176.42H78.44C78.98 175.94 79.48 175.4 79.96 174.86H83.52V173.68H80.9C81.92 172.3 82.78 170.8 83.48 169.12L82.24 168.76C81.5 170.56 80.52 172.22 79.32 173.68H78.68V171.6H80.78V170.44H78.68V168.28H77.44V170.44H74.74V171.6H77.44V173.68H73.9V174.86H78.26C76.94 176.18 75.44 177.32 73.78 178.18C74.06 178.42 74.54 178.94 74.74 179.18C75.6 178.7 76.42 178.12 77.2 177.5H80.54C79.86 178.18 78.94 178.88 78.14 179.36V180.76L73.92 181.34L74.12 182.56L78.14 181.96V185.04C78.14 185.28 78.06 185.34 77.8 185.34C77.54 185.36 76.68 185.38 75.66 185.34C75.84 185.7 76.02 186.16 76.08 186.52C77.36 186.52 78.2 186.5 78.74 186.3C79.24 186.1 79.4 185.78 79.4 185.06V181.78L83.42 181.2L83.4 180.04C82.06 180.24 80.7 180.42 79.4 180.6V179.7C80.48 178.98 81.64 178.04 82.48 177.08C82.8 177.3 83.3 177.72 83.52 177.94C84.04 177.22 84.52 176.36 84.94 175.4C85.4 177.56 86.02 179.54 86.82 181.24C85.68 183 84.1 184.38 81.98 185.4C82.26 185.68 82.66 186.26 82.8 186.58C84.8 185.52 86.34 184.2 87.54 182.56C88.54 184.22 89.76 185.56 91.34 186.48C91.54 186.1 91.96 185.62 92.28 185.34C90.64 184.48 89.36 183.08 88.34 181.3C89.58 179.14 90.34 176.5 90.84 173.24H92.12ZM105.26 171C104.9 170.7 104.38 170.34 103.82 170C104.26 169.6 104.64 169.2 104.96 168.76L104 168.5C103.72 168.84 103.38 169.2 103.02 169.54C102.5 169.26 101.98 168.98 101.48 168.76L100.82 169.38C101.28 169.58 101.78 169.84 102.26 170.14C101.7 170.54 101.08 170.88 100.44 171.2C100.68 171.36 101.08 171.68 101.22 171.86C101.84 171.54 102.48 171.1 103.1 170.62C103.68 170.98 104.22 171.36 104.56 171.68L105.26 171ZM105.32 174.56C104.94 174.2 104.4 173.8 103.82 173.42C104.28 173 104.68 172.58 105.02 172.12L104.06 171.82C103.78 172.2 103.4 172.58 103.02 172.92C102.48 172.62 101.96 172.32 101.44 172.08L100.76 172.7C101.24 172.92 101.76 173.2 102.26 173.52C101.66 173.94 100.98 174.34 100.32 174.66C100.54 174.82 100.94 175.2 101.08 175.38C101.74 175.02 102.44 174.56 103.1 174.04C103.7 174.46 104.24 174.86 104.58 175.22L105.32 174.56ZM95.86 176.46H110.18V178.96H111.48V175.4H109.9C110.08 173.64 110.26 171.06 110.36 169.08H105.78V170.02H109.06L108.98 171.16H105.88V172.12H108.92L108.82 173.28H105.76V174.22H108.74C108.7 174.64 108.66 175.02 108.62 175.4H97.46L97.38 174.22H100.24V173.28H97.32L97.24 172.12H100.14V171.16H97.18L97.1 170.12C98.14 169.92 99.36 169.66 100.26 169.34L99.64 168.5C98.66 168.78 96.96 169.26 95.8 169.46L96.2 175.4H94.6V178.96H95.86V176.46ZM111.92 181.42H103.82V180.98C105.44 180.36 107.2 179.44 108.42 178.48L107.62 177.82L107.34 177.9H97.82V178.92H105.9C104.92 179.54 103.66 180.12 102.54 180.5V181.42H94.12V182.56H102.54V185C102.54 185.28 102.44 185.34 102.12 185.36C101.82 185.38 100.7 185.38 99.42 185.34C99.6 185.68 99.82 186.1 99.88 186.46C101.48 186.46 102.46 186.46 103.08 186.28C103.66 186.08 103.82 185.76 103.82 185.04V182.56H111.92V181.42ZM61.76 199.42V198.06H53.42C53.72 195.92 53.74 193.92 53.76 192.32H52.36C52.34 193.88 52.36 195.9 52.04 198.06H44.32V199.42H51.8C50.98 203.26 48.98 207.22 43.96 209.4C44.3 209.68 44.74 210.14 44.96 210.5C49.94 208.22 52.08 204.22 53.02 200.26C54.56 204.94 57.18 208.64 61.08 210.48C61.32 210.08 61.74 209.54 62.06 209.24C58.2 207.62 55.56 203.92 54.14 199.42H61.76ZM80.16 196.34H78.18V194.88H80.16V196.34ZM80.16 198.74H78.18V197.22H80.16V198.74ZM72.48 197.22H74.4V198.74H72.48V197.22ZM72.48 194.88H74.4V196.34H72.48V194.88ZM77.22 197.22V198.74H75.36V197.22H77.22ZM75.36 196.34V194.88H77.22V196.34H75.36ZM81.32 193.96H78.32V192.3H77.22V193.96H75.36V192.3H74.26V193.96H71.36V199.66H81.32V193.96ZM81.92 200.68H70.7V201.72H81.92V200.68ZM73.12 203.72H79.5V205.56H73.12V203.72ZM80.68 206.5V202.8H71.98V206.5H80.68ZM68.34 194.88C68 194.2 67.32 193.14 66.62 192.38L65.64 193.02C66.3 193.78 67 194.86 67.32 195.58L68.34 194.88ZM70.62 203.32C70.26 202.86 68.82 201.22 68.16 200.46C69.06 199.16 69.86 197.68 70.4 196.18L69.68 195.68L69.44 195.74H64.14V196.96H68.8C67.68 199.46 65.66 201.96 63.74 203.34C63.94 203.58 64.26 204.22 64.36 204.6C65.16 203.98 65.96 203.22 66.72 202.32V210.5H67.94V201.92C68.6 202.78 69.42 203.84 69.78 204.4L70.62 203.32ZM78.56 209.04C78.9 208.44 79.28 207.74 79.66 207.04L78.44 206.7C78.22 207.36 77.8 208.34 77.42 209.04H75.18C74.98 208.4 74.6 207.46 74.24 206.74L73.2 207.04C73.48 207.66 73.78 208.42 73.98 209.04H70.22V210.1H82.12V209.04H78.56ZM99 196.26C98.82 202 98.6 204.04 98.2 204.54C98.02 204.76 97.84 204.8 97.52 204.8C97.2 204.8 96.36 204.8 95.46 204.72C95.66 205.06 95.78 205.6 95.82 205.98C96.74 206.04 97.62 206.04 98.14 206C98.66 205.94 99.04 205.8 99.38 205.38C99.92 204.66 100.14 202.36 100.36 195.64C100.38 195.46 100.38 194.98 100.38 194.98H89.2C89.66 194.2 90.08 193.4 90.46 192.56L89.12 192.18C87.96 194.92 85.98 197.5 83.8 199.12C84.12 199.36 84.66 199.86 84.9 200.08C86.12 199.08 87.32 197.78 88.38 196.26H99ZM93.76 199.64V203.04H88.28V199.64H93.76ZM90.8 208.82C88.66 208.82 88.28 208.54 88.28 207.46V204.26H95.04V198.44H86.96V207.46C86.96 209.56 87.88 210.08 90.9 210.08H98.64C101.3 210.08 101.86 209.34 102.12 206.74C101.76 206.68 101.18 206.48 100.86 206.26C100.66 208.36 100.36 208.82 98.64 208.82H90.8Z" fill="black"/>
<path d="M18.0789 236.325L21.3789 231.585C21.6789 231.105 21.9789 230.61 22.2339 230.145H22.3089C22.2639 230.61 22.2339 231.39 22.2339 231.84V236.325H18.0789ZM22.2339 240H22.7589V236.805H24.3789V236.325H22.7589V229.11H22.3839L17.3589 236.52V236.805H22.2339V240ZM31.1211 235.8C30.8061 235.425 29.4261 234.03 28.9611 233.61V232.215H31.1361V231.78H28.9611V228.795C29.7411 228.615 30.4611 228.39 31.0011 228.165L30.6261 227.82C29.5761 228.315 27.4761 228.735 25.7661 229.02C25.8261 229.14 25.9011 229.275 25.9311 229.38C26.7561 229.26 27.6561 229.095 28.5111 228.9V231.78H25.7661V232.215H28.4361C27.7911 234.21 26.5311 236.52 25.4661 237.66C25.5711 237.735 25.7211 237.9 25.7811 238.005C26.7261 236.94 27.8061 234.975 28.5111 233.145V241.005H28.9611V234.075C29.5611 234.675 30.5061 235.755 30.8061 236.16L31.1211 235.8ZM31.9461 236.205V234.555H34.8411V236.205H31.9461ZM31.9461 232.5H34.8411V234.12H31.9461V232.5ZM38.2161 232.5V234.12H35.2761V232.5H38.2161ZM38.2161 236.205H35.2761V234.555H38.2161V236.205ZM35.2761 240.24V238.56H38.8011V238.11H35.2761V236.64H38.6511V232.065H35.2761V230.655H39.0111V230.205H35.2761V228.735C36.7011 228.585 38.0361 228.39 38.9661 228.15L38.6361 227.79C37.0011 228.225 33.6711 228.51 31.1211 228.63C31.1661 228.75 31.2411 228.915 31.2561 229.02C32.3811 228.975 33.6261 228.9 34.8411 228.78V230.205H30.7311V230.655H34.8411V232.065H31.4961V236.64H34.8411V238.11H31.2561V238.56H34.8411V240.24H30.3861V240.675H39.2661V240.24H35.2761ZM44.6211 236.1V233.115H47.0661V236.1H44.6211ZM49.9761 233.115V236.1H47.5011V233.115H49.9761ZM49.1511 237.39C49.5861 237.855 50.0361 238.425 50.3961 238.98L47.5011 239.16V236.535H50.4111V232.68H47.5011V230.79H50.8911V230.355H43.8111V230.79H47.0661V232.68H44.1861V236.535H47.0661V239.175C45.4911 239.28 44.0811 239.37 43.0161 239.415L43.0611 239.865C44.9661 239.76 47.8611 239.565 50.6661 239.385C50.9361 239.865 51.1761 240.315 51.3111 240.705L51.7011 240.51C51.3861 239.565 50.4561 238.2 49.5261 237.21L49.1511 237.39ZM42.5061 228.57V233.01C42.5061 235.38 42.3261 238.515 40.6311 240.795C40.7211 240.855 40.9011 240.975 40.9611 241.08C42.7161 238.725 42.9411 235.44 42.9411 233.01V229.005H51.8511C51.9711 235.77 51.9411 241.065 53.4111 241.065C54.0111 241.05 54.1161 240.375 54.1761 238.305C54.0711 238.275 53.9061 238.2 53.8161 238.11C53.7861 239.535 53.6961 240.645 53.4561 240.645C52.3761 240.645 52.3161 233.895 52.2711 228.57H42.5061ZM60.7761 234.825C60.4761 234.405 59.2161 232.845 58.7511 232.335V231.33H60.9711V230.88H58.7511V227.535H58.3161V230.88H55.7961V231.33H58.2111C57.6711 233.67 56.5011 236.34 55.4361 237.69C55.5561 237.765 55.7061 237.93 55.7811 238.05C56.7111 236.835 57.7011 234.585 58.3161 232.5V241.02H58.7511V232.965C59.3061 233.655 60.1161 234.765 60.4011 235.2L60.7761 234.825ZM67.5711 236.115V239.835H62.3511V236.115H67.5711ZM61.9161 241.08H62.3511V240.27H67.5711V241.02H68.0061V235.68H61.9161V241.08ZM67.3161 229.62C66.7911 230.88 65.9961 231.975 65.0361 232.905C64.1211 231.99 63.4311 231 62.9811 230.025C63.0711 229.89 63.1611 229.755 63.2361 229.62H67.3161ZM67.6461 229.155L67.5411 229.185H63.4911C63.7761 228.69 64.0311 228.165 64.2411 227.625L63.7911 227.52C63.0711 229.365 61.8561 231.075 60.4611 232.185C60.5811 232.26 60.7761 232.41 60.8511 232.485C61.5111 231.93 62.1411 231.225 62.7111 230.415C63.1761 231.345 63.8361 232.305 64.7361 233.19C63.3261 234.465 61.6461 235.38 60.0561 235.89C60.1611 235.98 60.2811 236.145 60.3411 236.265C61.9311 235.71 63.6111 234.78 65.0361 233.49C66.1161 234.48 67.4961 235.365 69.1461 235.935C69.2211 235.83 69.3411 235.65 69.4311 235.56C67.7961 235.035 66.4311 234.18 65.3511 233.19C66.4311 232.125 67.3461 230.835 67.9161 229.305L67.6461 229.155ZM77.7111 236.25L74.4261 236.835V235.89C75.3261 235.395 76.3611 234.6 77.0361 233.805L76.7061 233.595L76.6161 233.625H73.4661C73.9611 233.175 74.4261 232.68 74.8761 232.17H77.8611V231.735H75.2361C76.0911 230.625 76.8261 229.395 77.4111 228.015L76.9761 227.88C76.3911 229.305 75.6111 230.61 74.6661 231.735H74.0211V229.77H75.7611V229.335H74.0211V227.535H73.5861V229.335H71.3211V229.77H73.5861V231.735H70.6461V232.17H74.2911C73.2261 233.355 71.9961 234.345 70.6311 235.11C70.7511 235.2 70.9461 235.35 71.0211 235.44C71.7111 235.035 72.3561 234.57 72.9711 234.06H76.2111C75.6111 234.645 74.7711 235.29 73.9911 235.695V236.91C72.7311 237.12 71.5911 237.315 70.7211 237.465L70.8261 237.915C71.6961 237.765 72.8061 237.57 73.9911 237.345V240.405C73.9911 240.585 73.9461 240.63 73.7361 240.645C73.5261 240.66 72.8961 240.675 71.9961 240.645C72.0861 240.795 72.1461 240.945 72.1761 241.08C73.1511 241.08 73.7511 241.08 74.0511 240.99C74.3361 240.9 74.4261 240.765 74.4261 240.405V237.27C75.5061 237.075 76.6311 236.88 77.7411 236.685L77.7111 236.25ZM82.6911 230.835C82.3011 233.205 81.7461 235.155 80.8611 236.745C80.0661 235.095 79.5261 233.115 79.1811 230.985C79.1961 230.94 79.1961 230.88 79.2111 230.835H82.6911ZM84.1911 230.835V230.4H79.3611C79.6311 229.515 79.8711 228.585 80.0511 227.625L79.6011 227.55C79.1211 230.085 78.3111 232.53 77.1411 234.12C77.2611 234.18 77.4711 234.315 77.5611 234.39C78.0561 233.64 78.5061 232.74 78.8961 231.75C79.2711 233.775 79.8411 235.635 80.6061 237.195C79.6611 238.695 78.4011 239.865 76.6761 240.72C76.7811 240.81 76.9311 240.99 76.9911 241.095C78.6411 240.21 79.9011 239.085 80.8311 237.66C81.6261 239.13 82.6461 240.285 83.9211 241.02C83.9961 240.885 84.1461 240.75 84.2661 240.66C82.9461 239.955 81.9111 238.755 81.1011 237.225C82.1211 235.53 82.7361 233.43 83.1561 230.835H84.1911ZM94.0611 229.71C93.7611 229.455 93.2961 229.14 92.7861 228.855C93.1311 228.525 93.4461 228.195 93.7161 227.85L93.2811 227.745C93.0561 228.045 92.7561 228.36 92.4411 228.645C91.9911 228.405 91.5261 228.18 91.1061 228L90.8061 228.315C91.2111 228.48 91.6611 228.705 92.0811 228.915C91.6011 229.305 91.0761 229.62 90.5511 229.905C90.6711 229.98 90.8511 230.145 90.9111 230.22C91.4211 229.92 91.9461 229.545 92.4561 229.14C92.9811 229.455 93.4461 229.77 93.7761 230.07L94.0611 229.71ZM94.0611 232.35C93.7611 232.065 93.3111 231.72 92.8011 231.405C93.1611 231.075 93.5061 230.745 93.7761 230.385L93.3411 230.25C93.1011 230.58 92.8011 230.895 92.4561 231.18C92.0061 230.925 91.5261 230.685 91.0911 230.475L90.7911 230.775C91.2111 230.955 91.6761 231.21 92.0961 231.48C91.6011 231.855 91.0311 232.215 90.4761 232.485C90.5961 232.56 90.7761 232.725 90.8361 232.8C91.3611 232.5 91.9461 232.125 92.4711 231.69C92.9811 232.035 93.4461 232.38 93.7611 232.695L94.0611 232.35ZM86.6661 233.325H98.2161V235.305H98.6511V232.89H97.4211C97.5711 231.615 97.6911 229.635 97.7811 228.195H94.5561V228.63H97.3311C97.3161 228.975 97.3011 229.365 97.2711 229.74H94.6161V230.175H97.2411C97.2111 230.565 97.1811 230.925 97.1511 231.3H94.5261V231.735H97.0911C97.0611 232.155 97.0161 232.545 96.9861 232.89H87.9261L87.8511 231.735H90.2661V231.3H87.8211L87.7461 230.175H90.1611V229.74H87.7311L87.6561 228.675C88.4811 228.54 89.5161 228.375 90.2361 228.09L89.9811 227.745C89.2611 227.925 88.0161 228.255 87.1761 228.39L87.4911 232.89H86.2311V235.305H86.6661V233.325ZM99.0561 237.465H92.7411V236.82C94.0311 236.415 95.5461 235.725 96.5211 234.945L96.2061 234.72L96.1011 234.75H88.4811V235.185H95.5011C94.6461 235.725 93.4011 236.265 92.3211 236.565V237.465H85.8411V237.915H92.3211V240.345C92.3211 240.555 92.2611 240.615 92.0061 240.63C91.7811 240.645 90.9711 240.645 89.8461 240.615C89.9211 240.75 90.0111 240.885 90.0411 241.005C91.3011 241.005 91.9911 241.02 92.3361 240.93C92.6511 240.84 92.7411 240.705 92.7411 240.345V237.915H99.0561V237.465ZM112.886 227.895C111.971 229.095 110.351 230.43 108.986 231.21C109.121 231.285 109.241 231.42 109.346 231.525C110.696 230.715 112.316 229.35 113.306 228.075L112.886 227.895ZM113.516 231.915C112.466 233.25 110.606 234.63 108.971 235.425C109.091 235.515 109.211 235.635 109.301 235.74C110.951 234.915 112.826 233.49 113.921 232.095L113.516 231.915ZM107.636 229.77H102.236V228.525H107.636V229.77ZM107.636 231.495H102.236V230.205H107.636V231.495ZM108.071 228.09H101.801V231.93H108.071V228.09ZM108.596 233.175H105.146C104.981 232.83 104.741 232.395 104.531 232.095L104.156 232.245C104.321 232.515 104.531 232.86 104.681 233.175H100.991V233.61H108.596V233.175ZM102.506 237.885C102.146 238.71 101.576 239.49 100.916 240.075C101.036 240.135 101.231 240.285 101.306 240.345C101.936 239.76 102.566 238.86 102.941 237.99L102.506 237.885ZM102.251 235.08H107.516V236.82H102.251V235.08ZM107.951 237.255V234.645H101.816V237.255H104.666V240.3C104.666 240.435 104.636 240.495 104.441 240.495C104.261 240.51 103.721 240.51 102.926 240.495C103.016 240.63 103.091 240.78 103.121 240.915C103.991 240.915 104.501 240.915 104.771 240.825C105.026 240.735 105.101 240.615 105.101 240.285V237.255H107.951ZM106.391 238.05C106.976 238.68 107.606 239.55 107.906 240.09L108.266 239.85C107.966 239.31 107.321 238.47 106.751 237.84L106.391 238.05ZM113.861 236.385C112.721 238.11 110.561 239.775 108.386 240.69C108.491 240.75 108.626 240.9 108.716 241.005C110.906 240.075 113.066 238.365 114.251 236.565L113.861 236.385ZM118.631 234.9C118.676 234.18 118.691 233.46 118.691 232.725V232.02H125.561V227.565H125.126V231.585H118.691V227.61H118.256V232.725C118.256 235.605 118.046 238.5 116.081 240.825C116.201 240.885 116.351 241.005 116.411 241.11C117.866 239.385 118.406 237.42 118.586 235.335H125.711V241.065H126.146V234.9H118.631ZM21.0639 258.195C22.9389 258.195 24.2139 256.98 24.2139 255.465C24.2139 253.98 23.2689 253.2 22.3689 252.645V252.57C22.9539 252.075 23.8689 251.025 23.8689 249.81C23.8689 248.205 22.8489 246.975 21.0639 246.975C19.5639 246.975 18.3789 248.07 18.3789 249.615C18.3789 250.755 19.1289 251.565 19.8939 252.06V252.12C18.9039 252.66 17.7489 253.77 17.7489 255.3C17.7489 256.95 19.1289 258.195 21.0639 258.195ZM21.8589 252.405C20.4339 251.85 18.9339 251.205 18.9339 249.615C18.9339 248.385 19.8039 247.455 21.0639 247.455C22.5039 247.455 23.3289 248.55 23.3289 249.81C23.3289 250.785 22.8039 251.655 21.8589 252.405ZM21.0639 257.7C19.4589 257.7 18.3039 256.635 18.3039 255.3C18.3039 254.025 19.1289 253.035 20.2989 252.375C21.9789 253.035 23.6439 253.665 23.6439 255.465C23.6439 256.695 22.6389 257.7 21.0639 257.7ZM38.3811 248.715C38.1411 249.765 37.7661 251.025 37.3911 251.79L37.7661 251.91C38.2011 251.055 38.6211 249.585 38.9211 248.385L38.6361 248.25L38.5461 248.28H34.0761C34.2861 247.41 34.4511 246.525 34.6011 245.595L34.1661 245.535C33.8211 247.92 33.2511 250.215 32.2911 251.745C32.4111 251.805 32.6211 251.91 32.7111 251.97C33.2211 251.07 33.6261 249.96 33.9711 248.715H38.3811ZM28.9761 249.465H26.1261V249.9H32.3511V249.465H29.4111V247.635H32.6211V247.2H29.4111V245.55H28.9761V247.2H25.7961V247.635H28.9761V249.465ZM32.0661 251.88V251.445H26.3811V251.88H32.0661ZM27.2211 254.7C26.8011 255.765 26.2011 256.95 25.6161 257.805C25.7211 257.865 25.9161 257.985 26.0061 258.045C26.5461 257.19 27.1761 255.915 27.6561 254.82L27.2211 254.7ZM32.7411 253.935V253.5H25.6611V253.935H28.9761V259.065H29.4111V253.935H32.7411ZM30.7311 254.88C31.2261 255.66 31.7811 256.71 32.0511 257.325L32.4411 257.1C32.1561 256.5 31.5861 255.48 31.1061 254.715L30.7311 254.88ZM35.8011 249.945H35.3661V250.635C35.3661 252.915 35.1861 256.155 32.3061 258.765C32.4261 258.825 32.5761 258.945 32.6661 259.05C34.6161 257.25 35.3661 255.18 35.6361 253.29C36.2361 255.87 37.3311 258.045 38.9961 259.065C39.0711 258.945 39.2061 258.795 39.3111 258.705C37.4511 257.685 36.2961 255.03 35.7711 252.03C35.8011 251.535 35.8011 251.07 35.8011 250.635V249.945ZM53.9511 250.56V250.125H47.3961C47.6811 248.355 47.6961 246.72 47.7111 245.565H47.2761C47.2761 246.69 47.2611 248.34 46.9461 250.125H40.9311V250.56H46.8861C46.2561 253.635 44.6961 257.01 40.6461 258.72C40.7511 258.795 40.9161 258.96 40.9911 259.05C45.1311 257.25 46.7061 253.755 47.3211 250.56H47.4711C48.5811 254.43 50.7561 257.58 53.7861 259.035C53.8761 258.915 53.9961 258.75 54.1161 258.645C51.1461 257.34 49.0011 254.265 47.9211 250.56H53.9511ZM60.1911 253.845V257.16H56.6811V253.845H60.1911ZM60.0561 248.265V251.16H56.6811V248.265H60.0561ZM56.6811 251.61H60.5061V247.83H57.9411C58.2561 247.2 58.5711 246.375 58.8261 245.7L58.3611 245.535C58.1661 246.195 57.8061 247.155 57.4911 247.83H56.2311V258.675H56.6811V257.595H60.6261V253.41H56.6811V251.61ZM69.1461 246.855V246.42H61.2711V246.855H64.9461V249.21H61.9011V256.875H62.3361V249.645H64.9461V259.035H65.3811V249.645H68.2011V256.08C68.2011 256.245 68.1561 256.305 67.9611 256.305C67.7961 256.32 67.2111 256.32 66.4611 256.305C66.5361 256.44 66.6261 256.62 66.6561 256.74C67.5261 256.74 68.0211 256.74 68.2911 256.65C68.5761 256.575 68.6511 256.41 68.6511 256.08V249.21H65.3811V246.855H69.1461ZM76.7961 253.515C76.4211 253.02 74.8011 251.07 74.2461 250.47V250.23H76.9161V249.795H74.2461V246.915C75.1461 246.69 75.9711 246.465 76.5861 246.18L76.2111 245.835C75.0711 246.375 72.7611 246.855 70.9161 247.17C70.9761 247.275 71.0511 247.425 71.0811 247.53C71.9511 247.395 72.8961 247.23 73.8111 247.02V249.795H70.9011V250.23H73.7211C72.9861 252.24 71.5761 254.52 70.4061 255.675C70.5111 255.735 70.6311 255.9 70.7061 256.005C71.7711 254.94 73.0161 252.9 73.8111 251.025V259.02H74.2461V250.995C74.9211 251.805 76.1061 253.335 76.4661 253.875L76.7961 253.515ZM84.0561 258.225C83.5311 256.635 82.3161 253.86 81.2061 251.745L80.8011 251.895C81.5361 253.305 82.3161 255.03 82.9011 256.5L77.0661 257.355C78.3711 254.22 79.5261 249.81 80.2611 246L79.7961 245.925C79.1361 249.75 77.7561 254.115 77.3511 255.24C76.9161 256.47 76.5411 257.475 76.2861 257.55C76.3461 257.685 76.4361 257.91 76.4661 258.03C76.7811 257.865 77.2761 257.775 83.0661 256.875C83.2911 257.46 83.4711 257.97 83.6211 258.42L84.0561 258.225ZM94.6011 248.595H95.0361V247.185H99.0411V246.75H95.0361V245.565H94.6011V246.75H92.7561V247.185H94.6011V248.595ZM96.2811 247.86C96.8961 248.205 97.6011 248.73 97.9461 249.12L98.2461 248.835C97.9011 248.43 97.1811 247.92 96.5811 247.62L96.2811 247.86ZM89.5311 248.58H89.9661V247.185H91.8261V246.75H89.9661V245.55H89.5311V246.75H85.9311V247.185H89.5311V248.58ZM92.1561 251.325V252.72H90.4611V251.325H92.1561ZM94.1361 254.91H90.4611V253.155H94.1361V254.91ZM92.1561 256.74H90.4611V255.345H92.1561V256.74ZM94.7661 257.175V256.74H92.5911V255.345H94.5711V252.72H92.5911V251.325H94.6161V250.89H90.0261V257.16H90.2361V257.175H94.7661ZM97.6311 250.92C97.3311 252.39 96.9261 253.71 96.3711 254.895C96.1461 253.545 95.9511 251.79 95.8761 249.585H99.1161V249.15H95.8611C95.8461 248.805 95.8311 248.43 95.8311 248.07H95.3961C95.4111 248.43 95.4261 248.805 95.4411 249.15H88.5561V252H86.8461V249.135H86.4111V252.435H88.5561V252.945C88.5561 253.29 88.5561 253.635 88.5411 254.01H85.6911V254.445H86.6361V255.45C86.6361 256.455 86.4861 257.775 85.6161 258.81C85.7361 258.885 85.8861 258.99 85.9911 259.08C86.8911 257.985 87.0711 256.56 87.0711 255.465V254.445H88.5111C88.4361 255.915 88.1661 257.55 87.4461 258.84C87.5511 258.885 87.7461 259.005 87.8211 259.095C88.8261 257.31 88.9911 254.775 88.9911 252.945V249.585H95.4561C95.5761 252.045 95.7861 254.01 96.0861 255.495C95.3961 256.815 94.4811 257.925 93.3561 258.78C93.4611 258.855 93.6561 258.99 93.7311 259.08C94.7361 258.27 95.5611 257.295 96.2361 256.11C96.7161 258.135 97.3911 259.095 98.2011 259.095C98.8011 259.095 99.0411 258.765 99.1611 257.01C99.0411 256.965 98.8761 256.875 98.7561 256.785C98.6811 258.285 98.5311 258.645 98.2161 258.66C97.6011 258.66 96.9861 257.7 96.5211 255.585C97.2111 254.265 97.7061 252.735 98.0811 250.98L97.6311 250.92ZM104.021 247.395C103.481 246.96 102.446 246.255 101.636 245.76L101.366 246.045C102.191 246.555 103.211 247.29 103.751 247.74L104.021 247.395ZM103.481 251.265C102.896 250.875 101.771 250.245 100.886 249.795L100.646 250.11C101.531 250.56 102.641 251.235 103.226 251.655L103.481 251.265ZM103.196 253.8C102.566 255.42 101.636 257.415 100.991 258.57L101.396 258.84C102.086 257.55 102.956 255.585 103.556 254.055L103.196 253.8ZM105.281 248.55H108.251V249.33L105.986 249.525L106.031 249.945L108.251 249.75V250.29C108.251 251.025 108.431 251.25 109.091 251.25H111.611C112.001 251.25 112.376 251.235 112.556 251.19C112.541 251.1 112.511 250.905 112.481 250.77C112.256 250.815 111.851 250.815 111.596 250.815H109.091C108.746 250.815 108.686 250.71 108.686 250.305V249.705L111.806 249.435L111.761 249L108.686 249.27V248.55H113.426C113.306 249.03 113.156 249.54 113.021 249.885L113.411 249.99C113.591 249.54 113.786 248.805 113.966 248.205L113.696 248.085L113.591 248.115H108.701V247.02H112.946V246.585H108.701V245.535H108.266V248.115H104.846V251.235C104.846 253.41 104.681 256.455 103.316 258.72C103.436 258.765 103.616 258.9 103.691 258.99C105.071 256.665 105.281 253.47 105.281 251.235V248.55ZM112.241 253.635H109.706V252.525H112.241V253.635ZM112.241 255.21H109.706V254.07H112.241V255.21ZM106.841 254.07H109.271V255.21H106.841V254.07ZM106.841 252.525H109.271V253.635H106.841V252.525ZM112.676 252.09H106.406V255.645H112.676V252.09ZM110.651 256.8C110.246 256.425 109.466 255.975 108.746 255.72L108.491 256.035C109.196 256.32 109.991 256.785 110.396 257.19L110.651 256.8ZM105.281 258.72C106.046 258.195 106.481 257.265 106.706 256.455L106.346 256.305C106.106 257.1 105.671 257.97 104.981 258.405L105.281 258.72ZM108.776 258.39C108.191 258.39 108.086 258.33 108.086 258.06V256.44H107.651V258.045C107.651 258.675 107.876 258.78 108.776 258.78H111.041C111.716 258.78 111.866 258.525 111.911 257.4C111.776 257.355 111.626 257.31 111.521 257.235C111.476 258.255 111.401 258.39 110.966 258.39H108.776ZM111.911 256.47C112.661 257.04 113.456 257.88 113.801 258.48L114.131 258.195C113.786 257.58 112.991 256.755 112.241 256.2L111.911 256.47ZM121.121 250.02H129.206V249.585H126.581C126.851 249.075 127.151 248.4 127.391 247.815L126.941 247.635C126.761 248.19 126.416 249.03 126.116 249.585H124.211C124.076 249.03 123.746 248.205 123.431 247.575L123.026 247.68C123.311 248.28 123.596 249.03 123.731 249.585H121.121V250.02ZM128.876 246.855H125.696C125.456 246.45 125.066 245.91 124.676 245.505L124.316 245.67C124.616 246.015 124.946 246.465 125.171 246.855H121.586V247.29H128.876V246.855ZM121.496 248.535C120.866 247.815 119.861 247.005 118.811 246.36C118.961 246.12 119.081 245.88 119.201 245.655L118.751 245.49C118.016 247.05 116.726 248.505 115.466 249.465C115.571 249.57 115.751 249.78 115.796 249.87C116.786 249.075 117.821 247.95 118.601 246.705C119.576 247.38 120.596 248.205 121.211 248.925L121.496 248.535ZM121.376 256.785C120.521 256.98 119.666 257.16 118.856 257.34V252.225H121.271V251.79H118.856V249.675H120.761V249.24H116.651V249.675H118.421V251.79H115.781V252.225H118.421V257.43C117.371 257.655 116.426 257.85 115.661 258L115.781 258.465C117.311 258.12 119.381 257.655 121.406 257.175L121.376 256.785ZM116.306 253.365C116.651 254.34 116.906 255.6 116.936 256.44L117.386 256.35C117.341 255.525 117.086 254.25 116.711 253.26L116.306 253.365ZM120.131 256.23C120.416 255.45 120.716 254.22 120.941 253.245L120.476 253.11C120.326 253.995 120.011 255.315 119.741 256.095L120.131 256.23ZM122.456 253.305H127.946V254.685H122.456V253.305ZM122.456 251.535H127.946V252.87H122.456V251.535ZM126.986 258.6C126.761 258.6 126.596 258.585 126.491 258.54C126.356 258.48 126.326 258.315 126.326 258.015V255.12H128.381V251.1H122.021V255.12H123.701C123.551 257.475 122.831 258.27 120.131 258.75C120.236 258.825 120.371 259.02 120.416 259.125C123.191 258.6 123.971 257.685 124.136 255.12H125.891V257.85C125.891 258.555 125.951 258.72 126.161 258.84C126.356 258.945 126.701 258.99 126.971 258.99H127.886C128.156 258.99 128.501 258.96 128.681 258.9C128.876 258.825 129.026 258.72 129.101 258.48C129.176 258.27 129.221 257.595 129.236 256.98C129.086 256.935 128.936 256.86 128.816 256.77C128.801 257.445 128.786 257.94 128.741 258.18C128.696 258.36 128.576 258.495 128.456 258.54C128.351 258.585 128.081 258.6 127.841 258.6H126.986Z" fill="black"/>
<g clip-path="url(#clip0_234_2964)">
<path d="M73.64 146.14C113.681 146.14 146.14 113.68 146.14 73.6396C146.14 33.599 113.681 1.13965 73.64 1.13965C33.5994 1.13965 1.14001 33.599 1.14001 73.6396C1.14001 113.68 33.5994 146.14 73.64 146.14Z" stroke="#4C4948" stroke-width="2.29" stroke-miterlimit="10"/>
<path d="M73.64 140.92C110.798 140.92 140.92 110.798 140.92 73.6404C140.92 36.4826 110.798 6.36035 73.64 6.36035C36.4823 6.36035 6.35999 36.4826 6.35999 73.6404C6.35999 110.798 36.4823 140.92 73.64 140.92Z" stroke="#4C4948" stroke-width="2.29" stroke-miterlimit="10"/>
<path d="M91.38 30.8203H55.91L30.82 55.9103V91.3803L55.91 116.47H91.38L116.47 91.3803V55.9103L91.38 30.8203Z" stroke="#4C4948" stroke-width="2.29" stroke-miterlimit="10"/>
<path d="M30.82 55.9103L79.85 7.03027" stroke="#4C4948" stroke-width="2.29" stroke-miterlimit="10"/>
<path d="M67.39 140.25L116.41 91.3701" stroke="#4C4948" stroke-width="2.29" stroke-miterlimit="10"/>
<path d="M55.28 116.1L6.26001 67.2197" stroke="#4C4948" stroke-width="2.29" stroke-miterlimit="10"/>
<path d="M140.45 79.7098L91.42 30.8398" stroke="#4C4948" stroke-width="2.29" stroke-miterlimit="10"/>
<path d="M30.82 91.3804V21.6504" stroke="#4C4948" stroke-width="2.29" stroke-miterlimit="10"/>
<path d="M116.56 125.61V55.8799" stroke="#4C4948" stroke-width="2.29" stroke-miterlimit="10"/>
<path d="M21.71 116.62H91.44" stroke="#4C4948" stroke-width="2.29" stroke-miterlimit="10"/>
<path d="M55.94 30.8203H125.66" stroke="#4C4948" stroke-width="2.29" stroke-miterlimit="10"/>
</g>
<g clip-path="url(#clip1_234_2964)">
<path d="M56.9 49H90.26C92.3552 49 94.3646 49.8323 95.8461 51.3139C97.3277 52.7954 98.16 54.8048 98.16 56.9V90.27C98.1573 92.3644 97.3242 94.3723 95.8432 95.8532C94.3623 97.3342 92.3544 98.1674 90.26 98.17H56.9C54.8056 98.1674 52.7977 97.3342 51.3168 95.8532C49.8358 94.3723 49.0026 92.3644 49 90.27V56.9C49.0026 54.8056 49.8358 52.7978 51.3168 51.3168C52.7977 49.8358 54.8056 49.0026 56.9 49ZM56.9 47C54.2752 47.0026 51.7586 48.0465 49.9026 49.9026C48.0465 51.7586 47.0026 54.2752 47 56.9V90.27C47.0053 92.894 48.05 95.4091 49.9055 97.2645C51.7609 99.12 54.276 100.165 56.9 100.17H90.26C92.884 100.165 95.3991 99.12 97.2545 97.2645C99.11 95.4091 100.155 92.894 100.16 90.27V56.9C100.16 55.5999 99.9039 54.3126 99.4064 53.1114C98.9089 51.9103 98.1796 50.8189 97.2603 49.8996C96.341 48.9803 95.2497 48.2511 94.0486 47.7536C92.8474 47.2561 91.5601 47 90.26 47H56.9Z" fill="#4C4948"/>
<path d="M65.21 80.9303V61.9303C65.21 61.6003 65.21 61.5703 64.85 61.5703H60.6C60.27 61.5703 60.19 61.6503 60.19 61.9803V84.9803C60.19 85.3803 60.27 85.4703 60.68 85.4703H74.8C75.2 85.4703 75.27 85.4103 75.34 85.0203L75.97 81.2403C75.97 80.9503 75.97 80.8803 75.66 80.8603H65.21V80.9303Z" fill="#4C4948"/>
<path d="M83.34 69.7501V69.4101C83.339 68.8127 83.22 68.2214 82.99 67.6701C82.9534 67.5817 82.8907 67.5066 82.8103 67.4548C82.7299 67.403 82.6356 67.3769 82.54 67.3801C81.23 67.3801 79.91 67.3801 78.59 67.3801C78.39 67.3801 78.31 67.4801 78.33 67.6801C78.35 67.8801 78.39 68.0801 78.4 68.2901C78.4 69.5801 78.51 70.8701 78.51 72.1701C78.51 76.4701 78.51 80.7701 78.51 85.0701C78.51 85.5201 78.51 85.5601 79.01 85.5601H83.01C83.53 85.5601 83.53 85.5601 83.53 85.0401C83.53 81.3501 83.53 77.6701 83.53 73.9801C83.5215 73.8659 83.5428 73.7515 83.5919 73.6481C83.641 73.5446 83.7162 73.4557 83.81 73.3901C84.424 72.9241 85.1241 72.5842 85.87 72.3901C86.9008 72.1041 87.9734 71.9992 89.04 72.0801C89.38 72.0801 89.45 72.0201 89.45 71.6801V67.3701C89.45 67.1801 89.37 67.0501 89.18 67.0601C88.7557 67.0582 88.3316 67.0816 87.91 67.1301C86.5811 67.3475 85.3423 67.9409 84.34 68.8401C84.04 69.0801 83.71 69.4101 83.34 69.7501Z" fill="#4C4948"/>
</g>
<defs>
<clipPath id="clip0_234_2964">
<rect width="147.29" height="147.29" fill="white"/>
</clipPath>
<clipPath id="clip1_234_2964">
<rect width="53.16" height="53.16" fill="white" transform="translate(47 47)"/>
</clipPath>
</defs>
</svg>
