<svg width="149" height="243" viewBox="0 0 149 243" fill="none" xmlns="http://www.w3.org/2000/svg">
<path d="M50.08 171.839C49.74 171.099 48.98 169.979 48.32 169.159L47.3 169.719C47.94 170.579 48.68 171.739 49.02 172.519L50.08 171.839ZM52.46 180.979C52.2 180.679 51.52 179.919 50.82 179.159C51.44 178.619 52.14 177.919 52.76 177.279L51.82 176.519C51.46 177.079 50.78 177.879 50.2 178.479C49.92 178.179 49.68 177.899 49.48 177.679C50.48 176.279 51.36 174.739 51.96 173.199L51.18 172.659L50.92 172.719H45.16V173.939H50.26C49.04 176.539 46.82 179.239 44.8 180.779C45.04 180.999 45.4 181.659 45.54 181.999C46.38 181.319 47.26 180.439 48.1 179.459V187.339H49.46V179.219C50.26 180.179 51.2 181.439 51.62 182.059L52.46 180.979ZM62.36 170.879H52.26V172.159H55.66C55.4 178.839 54.58 183.579 50.92 186.379C51.22 186.599 51.76 187.139 51.94 187.399C55.72 184.219 56.68 179.359 57.02 172.159H61.06C60.78 181.519 60.5 184.919 59.82 185.679C59.58 185.959 59.38 186.019 59 186.019C58.54 186.019 57.42 185.999 56.16 185.899C56.38 186.259 56.52 186.799 56.56 187.179C57.7 187.259 58.82 187.279 59.5 187.219C60.16 187.139 60.58 186.959 61 186.399C61.8 185.399 62.08 181.939 62.36 171.619V170.879ZM76.26 171.859C75.9 171.559 75.38 171.199 74.82 170.859C75.26 170.459 75.64 170.059 75.96 169.619L75 169.359C74.72 169.699 74.38 170.059 74.02 170.399C73.5 170.119 72.98 169.839 72.48 169.619L71.82 170.239C72.28 170.439 72.78 170.699 73.26 170.999C72.7 171.399 72.08 171.739 71.44 172.059C71.68 172.219 72.08 172.539 72.22 172.719C72.84 172.399 73.48 171.959 74.1 171.479C74.68 171.839 75.22 172.219 75.56 172.539L76.26 171.859ZM76.32 175.419C75.94 175.059 75.4 174.659 74.82 174.279C75.28 173.859 75.68 173.439 76.02 172.979L75.06 172.679C74.78 173.059 74.4 173.439 74.02 173.779C73.48 173.479 72.96 173.179 72.44 172.939L71.76 173.559C72.24 173.779 72.76 174.059 73.26 174.379C72.66 174.799 71.98 175.199 71.32 175.519C71.54 175.679 71.94 176.059 72.08 176.239C72.74 175.879 73.44 175.419 74.1 174.899C74.7 175.319 75.24 175.719 75.58 176.079L76.32 175.419ZM66.86 177.319H81.18V179.819H82.48V176.259H80.9C81.08 174.499 81.26 171.919 81.36 169.939H76.78V170.879H80.06L79.98 172.019H76.88V172.979H79.92L79.82 174.139H76.76V175.079H79.74C79.7 175.499 79.66 175.879 79.62 176.259H68.46L68.38 175.079H71.24V174.139H68.32L68.24 172.979H71.14V172.019H68.18L68.1 170.979C69.14 170.779 70.36 170.519 71.26 170.199L70.64 169.359C69.66 169.639 67.96 170.119 66.8 170.319L67.2 176.259H65.6V179.819H66.86V177.319ZM82.92 182.279H74.82V181.839C76.44 181.219 78.2 180.299 79.42 179.339L78.62 178.679L78.34 178.759H68.82V179.779H76.9C75.92 180.399 74.66 180.979 73.54 181.359V182.279H65.12V183.419H73.54V185.859C73.54 186.139 73.44 186.199 73.12 186.219C72.82 186.239 71.7 186.239 70.42 186.199C70.6 186.539 70.82 186.959 70.88 187.319C72.48 187.319 73.46 187.319 74.08 187.139C74.66 186.939 74.82 186.619 74.82 185.899V183.419H82.92V182.279ZM93.4 175.619V172.919H98.06C97.08 173.879 96 174.779 94.86 175.619H93.4ZM99.02 182.239H90.7V180.139H99.02V182.239ZM90.7 185.539V183.319H99.02V185.539H90.7ZM102.84 176.819V175.619H96.86C98.74 174.099 100.48 172.359 101.92 170.479L100.8 169.859C100.08 170.779 99.32 171.679 98.48 172.519V171.739H93.4V169.159H92.1V171.739H86.92V172.919H92.1V175.619H85.16V176.819H93.14C90.56 178.479 87.72 179.859 84.76 180.899C85.02 181.179 85.44 181.719 85.62 181.999C86.9 181.519 88.14 180.959 89.38 180.359V187.359H90.7V186.699H99.02V187.279H100.38V178.999H91.9C93.06 178.319 94.2 177.599 95.3 176.819H102.84ZM46.2 196.959C45.04 195.999 42.86 194.359 41.12 193.219L40.26 194.159C41.96 195.299 44.14 196.999 45.32 198.019L46.2 196.959ZM37.06 199.279C36.68 201.419 35.86 204.159 34.74 205.879L35.96 206.399C37.1 204.639 37.86 201.779 38.3 199.619L37.06 199.279ZM43 209.899C41.86 209.899 41.62 209.699 41.62 208.779V206.439C45.72 203.259 48.92 199.199 51.2 194.879L49.88 194.339C48.02 198.119 45.2 201.779 41.62 204.779V198.059H40.24V205.859C38.56 207.119 36.72 208.219 34.74 209.119C35.02 209.379 35.42 209.839 35.6 210.139C37.24 209.359 38.78 208.439 40.24 207.459V208.739C40.24 210.699 40.86 211.219 42.92 211.219H47.06C49.16 211.219 49.6 210.159 49.82 206.579C49.42 206.479 48.86 206.259 48.5 205.999C48.36 209.219 48.18 209.899 47 209.899H43ZM48.82 200.379C50.18 202.379 51.54 205.079 52.06 206.859L53.32 206.259C52.78 204.499 51.4 201.839 50 199.839L48.82 200.379ZM66.26 195.859C65.9 195.559 65.38 195.199 64.82 194.859C65.26 194.459 65.64 194.059 65.96 193.619L65 193.359C64.72 193.699 64.38 194.059 64.02 194.399C63.5 194.119 62.98 193.839 62.48 193.619L61.82 194.239C62.28 194.439 62.78 194.699 63.26 194.999C62.7 195.399 62.08 195.739 61.44 196.059C61.68 196.219 62.08 196.539 62.22 196.719C62.84 196.399 63.48 195.959 64.1 195.479C64.68 195.839 65.22 196.219 65.56 196.539L66.26 195.859ZM66.32 199.419C65.94 199.059 65.4 198.659 64.82 198.279C65.28 197.859 65.68 197.439 66.02 196.979L65.06 196.679C64.78 197.059 64.4 197.439 64.02 197.779C63.48 197.479 62.96 197.179 62.44 196.939L61.76 197.559C62.24 197.779 62.76 198.059 63.26 198.379C62.66 198.799 61.98 199.199 61.32 199.519C61.54 199.679 61.94 200.059 62.08 200.239C62.74 199.879 63.44 199.419 64.1 198.899C64.7 199.319 65.24 199.719 65.58 200.079L66.32 199.419ZM56.86 201.319H71.18V203.819H72.48V200.259H70.9C71.08 198.499 71.26 195.919 71.36 193.939H66.78V194.879H70.06L69.98 196.019H66.88V196.979H69.92L69.82 198.139H66.76V199.079H69.74C69.7 199.499 69.66 199.879 69.62 200.259H58.46L58.38 199.079H61.24V198.139H58.32L58.24 196.979H61.14V196.019H58.18L58.1 194.979C59.14 194.779 60.36 194.519 61.26 194.199L60.64 193.359C59.66 193.639 57.96 194.119 56.8 194.319L57.2 200.259H55.6V203.819H56.86V201.319ZM72.92 206.279H64.82V205.839C66.44 205.219 68.2 204.299 69.42 203.339L68.62 202.679L68.34 202.759H58.82V203.779H66.9C65.92 204.399 64.66 204.979 63.54 205.359V206.279H55.12V207.419H63.54V209.859C63.54 210.139 63.44 210.199 63.12 210.219C62.82 210.239 61.7 210.239 60.42 210.199C60.6 210.539 60.82 210.959 60.88 211.319C62.48 211.319 63.46 211.319 64.08 211.139C64.66 210.939 64.82 210.619 64.82 209.899V207.419H72.92V206.279ZM79.76 195.639C79.44 194.919 78.78 193.879 78.2 193.079L77.18 193.599C77.72 194.419 78.38 195.539 78.66 196.259L79.76 195.639ZM82.14 196.559H74.9V197.659H82.14V196.559ZM81.48 199.159H75.72V200.219H81.48V199.159ZM75.72 202.819H81.48V201.739H75.72V202.819ZM80.44 209.019H76.88V205.519H80.44V209.019ZM84.12 198.379H86.92V200.599H84.12V198.379ZM84.12 195.099H86.92V197.299H84.12V195.099ZM90.98 197.299H88.1V195.099H90.98V197.299ZM90.98 200.599H88.1V198.379H90.98V200.599ZM92.84 204.659V203.459H88.16V201.699H92.24V193.999H82.92V201.699H86.86V203.459H82.14V204.659H86.2C85.12 206.579 83.34 208.439 81.62 209.379V204.399H75.72V211.099H76.88V210.139H81.62V209.539C81.9 209.779 82.22 210.179 82.42 210.459C84.04 209.459 85.7 207.639 86.86 205.659V211.359H88.16V205.499C89.3 207.359 90.94 209.239 92.4 210.299C92.58 209.979 93.02 209.539 93.32 209.299C91.76 208.339 89.98 206.459 88.88 204.659H92.84ZM110.66 199.259H104.28V195.339H110.66V199.259ZM111.94 194.179H103.04V200.399H111.94V194.179ZM102.42 204.119C102.02 203.639 100.26 201.839 99.66 201.319V199.999H102.26V198.759H99.66V195.299C100.64 195.059 101.56 194.779 102.3 194.479L101.38 193.459C99.9 194.119 97.22 194.679 94.96 195.059C95.12 195.359 95.3 195.799 95.38 196.099C96.34 195.959 97.38 195.779 98.4 195.579V198.759H95.06V199.999H98.2C97.4 202.359 95.96 205.019 94.68 206.459C94.9 206.759 95.22 207.279 95.36 207.639C96.44 206.379 97.56 204.259 98.4 202.159V211.319H99.66V202.599C100.36 203.439 101.28 204.599 101.62 205.159L102.42 204.119ZM108.08 209.659V206.819H112.2V205.659H108.08V202.999C109.66 202.799 111.14 202.559 112.28 202.219L111.36 201.239C109.36 201.839 105.52 202.239 102.42 202.419C102.56 202.699 102.7 203.159 102.74 203.439C104.02 203.379 105.4 203.299 106.76 203.159V205.659H102.82V206.819H106.76V209.659H101.7V210.839H113.04V209.659H108.08Z" fill="black"/>
<path d="M7.8016 237.214C7.6816 236.419 7.2766 235.054 6.8866 234.004L6.4516 234.079C6.6616 234.619 6.8716 235.264 7.0216 235.864L3.9766 236.284C5.2216 234.859 6.4516 232.954 7.5466 231.019L7.0816 230.809C6.7516 231.484 6.3316 232.189 5.9416 232.819L3.7966 233.059C4.7266 231.844 5.6266 230.209 6.3766 228.604L5.9266 228.394C5.2516 230.074 4.1266 231.859 3.7816 232.324C3.4816 232.789 3.2116 233.134 2.9866 233.179C3.0466 233.299 3.1216 233.554 3.1516 233.674C3.3316 233.584 3.6466 233.539 5.6566 233.269C4.9816 234.304 4.3666 235.144 4.0966 235.459C3.6616 236.014 3.3316 236.419 3.0766 236.464C3.1366 236.599 3.2116 236.854 3.2416 236.959C3.4666 236.854 3.8416 236.779 7.1266 236.269C7.2316 236.659 7.3216 237.034 7.3666 237.334L7.8016 237.214ZM3.7516 237.799C3.5716 239.029 3.2866 240.364 2.9116 241.339C3.0316 241.384 3.2566 241.474 3.3466 241.519C3.6616 240.574 3.9916 239.164 4.2166 237.889L3.7516 237.799ZM5.0866 237.829C5.2666 238.864 5.4466 240.214 5.4916 241.099L5.9266 241.039C5.8816 240.154 5.7016 238.804 5.5066 237.769L5.0866 237.829ZM6.3616 237.559C6.7066 238.444 7.0666 239.614 7.2166 240.364L7.6366 240.244C7.5016 239.494 7.1116 238.354 6.7666 237.469L6.3616 237.559ZM11.4166 236.629L11.3266 236.659H8.5366V237.094H11.1316C10.5316 238.924 9.1366 240.274 7.7566 240.889C7.8616 240.979 7.9816 241.114 8.0566 241.219C9.5716 240.484 11.0716 238.969 11.6866 236.749L11.4166 236.629ZM9.5566 232.744H15.1666V234.649H9.5566V232.744ZM9.5566 230.434H15.1666V232.309H9.5566V230.434ZM15.7066 235.939C15.2116 236.509 14.3566 237.349 13.6666 237.904C13.2616 237.214 12.9466 236.449 12.7066 235.669V235.084H15.6016V229.999H12.0316C12.2266 229.579 12.4216 229.039 12.6016 228.559L12.1516 228.394C12.0316 228.844 11.8066 229.519 11.5966 229.999H9.1216V235.084H12.2716V241.249C12.2716 241.429 12.2266 241.474 12.0166 241.489C11.8216 241.504 11.1466 241.504 10.2916 241.489C10.3666 241.624 10.4416 241.789 10.4716 241.924C11.4616 241.924 12.0316 241.924 12.3316 241.834C12.6166 241.744 12.7066 241.594 12.7066 241.234V236.824C13.4866 238.714 14.7616 240.364 16.2466 241.174C16.3216 241.054 16.4566 240.919 16.5616 240.829C15.4966 240.319 14.5666 239.359 13.8466 238.204C14.5666 237.649 15.4216 236.869 16.0666 236.179L15.7066 235.939ZM24.4666 240.784V234.049H30.3916V233.614H24.4666V228.664H24.0316V240.784H18.1516V241.219H31.3966V240.784H24.4666ZM33.6916 240.859H39.0616V240.364H36.7216V229.969H36.2566C35.7916 230.239 35.1316 230.464 34.2916 230.599V230.989H36.1966V240.364H33.6916V240.859ZM44.0639 241.054C45.9389 241.054 47.2139 239.839 47.2139 238.324C47.2139 236.839 46.2689 236.059 45.3689 235.504V235.429C45.9539 234.934 46.8689 233.884 46.8689 232.669C46.8689 231.064 45.8489 229.834 44.0639 229.834C42.5639 229.834 41.3789 230.929 41.3789 232.474C41.3789 233.614 42.1289 234.424 42.8939 234.919V234.979C41.9039 235.519 40.7489 236.629 40.7489 238.159C40.7489 239.809 42.1289 241.054 44.0639 241.054ZM44.8589 235.264C43.4339 234.709 41.9339 234.064 41.9339 232.474C41.9339 231.244 42.8039 230.314 44.0639 230.314C45.5039 230.314 46.3289 231.409 46.3289 232.669C46.3289 233.644 45.8039 234.514 44.8589 235.264ZM44.0639 240.559C42.4589 240.559 41.3039 239.494 41.3039 238.159C41.3039 236.884 42.1289 235.894 43.2989 235.234C44.9789 235.894 46.6439 236.524 46.6439 238.324C46.6439 239.554 45.6389 240.559 44.0639 240.559ZM51.8261 241.054C53.7311 241.054 54.9011 239.224 54.9011 235.384C54.9011 231.589 53.7311 229.774 51.8261 229.774C49.8911 229.774 48.7361 231.589 48.7361 235.384C48.7361 239.224 49.8911 241.054 51.8261 241.054ZM51.8261 240.559C50.2811 240.559 49.2911 238.729 49.2911 235.384C49.2911 232.084 50.2811 230.254 51.8261 230.254C53.3561 230.254 54.3461 232.084 54.3461 235.384C54.3461 238.729 53.3561 240.559 51.8261 240.559ZM67.6434 228.574C67.2534 229.204 66.5784 230.164 66.0534 230.734L66.3834 230.929C66.9084 230.389 67.5534 229.549 68.0334 228.814L67.6434 228.574ZM60.4284 230.734C60.1284 230.164 59.4984 229.294 58.9134 228.634L58.5384 228.814C59.0784 229.474 59.7084 230.374 60.0084 230.959L60.4284 230.734ZM57.5034 231.439H69.0084V233.959H69.4434V231.004H63.4434V228.409H63.0084V231.004H57.0684V233.959H57.5034V231.439ZM59.6184 233.479H66.9534V235.699H59.6184V233.479ZM63.4584 241.039V238.594H68.5884V238.159H63.4584V236.134H67.3884V233.044H59.1834V236.134H63.0084V238.159H58.0584V238.594H63.0084V241.039H56.8284V241.474H69.6684V241.039H63.4584ZM78.4134 237.799H83.0484V237.364H78.4134V234.484H82.5834V234.034H73.9734V234.484H77.9634V237.364H73.3884V237.799H77.9634V241.009H71.8734V241.444H84.6384V241.009H78.4134V237.799ZM74.4384 228.754V229.204H77.7084C76.1934 231.124 73.5534 233.314 71.5284 234.424C71.6484 234.514 71.7684 234.664 71.8434 234.784C73.9734 233.554 76.7034 231.184 78.2184 229.204H78.2484C79.8234 231.424 82.4484 233.524 84.6384 234.589C84.7284 234.484 84.8784 234.334 84.9834 234.244C82.7484 233.194 79.9884 231.019 78.4734 228.754H74.4384ZM94.1934 230.719C93.9834 230.104 93.5184 229.159 93.0984 228.424L92.7084 228.604C93.0984 229.339 93.5634 230.299 93.7584 230.914L94.1934 230.719ZM99.5634 231.634V231.199H86.9934V231.634H91.3734C91.1934 235.309 90.6984 239.689 86.6034 241.609C86.6934 241.684 86.8584 241.834 86.9334 241.939C89.8884 240.499 91.0134 237.859 91.5084 235.054H97.4784C97.1784 239.194 96.8634 240.754 96.3984 241.189C96.2334 241.324 96.0534 241.354 95.7084 241.354C95.3484 241.354 94.2984 241.339 93.1734 241.234C93.2634 241.354 93.3084 241.534 93.3234 241.669C94.3284 241.759 95.3184 241.789 95.7834 241.774C96.2634 241.759 96.5034 241.699 96.7584 241.444C97.3134 240.904 97.6134 239.314 97.9284 234.919C97.9434 234.829 97.9584 234.619 97.9584 234.619H91.5684C91.7034 233.614 91.7784 232.609 91.8384 231.634H99.5634ZM110.708 230.794C110.573 230.164 110.228 229.174 109.943 228.409L109.538 228.544C109.838 229.309 110.153 230.299 110.273 230.959L110.708 230.794ZM114.308 231.334H106.358V231.769H114.308V231.334ZM109.073 239.719C108.908 238.189 108.413 235.339 107.873 233.119L107.453 233.209C107.993 235.369 108.473 238.264 108.623 239.854L109.073 239.719ZM105.443 228.454C104.513 230.884 103.013 233.239 101.408 234.784C101.513 234.859 101.678 235.054 101.738 235.144C102.443 234.409 103.133 233.554 103.763 232.609V241.879H104.198V231.904C104.828 230.869 105.413 229.729 105.863 228.574L105.443 228.454ZM111.398 240.829C111.983 238.714 112.658 235.399 113.093 233.044L112.598 232.924C112.238 235.249 111.548 238.744 110.933 240.829H105.608V241.264H115.028V240.829H111.398ZM119.828 230.224C119.573 229.699 119.078 228.934 118.598 228.349L118.253 228.574C118.688 229.144 119.198 229.954 119.438 230.479L119.828 230.224ZM121.733 231.019H116.498V231.454H121.733V231.019ZM121.223 233.329V232.894H117.083V233.329H121.223ZM121.223 234.814H117.083V235.249H121.223V234.814ZM120.878 237.184V240.499H117.548V237.184H120.878ZM121.328 236.749H117.113V241.714H117.548V240.934H121.328V236.749ZM122.948 232.084H125.648V234.229H122.948V232.084ZM122.948 229.519H125.648V231.649H122.948V229.519ZM128.858 231.649H126.083V229.519H128.858V231.649ZM128.858 234.229H126.083V232.084H128.858V234.229ZM129.833 236.734V236.299H126.083V234.664H129.293V229.084H122.513V234.664H125.648V236.299H121.823V236.734H125.273C124.403 238.399 122.873 240.049 121.463 240.799C121.568 240.889 121.703 241.039 121.778 241.144C123.188 240.289 124.763 238.594 125.648 236.839V241.924H126.083V236.809C126.968 238.384 128.513 240.124 129.773 240.994C129.848 240.874 129.998 240.739 130.118 240.649C128.873 239.884 127.388 238.264 126.518 236.734H129.833ZM143.618 233.194H137.948V229.699H143.618V233.194ZM144.053 229.264H137.513V233.644H144.053V229.264ZM136.943 236.659C136.628 236.284 135.248 234.889 134.783 234.469V233.074H136.958V232.639H134.783V229.654C135.563 229.474 136.283 229.249 136.823 229.024L136.448 228.679C135.398 229.174 133.298 229.594 131.588 229.879C131.648 229.999 131.723 230.134 131.753 230.239C132.578 230.119 133.478 229.954 134.333 229.759V232.639H131.588V233.074H134.258C133.613 235.069 132.353 237.379 131.288 238.519C131.393 238.594 131.543 238.759 131.603 238.864C132.548 237.799 133.628 235.834 134.333 234.004V241.864H134.783V234.934C135.383 235.534 136.328 236.614 136.628 237.019L136.943 236.659ZM140.933 241.039V238.384H144.338V237.949H140.933V235.534C142.208 235.369 143.408 235.159 144.248 234.889L143.828 234.544C142.388 235.024 139.403 235.324 137.063 235.489C137.123 235.609 137.183 235.774 137.198 235.879C138.233 235.819 139.388 235.714 140.498 235.594V237.949H137.303V238.384H140.498V241.039H136.388V241.474H145.013V241.039H140.933Z" fill="black"/>
<path d="M92.3798 31.6797H56.9098L31.8198 56.7697V92.2397L56.9098 117.33H92.3798L117.47 92.2397V56.7697L92.3798 31.6797Z" stroke="#4C4948" stroke-width="2.29" stroke-miterlimit="10"/>
<path d="M31.8198 56.7696L80.8498 7.88965" stroke="#4C4948" stroke-width="2.29" stroke-miterlimit="10"/>
<path d="M56.2798 116.96L7.25977 68.0801" stroke="#4C4948" stroke-width="2.29" stroke-miterlimit="10"/>
<path d="M141.45 80.5692L92.4199 31.6992" stroke="#4C4948" stroke-width="2.29" stroke-miterlimit="10"/>
<path d="M31.8198 92.2398V22.5098" stroke="#4C4948" stroke-width="2.29" stroke-miterlimit="10"/>
<path d="M117.56 126.47V56.7402" stroke="#4C4948" stroke-width="2.29" stroke-miterlimit="10"/>
<path d="M22.71 117.48H92.44" stroke="#4C4948" stroke-width="2.29" stroke-miterlimit="10"/>
<path d="M56.9399 31.6797H126.66" stroke="#4C4948" stroke-width="2.29" stroke-miterlimit="10"/>
<path d="M74.6401 147C114.681 147 147.14 114.541 147.14 74.5C147.14 34.4594 114.681 2 74.6401 2C34.5995 2 2.14014 34.4594 2.14014 74.5C2.14014 114.541 34.5995 147 74.6401 147Z" stroke="#4C4948" stroke-width="2.29" stroke-miterlimit="10"/>
<path d="M74.6399 141.78C111.798 141.78 141.92 111.657 141.92 74.4997C141.92 37.342 111.798 7.21973 74.6399 7.21973C37.4821 7.21973 7.35986 37.342 7.35986 74.4997C7.35986 111.657 37.4821 141.78 74.6399 141.78Z" stroke="#4C4948" stroke-width="2.29" stroke-miterlimit="10"/>
<path d="M68.3901 141.11L117.41 92.2305" stroke="#4C4948" stroke-width="2.29" stroke-miterlimit="10"/>
<g clip-path="url(#clip0_234_3022)">
<path d="M96.72 57.2594V48.1594C96.72 47.726 96.6347 47.2969 96.4688 46.8965C96.303 46.4962 96.0599 46.1324 95.7534 45.8259C95.447 45.5195 95.0832 45.2764 94.6829 45.1106C94.2825 44.9447 93.8534 44.8594 93.42 44.8594H77.36C76.9266 44.8594 76.4975 44.9447 76.0971 45.1106C75.6968 45.2764 75.333 45.5195 75.0266 45.8259C74.7201 46.1324 74.477 46.4962 74.3112 46.8965C74.1453 47.2969 74.06 47.726 74.06 48.1594V57.1594H64.6V56.0594C64.6 55.1842 64.2523 54.3448 63.6335 53.7259C63.0146 53.1071 62.1752 52.7594 61.3 52.7594H56.9C56.0248 52.7594 55.1854 53.1071 54.5666 53.7259C53.9477 54.3448 53.6 55.1842 53.6 56.0594V57.2394C51.7685 57.5058 50.0939 58.4223 48.8821 59.8213C47.6704 61.2203 47.0023 63.0085 47 64.8594V93.5194C47.0026 95.5607 47.8148 97.5177 49.2582 98.9612C50.7017 100.405 52.6587 101.217 54.7 101.219H95.62C97.6614 101.217 99.6183 100.405 101.062 98.9612C102.505 97.5177 103.317 95.5607 103.32 93.5194V64.9194C103.318 63.0685 102.65 61.2803 101.438 59.8813C100.226 58.4823 98.5516 57.5658 96.72 57.2994V57.2594ZM76.26 48.1594C76.26 47.8676 76.3759 47.5879 76.5822 47.3816C76.7885 47.1753 77.0682 47.0594 77.36 47.0594H93.42C93.5645 47.0594 93.7075 47.0878 93.8409 47.1431C93.9744 47.1984 94.0957 47.2794 94.1978 47.3816C94.3 47.4837 94.381 47.605 94.4363 47.7384C94.4916 47.8719 94.52 48.0149 94.52 48.1594V58.2794C94.52 58.4238 94.4916 58.5669 94.4363 58.7003C94.381 58.8338 94.3 58.955 94.1978 59.0572C94.0957 59.1593 93.9744 59.2404 93.8409 59.2956C93.7075 59.3509 93.5645 59.3794 93.42 59.3794H77.36C77.0682 59.3794 76.7885 59.2635 76.5822 59.0572C76.3759 58.8509 76.26 58.5711 76.26 58.2794V48.1594ZM56.9 54.9794H61.3C61.4444 54.9794 61.5875 55.0078 61.7209 55.0631C61.8544 55.1184 61.9757 55.1994 62.0778 55.3016C62.18 55.4037 62.261 55.525 62.3163 55.6584C62.3715 55.7919 62.4 55.9349 62.4 56.0794V57.1794H55.8V56.0794C55.8 55.7876 55.9159 55.5078 56.1222 55.3016C56.3285 55.0953 56.6083 54.9794 56.9 54.9794ZM49.2 64.8794C49.2027 63.4215 49.783 62.0241 50.8138 60.9932C51.8447 59.9623 53.2421 59.382 54.7 59.3794H74.25C74.4774 60.0226 74.8986 60.5795 75.4555 60.9734C76.0124 61.3674 76.6778 61.5791 77.36 61.5794H93.42C94.0879 61.5804 94.7403 61.3781 95.2904 60.9995C95.8406 60.6208 96.2625 60.0836 96.5 59.4594C97.7878 59.6681 98.9594 60.3278 99.8057 61.3206C100.652 62.3135 101.118 63.5748 101.12 64.8794V80.2794H90.52C90.3419 77.7873 89.5603 75.376 88.2424 73.2534C86.9245 71.1308 85.1099 69.3608 82.9553 68.096C80.8007 66.8312 78.3707 66.1096 75.875 65.9934C73.3793 65.8773 70.8928 66.3701 68.63 67.4294C68.3648 67.554 68.1599 67.7789 68.0605 68.0546C67.9612 68.3303 67.9754 68.6342 68.1 68.8994C68.2247 69.1646 68.4495 69.3694 68.7252 69.4688C69.0009 69.5682 69.3048 69.554 69.57 69.4294C72.1566 68.2203 75.0654 67.8824 77.8603 68.4665C80.6551 69.0506 83.1853 70.5252 85.0711 72.669C86.9569 74.8128 88.0967 77.5103 88.3196 80.3568C88.5425 83.2034 87.8365 86.0454 86.3073 88.4566C84.7782 90.8679 82.5085 92.7183 79.8386 93.7303C77.1688 94.7424 74.2427 94.8614 71.4995 94.0697C68.7562 93.2779 66.3437 91.618 64.6237 89.3389C62.9037 87.0599 61.9691 84.2846 61.96 81.4294C61.9574 79.4976 62.3808 77.5889 63.2 75.8394C63.3233 75.5742 63.3362 75.2708 63.2359 74.9961C63.1356 74.7213 62.9302 74.4977 62.665 74.3744C62.3998 74.251 62.0964 74.2381 61.8217 74.3385C61.5469 74.4388 61.3233 74.6442 61.2 74.9094C60.3962 76.6123 59.9179 78.4506 59.79 80.3294H49.19L49.2 64.8794ZM101.12 93.5194C101.117 94.9773 100.537 96.3747 99.5062 97.4055C98.4753 98.4364 97.0779 99.0167 95.62 99.0194H54.7C53.2421 99.0167 51.8447 98.4364 50.8138 97.4055C49.783 96.3747 49.2027 94.9773 49.2 93.5194V82.5194H59.8C60.0803 86.4016 61.8204 90.0336 64.67 92.6849C67.5197 95.3363 71.2677 96.8102 75.16 96.8102C79.0523 96.8102 82.8003 95.3363 85.6499 92.6849C88.4996 90.0336 90.2396 86.4016 90.52 82.5194H101.12V93.5194Z" fill="#4C4948"/>
<path d="M75.16 91.8297C77.2268 91.8297 79.2472 91.2168 80.9657 90.0686C82.6842 88.9203 84.0236 87.2882 84.8145 85.3787C85.6054 83.4692 85.8124 81.3681 85.4092 79.341C85.006 77.3139 84.0107 75.4519 82.5492 73.9904C81.0878 72.529 79.2258 71.5337 77.1987 71.1305C75.1716 70.7273 73.0704 70.9342 71.1609 71.7252C69.2514 72.5161 67.6194 73.8555 66.4711 75.574C65.3228 77.2925 64.71 79.3129 64.71 81.3797C64.7126 84.1504 65.8144 86.8068 67.7736 88.766C69.7328 90.7252 72.3893 91.827 75.16 91.8297ZM75.16 73.1297C76.7917 73.1297 78.3867 73.6136 79.7434 74.5201C81.1001 75.4266 82.1576 76.7151 82.782 78.2226C83.4064 79.73 83.5698 81.3888 83.2514 82.9892C82.9331 84.5895 82.1474 86.0595 80.9936 87.2133C79.8398 88.3671 78.3698 89.1528 76.7695 89.4712C75.1691 89.7895 73.5103 89.6261 72.0028 89.0017C70.4953 88.3773 69.2069 87.3198 68.3004 85.9631C67.3938 84.6064 66.91 83.0114 66.91 81.3797C66.9126 79.1925 67.7827 77.0956 69.3293 75.549C70.8759 74.0024 72.9727 73.1323 75.16 73.1297Z" fill="#4C4948"/>
<path d="M75.16 84.9598C75.868 84.9598 76.5602 84.7498 77.1489 84.3565C77.7376 83.9631 78.1965 83.404 78.4675 82.7498C78.7384 82.0957 78.8093 81.3758 78.6712 80.6814C78.533 79.9869 78.1921 79.349 77.6914 78.8484C77.1907 78.3477 76.5529 78.0067 75.8584 77.8686C75.1639 77.7305 74.4441 77.8014 73.7899 78.0723C73.1358 78.3433 72.5767 78.8021 72.1833 79.3909C71.7899 79.9796 71.58 80.6718 71.58 81.3798C71.58 82.3293 71.9572 83.2399 72.6285 83.9113C73.2999 84.5826 74.2105 84.9598 75.16 84.9598ZM75.16 80.0098C75.5044 80.0392 75.8252 80.1968 76.0591 80.4514C76.2929 80.706 76.4226 81.0391 76.4226 81.3848C76.4226 81.7305 76.2929 82.0636 76.0591 82.3182C75.8252 82.5728 75.5044 82.7304 75.16 82.7598C74.9695 82.7761 74.7778 82.7526 74.597 82.6909C74.4161 82.6291 74.25 82.5305 74.1092 82.4013C73.9685 82.272 73.8561 82.1149 73.7792 81.9399C73.7023 81.765 73.6626 81.5759 73.6626 81.3848C73.6626 81.1937 73.7023 81.0047 73.7792 80.8297C73.8561 80.6547 73.9685 80.4976 74.1092 80.3684C74.25 80.2391 74.4161 80.1405 74.597 80.0788C74.7778 80.017 74.9695 79.9936 75.16 80.0098Z" fill="#4C4948"/>
<path d="M93.1401 73.1297C93.849 73.1317 94.5425 72.9232 95.1328 72.5306C95.723 72.1379 96.1834 71.5789 96.4556 70.9244C96.7278 70.2698 96.7996 69.5491 96.6618 68.8538C96.5239 68.1584 96.1828 67.5196 95.6815 67.0183C95.1802 66.517 94.5414 66.1758 93.846 66.038C93.1506 65.9002 92.43 65.972 91.7754 66.2442C91.1209 66.5164 90.5618 66.9768 90.1692 67.567C89.7766 68.1573 89.5681 68.8508 89.5701 69.5597C89.5701 70.5065 89.9462 71.4146 90.6157 72.0841C91.2852 72.7536 92.1932 73.1297 93.1401 73.1297ZM93.1401 68.1297C93.4134 68.1277 93.6812 68.207 93.9095 68.3574C94.1377 68.5078 94.3161 68.7227 94.4221 68.9746C94.5281 69.2266 94.5569 69.5044 94.5048 69.7728C94.4527 70.0411 94.322 70.2879 94.1294 70.4819C93.9368 70.6759 93.691 70.8084 93.423 70.8624C93.155 70.9165 92.8771 70.8898 92.6243 70.7856C92.3716 70.6815 92.1555 70.5046 92.0034 70.2774C91.8513 70.0503 91.7701 69.7831 91.7701 69.5097C91.7829 69.1542 91.9326 68.8174 92.1879 68.5695C92.4432 68.3217 92.7843 68.1821 93.1401 68.1797V68.1297Z" fill="#4C4948"/>
<path d="M80.27 57.3094C80.5618 57.3094 80.8416 57.1935 81.0479 56.9872C81.2541 56.7809 81.37 56.5011 81.37 56.2094V50.2094C81.37 49.9176 81.2541 49.6379 81.0479 49.4316C80.8416 49.2253 80.5618 49.1094 80.27 49.1094C79.9783 49.1094 79.6985 49.2253 79.4922 49.4316C79.2859 49.6379 79.17 49.9176 79.17 50.2094V56.2094C79.17 56.5011 79.2859 56.7809 79.4922 56.9872C79.6985 57.1935 79.9783 57.3094 80.27 57.3094Z" fill="#4C4948"/>
<path d="M85.39 57.3094C85.6818 57.3094 85.9616 57.1935 86.1678 56.9872C86.3741 56.7809 86.49 56.5011 86.49 56.2094V50.2094C86.49 49.9176 86.3741 49.6379 86.1678 49.4316C85.9616 49.2253 85.6818 49.1094 85.39 49.1094C85.0983 49.1094 84.8185 49.2253 84.6122 49.4316C84.4059 49.6379 84.29 49.9176 84.29 50.2094V56.2094C84.29 56.5011 84.4059 56.7809 84.6122 56.9872C84.8185 57.1935 85.0983 57.3094 85.39 57.3094Z" fill="#4C4948"/>
<path d="M90.5 57.3094C90.7918 57.3094 91.0715 57.1935 91.2778 56.9872C91.4841 56.7809 91.6 56.5011 91.6 56.2094V50.2094C91.6 49.9176 91.4841 49.6379 91.2778 49.4316C91.0715 49.2253 90.7918 49.1094 90.5 49.1094C90.2083 49.1094 89.9285 49.2253 89.7222 49.4316C89.5159 49.6379 89.4 49.9176 89.4 50.2094V56.2094C89.4 56.5011 89.5159 56.7809 89.7222 56.9872C89.9285 57.1935 90.2083 57.3094 90.5 57.3094Z" fill="#4C4948"/>
<path d="M64.34 72.1195C64.5408 72.2823 64.7916 72.3706 65.05 72.3695C65.2112 72.3711 65.3707 72.3359 65.5163 72.2666C65.6618 72.1973 65.7896 72.0957 65.89 71.9695C65.9836 71.86 66.0544 71.7328 66.0981 71.5955C66.1419 71.4582 66.1577 71.3135 66.1446 71.17C66.1316 71.0265 66.0899 70.887 66.0222 70.7599C65.9544 70.6327 65.8619 70.5204 65.75 70.4295C65.6391 70.3369 65.511 70.267 65.373 70.2239C65.235 70.1808 65.0899 70.1653 64.946 70.1783C64.8021 70.1913 64.6621 70.2325 64.5341 70.2997C64.4061 70.3668 64.2926 70.4585 64.2 70.5695C64.0155 70.7946 63.9267 71.0832 63.9529 71.3731C63.9791 71.6631 64.1181 71.9311 64.34 72.1195Z" fill="#4C4948"/>
</g>
<defs>
<clipPath id="clip0_234_3022">
<rect width="56.32" height="56.32" fill="white" transform="translate(47 44.8594)"/>
</clipPath>
</defs>
</svg>
