<svg width="196" height="256" viewBox="0 0 196 256" fill="none" xmlns="http://www.w3.org/2000/svg">
<g clip-path="url(#clip0_140_1571)">
<path d="M195.37 0.25H0.25V255.25H195.37V0.25Z" stroke="white" stroke-width="0.5" stroke-miterlimit="10"/>
<path d="M8.44995 29.9799V8.40991H30.02" stroke="white" stroke-width="0.75" stroke-miterlimit="10"/>
<path d="M30.02 247.09H8.44995V225.52" stroke="white" stroke-width="0.75" stroke-miterlimit="10"/>
<path d="M187.18 29.9799V8.40991H165.61" stroke="white" stroke-width="0.75" stroke-miterlimit="10"/>
<path d="M165.61 247.09H187.18V225.52" stroke="white" stroke-width="0.75" stroke-miterlimit="10"/>
<path d="M72.43 16.5901H69.73V20.0001H72.43V16.5901Z" fill="white"/>
<path d="M77.7801 16.5901H75.0801V20.0001H77.7801V16.5901Z" fill="white"/>
<path d="M83.1199 16.5901H80.4199V20.0001H83.1199V16.5901Z" fill="white"/>
<path d="M88.47 16.5901H85.77V20.0001H88.47V16.5901Z" fill="white"/>
<path d="M93.8201 16.5901H91.1201V20.0001H93.8201V16.5901Z" fill="white"/>
<path d="M104.51 16.5901H101.81V20.0001H104.51V16.5901Z" fill="white"/>
<path d="M109.86 16.5901H107.16V20.0001H109.86V16.5901Z" fill="white"/>
<path d="M115.2 16.5901H112.5V20.0001H115.2V16.5901Z" fill="white"/>
<path d="M120.55 16.5901H117.85V20.0001H120.55V16.5901Z" fill="white"/>
<path d="M125.9 16.5901H123.2V20.0001H125.9V16.5901Z" fill="white"/>
<path d="M99.16 16.5901H96.46V22.8701H99.16V16.5901Z" fill="white"/>
<path d="M132.16 18.29L127.62 20.83V15.76L132.16 18.29Z" fill="white"/>
<path d="M63.46 18.29L68 15.76V20.83L63.46 18.29Z" fill="white"/>
<path d="M64.98 239.95L59.87 234.84L56.99 237.71L51.97 232.69L44.71 239.95H64.98Z" fill="white"/>
<path d="M64.9801 240.25H44.7101C44.6306 240.25 44.5543 240.218 44.498 240.162C44.4418 240.106 44.4102 240.03 44.4102 239.95V226.95C44.4128 226.872 44.4455 226.799 44.5015 226.744C44.5575 226.69 44.6323 226.66 44.7101 226.66H64.9801C65.0571 226.66 65.1308 226.691 65.1852 226.745C65.2396 226.799 65.2701 226.873 65.2701 226.95V239.95C65.2715 239.989 65.265 240.028 65.251 240.064C65.237 240.101 65.2159 240.134 65.1888 240.162C65.1618 240.19 65.1293 240.212 65.0935 240.227C65.0576 240.242 65.0191 240.25 64.9801 240.25ZM44.9801 239.66H64.6501V227.29H45.0101L44.9801 239.66Z" fill="white"/>
<path d="M93.6198 240.25H73.3498C73.2702 240.25 73.1939 240.218 73.1377 240.162C73.0814 240.106 73.0498 240.03 73.0498 239.95V226.95C73.0524 226.872 73.0851 226.799 73.1411 226.744C73.1971 226.69 73.2719 226.66 73.3498 226.66H93.6198C93.6977 226.66 93.7725 226.69 93.8285 226.744C93.8845 226.799 93.9172 226.872 93.9198 226.95V239.95C93.9198 240.03 93.8882 240.106 93.8319 240.162C93.7757 240.218 93.6994 240.25 93.6198 240.25ZM73.6198 239.66H93.2898V227.29H73.6498L73.6198 239.66Z" fill="white"/>
<path d="M82.0001 228.81C81.4214 228.807 80.8476 228.916 80.3101 229.13C81.4001 229.221 82.4162 229.718 83.1569 230.523C83.8976 231.327 84.3087 232.381 84.3087 233.475C84.3087 234.569 83.8976 235.623 83.1569 236.428C82.4162 237.232 81.4001 237.729 80.3101 237.82C80.9484 238.07 81.634 238.175 82.3179 238.13C83.0018 238.084 83.6671 237.888 84.2666 237.556C84.8661 237.223 85.3848 236.763 85.7859 236.207C86.187 235.651 86.4606 235.014 86.5871 234.34C86.7135 233.667 86.6899 232.973 86.5177 232.31C86.3456 231.646 86.0292 231.029 85.5912 230.502C85.1531 229.975 84.6041 229.551 83.9834 229.26C83.3627 228.969 82.6855 228.819 82.0001 228.82V228.81Z" fill="white"/>
<path d="M122.26 240.25H102C101.96 240.251 101.92 240.245 101.883 240.23C101.846 240.216 101.813 240.193 101.785 240.165C101.757 240.137 101.734 240.104 101.72 240.067C101.705 240.029 101.698 239.99 101.7 239.95V226.95C101.7 226.911 101.708 226.873 101.723 226.837C101.738 226.801 101.76 226.768 101.788 226.741C101.816 226.714 101.849 226.693 101.886 226.679C101.922 226.665 101.961 226.659 102 226.66H122.26C122.299 226.659 122.338 226.665 122.374 226.679C122.41 226.693 122.443 226.714 122.471 226.741C122.499 226.768 122.522 226.801 122.537 226.837C122.552 226.873 122.56 226.911 122.56 226.95V239.95C122.561 239.99 122.554 240.029 122.54 240.067C122.525 240.104 122.503 240.137 122.475 240.165C122.447 240.193 122.413 240.216 122.376 240.23C122.339 240.245 122.3 240.251 122.26 240.25ZM102.26 239.66H121.94V227.29H102.29L102.26 239.66Z" fill="white"/>
<path d="M112.09 236.25C111.54 236.252 111.001 236.091 110.543 235.786C110.084 235.482 109.726 235.049 109.514 234.541C109.302 234.033 109.246 233.474 109.352 232.934C109.458 232.394 109.722 231.897 110.111 231.508C110.499 231.118 110.994 230.852 111.534 230.744C112.073 230.636 112.633 230.69 113.141 230.901C113.65 231.111 114.085 231.467 114.391 231.924C114.696 232.382 114.86 232.92 114.86 233.47C114.86 234.206 114.568 234.911 114.049 235.432C113.53 235.953 112.825 236.247 112.09 236.25Z" fill="white"/>
<path d="M112.09 230.07C112.05 230.071 112.011 230.064 111.974 230.05C111.937 230.035 111.903 230.013 111.875 229.985C111.847 229.957 111.825 229.923 111.81 229.886C111.796 229.849 111.789 229.81 111.79 229.77V228.18C111.79 228.1 111.822 228.024 111.878 227.968C111.934 227.912 112.011 227.88 112.09 227.88C112.169 227.882 112.244 227.915 112.3 227.971C112.355 228.026 112.388 228.101 112.39 228.18V229.77C112.39 229.849 112.359 229.926 112.302 229.982C112.246 230.038 112.17 230.07 112.09 230.07Z" fill="white"/>
<path d="M112.09 239.07C112.051 239.071 112.013 239.065 111.976 239.051C111.94 239.037 111.907 239.016 111.879 238.989C111.851 238.962 111.828 238.929 111.813 238.893C111.798 238.858 111.79 238.819 111.79 238.78V237.19C111.789 237.15 111.796 237.111 111.81 237.074C111.825 237.037 111.847 237.003 111.875 236.975C111.903 236.947 111.937 236.925 111.974 236.91C112.011 236.895 112.05 236.889 112.09 236.89C112.17 236.89 112.246 236.922 112.302 236.978C112.359 237.034 112.39 237.11 112.39 237.19V238.78C112.388 238.858 112.355 238.932 112.299 238.986C112.243 239.04 112.168 239.07 112.09 239.07Z" fill="white"/>
<path d="M117.45 233.77H115.86C115.817 233.778 115.772 233.776 115.73 233.765C115.687 233.754 115.647 233.734 115.613 233.706C115.58 233.678 115.552 233.642 115.534 233.602C115.515 233.563 115.505 233.519 115.505 233.475C115.505 233.431 115.515 233.388 115.534 233.348C115.552 233.308 115.58 233.273 115.613 233.244C115.647 233.216 115.687 233.196 115.73 233.185C115.772 233.174 115.817 233.172 115.86 233.18H117.45C117.493 233.172 117.538 233.174 117.58 233.185C117.623 233.196 117.663 233.216 117.696 233.244C117.73 233.273 117.757 233.308 117.776 233.348C117.795 233.388 117.804 233.431 117.804 233.475C117.804 233.519 117.795 233.563 117.776 233.602C117.757 233.642 117.73 233.678 117.696 233.706C117.663 233.734 117.623 233.754 117.58 233.765C117.538 233.776 117.493 233.778 117.45 233.77Z" fill="white"/>
<path d="M108.4 233.77H106.81C106.767 233.778 106.722 233.776 106.68 233.765C106.637 233.754 106.598 233.734 106.564 233.706C106.53 233.678 106.503 233.642 106.484 233.602C106.465 233.563 106.456 233.519 106.456 233.475C106.456 233.431 106.465 233.388 106.484 233.348C106.503 233.308 106.53 233.273 106.564 233.244C106.598 233.216 106.637 233.196 106.68 233.185C106.722 233.174 106.767 233.172 106.81 233.18H108.4C108.469 233.193 108.531 233.229 108.576 233.283C108.621 233.337 108.646 233.405 108.646 233.475C108.646 233.545 108.621 233.613 108.576 233.667C108.531 233.721 108.469 233.757 108.4 233.77Z" fill="white"/>
<path d="M114.77 231.13C114.693 231.13 114.618 231.101 114.56 231.05C114.532 231.023 114.509 230.99 114.494 230.954C114.478 230.918 114.47 230.879 114.47 230.84C114.47 230.801 114.478 230.762 114.494 230.726C114.509 230.69 114.532 230.657 114.56 230.63L115.68 229.5C115.706 229.466 115.739 229.437 115.777 229.417C115.814 229.396 115.856 229.384 115.899 229.381C115.942 229.378 115.985 229.384 116.025 229.399C116.065 229.414 116.102 229.437 116.132 229.468C116.163 229.498 116.186 229.535 116.201 229.575C116.216 229.615 116.222 229.658 116.219 229.701C116.216 229.744 116.204 229.786 116.184 229.824C116.163 229.861 116.135 229.894 116.1 229.92L114.98 231.07C114.919 231.112 114.845 231.134 114.77 231.13Z" fill="white"/>
<path d="M108.37 237.54C108.33 237.541 108.291 237.534 108.255 237.518C108.219 237.503 108.186 237.48 108.16 237.45C108.131 237.423 108.109 237.39 108.093 237.354C108.078 237.318 108.07 237.279 108.07 237.24C108.07 237.201 108.078 237.162 108.093 237.126C108.109 237.09 108.131 237.057 108.16 237.03L109.28 235.9C109.337 235.847 109.412 235.818 109.49 235.818C109.568 235.818 109.643 235.847 109.7 235.9C109.728 235.927 109.751 235.96 109.766 235.996C109.782 236.032 109.79 236.071 109.79 236.11C109.79 236.149 109.782 236.188 109.766 236.224C109.751 236.26 109.728 236.293 109.7 236.32L108.58 237.45C108.524 237.507 108.449 237.539 108.37 237.54Z" fill="white"/>
<path d="M115.89 237.54C115.811 237.539 115.736 237.507 115.68 237.45L114.56 236.32C114.532 236.293 114.509 236.26 114.494 236.224C114.478 236.188 114.47 236.149 114.47 236.11C114.47 236.071 114.478 236.032 114.494 235.996C114.509 235.96 114.532 235.927 114.56 235.9C114.617 235.847 114.692 235.818 114.77 235.818C114.848 235.818 114.923 235.847 114.98 235.9L116.09 237.07C116.131 237.112 116.159 237.165 116.17 237.223C116.182 237.28 116.176 237.34 116.153 237.394C116.131 237.449 116.093 237.495 116.045 237.528C115.996 237.561 115.939 237.579 115.88 237.58L115.89 237.54Z" fill="white"/>
<path d="M109.49 231.13C109.413 231.13 109.338 231.101 109.28 231.05L108.16 229.92C108.117 229.862 108.096 229.791 108.101 229.719C108.106 229.647 108.137 229.579 108.188 229.528C108.239 229.477 108.307 229.446 108.379 229.441C108.451 229.436 108.522 229.457 108.58 229.5L109.7 230.63C109.729 230.657 109.751 230.69 109.767 230.726C109.782 230.762 109.79 230.801 109.79 230.84C109.79 230.879 109.782 230.918 109.767 230.954C109.751 230.99 109.729 231.023 109.7 231.05C109.642 231.101 109.567 231.13 109.49 231.13Z" fill="white"/>
<path d="M150.91 240.25H130.64C130.6 240.251 130.561 240.245 130.524 240.23C130.487 240.216 130.453 240.193 130.425 240.165C130.397 240.137 130.375 240.104 130.36 240.067C130.345 240.029 130.339 239.99 130.34 239.95V226.95C130.34 226.911 130.348 226.873 130.363 226.837C130.378 226.801 130.4 226.768 130.428 226.741C130.456 226.714 130.49 226.693 130.526 226.679C130.562 226.665 130.601 226.659 130.64 226.66H150.91C150.987 226.66 151.061 226.691 151.115 226.745C151.169 226.799 151.2 226.873 151.2 226.95V239.95C151.201 239.989 151.195 240.028 151.181 240.064C151.167 240.1 151.146 240.134 151.119 240.162C151.092 240.19 151.059 240.212 151.023 240.227C150.988 240.242 150.949 240.25 150.91 240.25ZM130.91 239.66H150.58V227.29H130.94L130.91 239.66Z" fill="white"/>
<path d="M140.77 230.3C140.691 230.297 140.617 230.265 140.561 230.209C140.505 230.154 140.473 230.079 140.47 230V228.59C140.473 228.512 140.506 228.438 140.562 228.384C140.618 228.33 140.692 228.3 140.77 228.3C140.809 228.299 140.848 228.305 140.884 228.319C140.921 228.333 140.954 228.354 140.982 228.381C141.01 228.408 141.032 228.441 141.047 228.477C141.062 228.513 141.07 228.551 141.07 228.59V230C141.07 230.08 141.039 230.156 140.982 230.212C140.926 230.268 140.85 230.3 140.77 230.3Z" fill="white"/>
<path d="M145.47 233.59H144.09C144.047 233.598 144.002 233.597 143.96 233.585C143.917 233.574 143.877 233.554 143.843 233.526C143.81 233.498 143.782 233.462 143.764 233.422C143.745 233.383 143.735 233.339 143.735 233.295C143.735 233.251 143.745 233.208 143.764 233.168C143.782 233.128 143.81 233.093 143.843 233.065C143.877 233.036 143.917 233.016 143.96 233.005C144.002 232.994 144.047 232.992 144.09 233H145.49C145.533 232.992 145.578 232.994 145.62 233.005C145.663 233.016 145.702 233.036 145.736 233.065C145.77 233.093 145.797 233.128 145.816 233.168C145.835 233.208 145.844 233.251 145.844 233.295C145.844 233.339 145.835 233.383 145.816 233.422C145.797 233.462 145.77 233.498 145.736 233.526C145.702 233.554 145.663 233.574 145.62 233.585C145.578 233.597 145.533 233.598 145.49 233.59H145.47Z" fill="white"/>
<path d="M137.48 233.59H136.09C136.021 233.577 135.959 233.541 135.914 233.487C135.869 233.433 135.845 233.365 135.845 233.295C135.845 233.225 135.869 233.157 135.914 233.103C135.959 233.049 136.021 233.013 136.09 233H137.5C137.569 233.013 137.631 233.049 137.676 233.103C137.721 233.157 137.746 233.225 137.746 233.295C137.746 233.365 137.721 233.433 137.676 233.487C137.631 233.541 137.569 233.577 137.5 233.59H137.48Z" fill="white"/>
<path d="M143.09 231.26C143.011 231.259 142.935 231.226 142.88 231.17C142.852 231.143 142.829 231.11 142.813 231.074C142.798 231.038 142.79 230.999 142.79 230.96C142.79 230.921 142.798 230.882 142.813 230.846C142.829 230.81 142.852 230.777 142.88 230.75L143.88 229.75C143.938 229.707 144.009 229.686 144.081 229.691C144.153 229.696 144.221 229.727 144.272 229.778C144.323 229.829 144.354 229.897 144.359 229.969C144.364 230.041 144.343 230.112 144.3 230.17L143.3 231.17C143.273 231.198 143.24 231.221 143.204 231.237C143.168 231.252 143.129 231.26 143.09 231.26Z" fill="white"/>
<path d="M137.45 236.91C137.373 236.91 137.298 236.881 137.24 236.83C137.211 236.803 137.189 236.77 137.173 236.734C137.158 236.698 137.15 236.659 137.15 236.62C137.15 236.581 137.158 236.542 137.173 236.506C137.189 236.47 137.211 236.437 137.24 236.41L138.24 235.41C138.297 235.357 138.372 235.328 138.45 235.328C138.528 235.328 138.603 235.357 138.66 235.41C138.688 235.437 138.711 235.47 138.726 235.506C138.742 235.542 138.75 235.581 138.75 235.62C138.75 235.659 138.742 235.698 138.726 235.734C138.711 235.77 138.688 235.803 138.66 235.83L137.66 236.83C137.602 236.881 137.527 236.91 137.45 236.91Z" fill="white"/>
<path d="M144.09 236.91C144.009 236.909 143.932 236.881 143.87 236.83L142.87 235.83C142.841 235.803 142.819 235.77 142.803 235.734C142.788 235.698 142.78 235.659 142.78 235.62C142.78 235.581 142.788 235.542 142.803 235.506C142.819 235.47 142.841 235.437 142.87 235.41C142.927 235.357 143.002 235.328 143.08 235.328C143.158 235.328 143.233 235.357 143.29 235.41L144.29 236.41C144.318 236.437 144.341 236.47 144.356 236.506C144.372 236.542 144.38 236.581 144.38 236.62C144.38 236.659 144.372 236.698 144.356 236.734C144.341 236.77 144.318 236.803 144.29 236.83C144.235 236.881 144.164 236.909 144.09 236.91Z" fill="white"/>
<path d="M138.44 231.26C138.361 231.259 138.285 231.226 138.23 231.17L137.23 230.17C137.187 230.112 137.166 230.041 137.171 229.969C137.176 229.897 137.207 229.829 137.258 229.778C137.309 229.727 137.377 229.696 137.449 229.691C137.521 229.686 137.592 229.707 137.65 229.75L138.65 230.75C138.691 230.792 138.719 230.845 138.73 230.903C138.741 230.96 138.735 231.02 138.713 231.074C138.691 231.129 138.653 231.175 138.604 231.208C138.556 231.241 138.499 231.259 138.44 231.26Z" fill="white"/>
<path d="M142.09 236.19H139.43V235.38C138.977 235.092 138.629 234.665 138.44 234.163C138.25 233.66 138.229 233.11 138.378 232.594C138.528 232.079 138.842 231.626 139.271 231.303C139.7 230.981 140.223 230.807 140.76 230.807C141.297 230.807 141.819 230.981 142.249 231.303C142.678 231.626 142.991 232.079 143.141 232.594C143.291 233.11 143.27 233.66 143.08 234.163C142.89 234.665 142.543 235.092 142.09 235.38V236.19Z" fill="white"/>
<path d="M141.8 237.42H139.74C139.696 237.428 139.652 237.426 139.609 237.415C139.567 237.404 139.527 237.384 139.493 237.356C139.46 237.327 139.432 237.292 139.414 237.252C139.395 237.212 139.385 237.169 139.385 237.125C139.385 237.081 139.395 237.037 139.414 236.998C139.432 236.958 139.46 236.922 139.493 236.894C139.527 236.866 139.567 236.846 139.609 236.835C139.652 236.824 139.696 236.822 139.74 236.83H141.8C141.843 236.822 141.888 236.824 141.93 236.835C141.973 236.846 142.012 236.866 142.046 236.894C142.08 236.922 142.107 236.958 142.126 236.998C142.145 237.037 142.154 237.081 142.154 237.125C142.154 237.169 142.145 237.212 142.126 237.252C142.107 237.292 142.08 237.327 142.046 237.356C142.012 237.384 141.973 237.404 141.93 237.415C141.888 237.426 141.843 237.428 141.8 237.42Z" fill="white"/>
<path d="M141.44 238.65H140.09C140.047 238.658 140.002 238.656 139.96 238.645C139.917 238.634 139.877 238.614 139.843 238.586C139.81 238.557 139.782 238.522 139.764 238.482C139.745 238.442 139.735 238.399 139.735 238.355C139.735 238.311 139.745 238.267 139.764 238.228C139.782 238.188 139.81 238.152 139.843 238.124C139.877 238.096 139.917 238.076 139.96 238.065C140.002 238.054 140.047 238.052 140.09 238.06H141.42C141.489 238.073 141.551 238.109 141.596 238.163C141.641 238.217 141.665 238.285 141.665 238.355C141.665 238.425 141.641 238.493 141.596 238.547C141.551 238.601 141.489 238.637 141.42 238.65H141.44Z" fill="white"/>
<path d="M145.27 70.53C143.434 68.6873 141.252 67.2255 138.85 66.2284C136.447 65.2314 133.871 64.7187 131.27 64.72H64.38C59.1198 64.7253 54.0765 66.8173 50.3569 70.5368C46.6373 74.2564 44.5453 79.2997 44.54 84.56V151.42C44.5453 156.68 46.6373 161.724 50.3569 165.443C54.0765 169.163 59.1198 171.255 64.38 171.26H131.24C136.502 171.257 141.548 169.167 145.27 165.447C148.991 161.727 151.085 156.682 151.09 151.42V84.56C151.094 81.953 150.582 79.3711 149.583 76.9631C148.584 74.5551 147.118 72.3687 145.27 70.53V70.53Z" stroke="white" stroke-miterlimit="10"/>
<path d="M81.0898 132.72V94.72C81.0898 94.05 81.0298 94 80.3598 94H71.8498C71.1698 94 71.0098 94.16 71.0098 94.81V140.96C71.0098 141.78 71.1898 141.96 72.0098 141.96H100.32C101.12 141.96 101.32 141.83 101.4 141.06C101.813 138.54 102.233 136.017 102.66 133.49C102.75 132.9 102.66 132.75 102.04 132.73H81.0898V132.72Z" fill="white"/>
<path d="M117.37 110.31C117.37 110.02 117.37 109.82 117.37 109.63C117.373 108.431 117.135 107.244 116.67 106.14C116.599 105.963 116.476 105.812 116.317 105.706C116.158 105.601 115.971 105.546 115.78 105.55H107.86C107.46 105.55 107.29 105.76 107.33 106.16C107.37 106.56 107.45 106.97 107.46 107.38C107.55 109.97 107.69 112.56 107.7 115.16C107.7 123.77 107.7 132.39 107.7 141.01C107.7 141.91 107.79 142.01 108.7 142.01H116.8C117.8 142.01 117.8 142.01 117.8 141.01C117.8 133.623 117.8 126.233 117.8 118.84C117.789 118.609 117.837 118.379 117.938 118.171C118.039 117.963 118.191 117.784 118.38 117.65C119.614 116.739 121.013 116.077 122.5 115.7C124.535 115.091 126.659 114.838 128.78 114.95C129.48 114.95 129.62 114.85 129.62 114.17V105.52C129.62 105.15 129.46 104.88 129.07 104.89C128.221 104.894 127.373 104.945 126.53 105.04C123.863 105.472 121.378 106.662 119.37 108.47C118.73 108.98 118.09 109.62 117.37 110.31Z" fill="white"/>
</g>
<defs>
<clipPath id="clip0_140_1571">
<rect width="195.62" height="255.5" fill="white"/>
</clipPath>
</defs>
</svg>
